<svg width="100" height="61" viewBox="0 0 100 61" fill="none" xmlns="http://www.w3.org/2000/svg">
<rect x="0.5" y="0.5" width="99" height="60" rx="24.5" fill="#4B0B82" stroke="black"/>
<mask id="path-2-outside-1_16_431" maskUnits="userSpaceOnUse" x="16" y="20" width="66" height="26" fill="black">
<rect fill="white" x="16" y="20" width="66" height="26"/>
<path d="M25.7955 21.5455H27.9091V34.0227C27.9091 35.1364 27.7045 36.0824 27.2955 36.8608C26.8864 37.6392 26.3097 38.2301 25.5653 38.6335C24.821 39.0369 23.9432 39.2386 22.9318 39.2386C21.9773 39.2386 21.1278 39.0653 20.3835 38.7188C19.6392 38.3665 19.054 37.8665 18.6278 37.2188C18.2017 36.571 17.9886 35.8011 17.9886 34.9091H20.0682C20.0682 35.4034 20.1903 35.8352 20.4347 36.2045C20.6847 36.5682 21.0256 36.8523 21.4574 37.0568C21.8892 37.2614 22.3807 37.3636 22.9318 37.3636C23.5398 37.3636 24.0568 37.2358 24.483 36.9801C24.9091 36.7244 25.233 36.3494 25.4545 35.8551C25.6818 35.3551 25.7955 34.7443 25.7955 34.0227V21.5455ZM40.1222 33.6477V25.9091H42.1335V39H40.1222V36.7841H39.9858C39.679 37.4489 39.2017 38.0142 38.554 38.4801C37.9063 38.9403 37.0881 39.1705 36.0994 39.1705C35.2812 39.1705 34.554 38.9915 33.9176 38.6335C33.2813 38.2699 32.7813 37.7244 32.4176 36.9972C32.054 36.2642 31.8722 35.3409 31.8722 34.2273V25.9091H33.8835V34.0909C33.8835 35.0455 34.1506 35.8068 34.6847 36.375C35.2244 36.9432 35.9119 37.2273 36.7472 37.2273C37.2472 37.2273 37.7557 37.0994 38.2727 36.8438C38.7955 36.5881 39.233 36.196 39.5852 35.6676C39.9432 35.1392 40.1222 34.4659 40.1222 33.6477ZM51.1016 44.1818C50.13 44.1818 49.2947 44.0568 48.5959 43.8068C47.897 43.5625 47.3146 43.2386 46.8487 42.8352C46.3885 42.4375 46.022 42.0114 45.7493 41.5568L47.3516 40.4318C47.5334 40.6705 47.7635 40.9432 48.0419 41.25C48.3203 41.5625 48.701 41.8324 49.1839 42.0597C49.6726 42.2926 50.3118 42.4091 51.1016 42.4091C52.1584 42.4091 53.0305 42.1534 53.718 41.642C54.4055 41.1307 54.7493 40.3295 54.7493 39.2386V36.5795H54.5788C54.4311 36.8182 54.2209 37.1136 53.9482 37.4659C53.6811 37.8125 53.2947 38.1222 52.7891 38.3949C52.2891 38.6619 51.6129 38.7955 50.7607 38.7955C49.7038 38.7955 48.755 38.5455 47.9141 38.0455C47.0788 37.5455 46.4169 36.8182 45.9283 35.8636C45.4453 34.9091 45.2038 33.75 45.2038 32.3864C45.2038 31.0455 45.4396 29.8778 45.9112 28.8835C46.3828 27.8835 47.0391 27.1108 47.88 26.5653C48.7209 26.0142 49.6925 25.7386 50.7947 25.7386C51.647 25.7386 52.3232 25.8807 52.8232 26.1648C53.3288 26.4432 53.7152 26.7614 53.9822 27.1193C54.255 27.4716 54.4652 27.7614 54.6129 27.9886H54.8175V25.9091H56.7607V39.375C56.7607 40.5 56.505 41.4148 55.9936 42.1193C55.4879 42.8295 54.8061 43.3494 53.9482 43.679C53.0959 44.0142 52.147 44.1818 51.1016 44.1818ZM51.0334 36.9886C51.8402 36.9886 52.522 36.804 53.0788 36.4347C53.6357 36.0653 54.0589 35.5341 54.3487 34.8409C54.6385 34.1477 54.7834 33.3182 54.7834 32.3523C54.7834 31.4091 54.6413 30.5767 54.3572 29.8551C54.0732 29.1335 53.6527 28.5682 53.0959 28.1591C52.5391 27.75 51.8516 27.5455 51.0334 27.5455C50.1811 27.5455 49.4709 27.7614 48.9027 28.1932C48.3402 28.625 47.9169 29.2045 47.6328 29.9318C47.3544 30.6591 47.2152 31.4659 47.2152 32.3523C47.2152 33.2614 47.3572 34.0653 47.6413 34.7642C47.9311 35.4574 48.3572 36.0028 48.9197 36.4006C49.4879 36.7926 50.1925 36.9886 51.0334 36.9886ZM64.2947 39.3068C63.4652 39.3068 62.7124 39.1506 62.0362 38.8381C61.3601 38.5199 60.8232 38.0625 60.4254 37.4659C60.0277 36.8636 59.8288 36.1364 59.8288 35.2841C59.8288 34.5341 59.9766 33.9261 60.272 33.4602C60.5675 32.9886 60.9624 32.6193 61.4567 32.3523C61.951 32.0852 62.4964 31.8864 63.093 31.7557C63.6953 31.6193 64.3004 31.5114 64.9084 31.4318C65.7038 31.3295 66.3487 31.2528 66.843 31.2017C67.343 31.1449 67.7067 31.0511 67.9339 30.9205C68.1669 30.7898 68.2834 30.5625 68.2834 30.2386V30.1705C68.2834 29.3295 68.0533 28.6761 67.593 28.2102C67.1385 27.7443 66.4482 27.5114 65.522 27.5114C64.5618 27.5114 63.8089 27.7216 63.2635 28.142C62.718 28.5625 62.3345 29.0114 62.1129 29.4886L60.2038 28.8068C60.5447 28.0114 60.9993 27.392 61.5675 26.9489C62.1413 26.5 62.7663 26.1875 63.4425 26.0114C64.1243 25.8295 64.7947 25.7386 65.4538 25.7386C65.8743 25.7386 66.3572 25.7898 66.9027 25.892C67.4538 25.9886 67.9851 26.1903 68.4964 26.4972C69.0135 26.804 69.4425 27.267 69.7834 27.8864C70.1243 28.5057 70.2947 29.3352 70.2947 30.375V39H68.2834V37.2273H68.1811C68.0447 37.5114 67.8175 37.8153 67.4993 38.1392C67.1811 38.4631 66.7578 38.7386 66.2294 38.9659C65.701 39.1932 65.0561 39.3068 64.2947 39.3068ZM64.6016 37.5C65.397 37.5 66.0675 37.3438 66.6129 37.0312C67.1641 36.7188 67.5788 36.3153 67.8572 35.821C68.1413 35.3267 68.2834 34.8068 68.2834 34.2614V32.4205C68.1982 32.5227 68.0107 32.6165 67.7209 32.7017C67.4368 32.7812 67.1072 32.8523 66.7322 32.9148C66.3629 32.9716 66.0021 33.0227 65.6499 33.0682C65.3033 33.108 65.022 33.142 64.8061 33.1705C64.2834 33.2386 63.7947 33.3494 63.3402 33.5028C62.8913 33.6506 62.5277 33.875 62.2493 34.1761C61.9766 34.4716 61.8402 34.875 61.8402 35.3864C61.8402 36.0852 62.0987 36.6136 62.6158 36.9716C63.1385 37.3239 63.8004 37.5 64.6016 37.5ZM73.9659 39V25.9091H75.9091V27.8864H76.0455C76.2841 27.2386 76.7159 26.7131 77.3409 26.3097C77.9659 25.9062 78.6705 25.7045 79.4545 25.7045C79.6023 25.7045 79.7869 25.7074 80.0085 25.7131C80.2301 25.7187 80.3977 25.7273 80.5114 25.7386V27.7841C80.4432 27.767 80.2869 27.7415 80.0426 27.7074C79.804 27.6676 79.5511 27.6477 79.2841 27.6477C78.6477 27.6477 78.0795 27.7812 77.5795 28.0483C77.0852 28.3097 76.6932 28.6733 76.4034 29.1392C76.1193 29.5994 75.9773 30.125 75.9773 30.7159V39H73.9659Z"/>
</mask>
<path d="M25.7955 21.5455H27.9091V34.0227C27.9091 35.1364 27.7045 36.0824 27.2955 36.8608C26.8864 37.6392 26.3097 38.2301 25.5653 38.6335C24.821 39.0369 23.9432 39.2386 22.9318 39.2386C21.9773 39.2386 21.1278 39.0653 20.3835 38.7188C19.6392 38.3665 19.054 37.8665 18.6278 37.2188C18.2017 36.571 17.9886 35.8011 17.9886 34.9091H20.0682C20.0682 35.4034 20.1903 35.8352 20.4347 36.2045C20.6847 36.5682 21.0256 36.8523 21.4574 37.0568C21.8892 37.2614 22.3807 37.3636 22.9318 37.3636C23.5398 37.3636 24.0568 37.2358 24.483 36.9801C24.9091 36.7244 25.233 36.3494 25.4545 35.8551C25.6818 35.3551 25.7955 34.7443 25.7955 34.0227V21.5455ZM40.1222 33.6477V25.9091H42.1335V39H40.1222V36.7841H39.9858C39.679 37.4489 39.2017 38.0142 38.554 38.4801C37.9063 38.9403 37.0881 39.1705 36.0994 39.1705C35.2812 39.1705 34.554 38.9915 33.9176 38.6335C33.2813 38.2699 32.7813 37.7244 32.4176 36.9972C32.054 36.2642 31.8722 35.3409 31.8722 34.2273V25.9091H33.8835V34.0909C33.8835 35.0455 34.1506 35.8068 34.6847 36.375C35.2244 36.9432 35.9119 37.2273 36.7472 37.2273C37.2472 37.2273 37.7557 37.0994 38.2727 36.8438C38.7955 36.5881 39.233 36.196 39.5852 35.6676C39.9432 35.1392 40.1222 34.4659 40.1222 33.6477ZM51.1016 44.1818C50.13 44.1818 49.2947 44.0568 48.5959 43.8068C47.897 43.5625 47.3146 43.2386 46.8487 42.8352C46.3885 42.4375 46.022 42.0114 45.7493 41.5568L47.3516 40.4318C47.5334 40.6705 47.7635 40.9432 48.0419 41.25C48.3203 41.5625 48.701 41.8324 49.1839 42.0597C49.6726 42.2926 50.3118 42.4091 51.1016 42.4091C52.1584 42.4091 53.0305 42.1534 53.718 41.642C54.4055 41.1307 54.7493 40.3295 54.7493 39.2386V36.5795H54.5788C54.4311 36.8182 54.2209 37.1136 53.9482 37.4659C53.6811 37.8125 53.2947 38.1222 52.7891 38.3949C52.2891 38.6619 51.6129 38.7955 50.7607 38.7955C49.7038 38.7955 48.755 38.5455 47.9141 38.0455C47.0788 37.5455 46.4169 36.8182 45.9283 35.8636C45.4453 34.9091 45.2038 33.75 45.2038 32.3864C45.2038 31.0455 45.4396 29.8778 45.9112 28.8835C46.3828 27.8835 47.0391 27.1108 47.88 26.5653C48.7209 26.0142 49.6925 25.7386 50.7947 25.7386C51.647 25.7386 52.3232 25.8807 52.8232 26.1648C53.3288 26.4432 53.7152 26.7614 53.9822 27.1193C54.255 27.4716 54.4652 27.7614 54.6129 27.9886H54.8175V25.9091H56.7607V39.375C56.7607 40.5 56.505 41.4148 55.9936 42.1193C55.4879 42.8295 54.8061 43.3494 53.9482 43.679C53.0959 44.0142 52.147 44.1818 51.1016 44.1818ZM51.0334 36.9886C51.8402 36.9886 52.522 36.804 53.0788 36.4347C53.6357 36.0653 54.0589 35.5341 54.3487 34.8409C54.6385 34.1477 54.7834 33.3182 54.7834 32.3523C54.7834 31.4091 54.6413 30.5767 54.3572 29.8551C54.0732 29.1335 53.6527 28.5682 53.0959 28.1591C52.5391 27.75 51.8516 27.5455 51.0334 27.5455C50.1811 27.5455 49.4709 27.7614 48.9027 28.1932C48.3402 28.625 47.9169 29.2045 47.6328 29.9318C47.3544 30.6591 47.2152 31.4659 47.2152 32.3523C47.2152 33.2614 47.3572 34.0653 47.6413 34.7642C47.9311 35.4574 48.3572 36.0028 48.9197 36.4006C49.4879 36.7926 50.1925 36.9886 51.0334 36.9886ZM64.2947 39.3068C63.4652 39.3068 62.7124 39.1506 62.0362 38.8381C61.3601 38.5199 60.8232 38.0625 60.4254 37.4659C60.0277 36.8636 59.8288 36.1364 59.8288 35.2841C59.8288 34.5341 59.9766 33.9261 60.272 33.4602C60.5675 32.9886 60.9624 32.6193 61.4567 32.3523C61.951 32.0852 62.4964 31.8864 63.093 31.7557C63.6953 31.6193 64.3004 31.5114 64.9084 31.4318C65.7038 31.3295 66.3487 31.2528 66.843 31.2017C67.343 31.1449 67.7067 31.0511 67.9339 30.9205C68.1669 30.7898 68.2834 30.5625 68.2834 30.2386V30.1705C68.2834 29.3295 68.0533 28.6761 67.593 28.2102C67.1385 27.7443 66.4482 27.5114 65.522 27.5114C64.5618 27.5114 63.8089 27.7216 63.2635 28.142C62.718 28.5625 62.3345 29.0114 62.1129 29.4886L60.2038 28.8068C60.5447 28.0114 60.9993 27.392 61.5675 26.9489C62.1413 26.5 62.7663 26.1875 63.4425 26.0114C64.1243 25.8295 64.7947 25.7386 65.4538 25.7386C65.8743 25.7386 66.3572 25.7898 66.9027 25.892C67.4538 25.9886 67.9851 26.1903 68.4964 26.4972C69.0135 26.804 69.4425 27.267 69.7834 27.8864C70.1243 28.5057 70.2947 29.3352 70.2947 30.375V39H68.2834V37.2273H68.1811C68.0447 37.5114 67.8175 37.8153 67.4993 38.1392C67.1811 38.4631 66.7578 38.7386 66.2294 38.9659C65.701 39.1932 65.0561 39.3068 64.2947 39.3068ZM64.6016 37.5C65.397 37.5 66.0675 37.3438 66.6129 37.0312C67.1641 36.7188 67.5788 36.3153 67.8572 35.821C68.1413 35.3267 68.2834 34.8068 68.2834 34.2614V32.4205C68.1982 32.5227 68.0107 32.6165 67.7209 32.7017C67.4368 32.7812 67.1072 32.8523 66.7322 32.9148C66.3629 32.9716 66.0021 33.0227 65.6499 33.0682C65.3033 33.108 65.022 33.142 64.8061 33.1705C64.2834 33.2386 63.7947 33.3494 63.3402 33.5028C62.8913 33.6506 62.5277 33.875 62.2493 34.1761C61.9766 34.4716 61.8402 34.875 61.8402 35.3864C61.8402 36.0852 62.0987 36.6136 62.6158 36.9716C63.1385 37.3239 63.8004 37.5 64.6016 37.5ZM73.9659 39V25.9091H75.9091V27.8864H76.0455C76.2841 27.2386 76.7159 26.7131 77.3409 26.3097C77.9659 25.9062 78.6705 25.7045 79.4545 25.7045C79.6023 25.7045 79.7869 25.7074 80.0085 25.7131C80.2301 25.7187 80.3977 25.7273 80.5114 25.7386V27.7841C80.4432 27.767 80.2869 27.7415 80.0426 27.7074C79.804 27.6676 79.5511 27.6477 79.2841 27.6477C78.6477 27.6477 78.0795 27.7812 77.5795 28.0483C77.0852 28.3097 76.6932 28.6733 76.4034 29.1392C76.1193 29.5994 75.9773 30.125 75.9773 30.7159V39H73.9659Z" fill="#F5F5F5"/>
<path d="M25.7955 21.5455V20.5455H24.7955V21.5455H25.7955ZM27.9091 21.5455H28.9091V20.5455H27.9091V21.5455ZM27.2955 36.8608L28.1807 37.326L28.1807 37.326L27.2955 36.8608ZM25.5653 38.6335L26.0418 39.5127L26.0418 39.5127L25.5653 38.6335ZM20.3835 38.7188L19.9557 39.6226L19.9614 39.6253L20.3835 38.7188ZM18.6278 37.2188L17.7924 37.7684L17.7924 37.7684L18.6278 37.2188ZM17.9886 34.9091V33.9091H16.9886V34.9091H17.9886ZM20.0682 34.9091H21.0682V33.9091H20.0682V34.9091ZM20.4347 36.2045L19.6006 36.7563L19.6056 36.7637L19.6106 36.7711L20.4347 36.2045ZM21.4574 37.0568L21.8855 36.1531L21.8855 36.1531L21.4574 37.0568ZM24.483 36.9801L23.9685 36.1226L23.9685 36.1226L24.483 36.9801ZM25.4545 35.8551L24.5442 35.4413L24.542 35.4461L25.4545 35.8551ZM25.7955 22.5455H27.9091V20.5455H25.7955V22.5455ZM26.9091 21.5455V34.0227H28.9091V21.5455H26.9091ZM26.9091 34.0227C26.9091 35.0164 26.7265 35.7938 26.4103 36.3956L28.1807 37.326C28.6826 36.3709 28.9091 35.2563 28.9091 34.0227H26.9091ZM26.4103 36.3956C26.0896 37.0057 25.6519 37.4492 25.0888 37.7543L26.0418 39.5127C26.9674 39.0111 27.6831 38.2727 28.1807 37.326L26.4103 36.3956ZM25.0888 37.7543C24.5168 38.0644 23.8091 38.2386 22.9318 38.2386V40.2386C24.0773 40.2386 25.1252 40.0095 26.0418 39.5127L25.0888 37.7543ZM22.9318 38.2386C22.0995 38.2386 21.3979 38.088 20.8057 37.8122L19.9614 39.6253C20.8578 40.0427 21.855 40.2386 22.9318 40.2386V38.2386ZM20.8113 37.8149C20.2221 37.536 19.7823 37.154 19.4633 36.6691L17.7924 37.7684C18.3257 38.579 19.0563 39.197 19.9557 39.6226L20.8113 37.8149ZM19.4633 36.6691C19.16 36.2081 18.9886 35.636 18.9886 34.9091H16.9886C16.9886 35.9663 17.2435 36.9339 17.7924 37.7684L19.4633 36.6691ZM17.9886 35.9091H20.0682V33.9091H17.9886V35.9091ZM19.0682 34.9091C19.0682 35.576 19.2357 36.2046 19.6006 36.7563L21.2687 35.6528C21.145 35.4658 21.0682 35.2308 21.0682 34.9091H19.0682ZM19.6106 36.7711C19.9688 37.292 20.4517 37.687 21.0293 37.9606L21.8855 36.1531C21.5994 36.0176 21.4006 35.8444 21.2587 35.638L19.6106 36.7711ZM21.0293 37.9606C21.614 38.2375 22.2553 38.3636 22.9318 38.3636V36.3636C22.5061 36.3636 22.1644 36.2852 21.8855 36.1531L21.0293 37.9606ZM22.9318 38.3636C23.6806 38.3636 24.3846 38.2053 24.9975 37.8376L23.9685 36.1226C23.7291 36.2662 23.3989 36.3636 22.9318 36.3636V38.3636ZM24.9975 37.8376C25.6149 37.4671 26.0697 36.9275 26.3671 36.2642L24.542 35.4461C24.3962 35.7713 24.2033 35.9817 23.9685 36.1226L24.9975 37.8376ZM26.3649 36.2689C26.6667 35.605 26.7955 34.8443 26.7955 34.0227H24.7955C24.7955 34.6443 24.6969 35.1053 24.5442 35.4413L26.3649 36.2689ZM26.7955 34.0227V21.5455H24.7955V34.0227H26.7955ZM40.1222 25.9091V24.9091H39.1222V25.9091H40.1222ZM42.1335 25.9091H43.1335V24.9091H42.1335V25.9091ZM42.1335 39V40H43.1335V39H42.1335ZM40.1222 39H39.1222V40H40.1222V39ZM40.1222 36.7841H41.1222V35.7841H40.1222V36.7841ZM39.9858 36.7841V35.7841H39.346L39.0778 36.365L39.9858 36.7841ZM38.554 38.4801L39.1332 39.2953L39.1379 39.2919L38.554 38.4801ZM33.9176 38.6335L33.4215 39.5018L33.4274 39.5051L33.9176 38.6335ZM32.4176 36.9972L31.5218 37.4416L31.5232 37.4444L32.4176 36.9972ZM31.8722 25.9091V24.9091H30.8722V25.9091H31.8722ZM33.8835 25.9091H34.8835V24.9091H33.8835V25.9091ZM34.6847 36.375L33.956 37.0599L33.9597 37.0637L34.6847 36.375ZM38.2727 36.8438L37.8333 35.9454L37.8295 35.9474L38.2727 36.8438ZM39.5852 35.6676L38.7573 35.1067L38.7532 35.1129L39.5852 35.6676ZM41.1222 33.6477V25.9091H39.1222V33.6477H41.1222ZM40.1222 26.9091H42.1335V24.9091H40.1222V26.9091ZM41.1335 25.9091V39H43.1335V25.9091H41.1335ZM42.1335 38H40.1222V40H42.1335V38ZM41.1222 39V36.7841H39.1222V39H41.1222ZM40.1222 35.7841H39.9858V37.7841H40.1222V35.7841ZM39.0778 36.365C38.8497 36.8593 38.4906 37.2939 37.97 37.6683L39.1379 39.2919C39.9128 38.7345 40.5082 38.0385 40.8938 37.2031L39.0778 36.365ZM37.9748 37.6649C37.5337 37.9783 36.9317 38.1705 36.0994 38.1705V40.1705C37.2444 40.1705 38.2788 39.9023 39.1332 39.2953L37.9748 37.6649ZM36.0994 38.1705C35.4319 38.1705 34.8772 38.0259 34.4079 37.7619L33.4274 39.5051C34.2308 39.957 35.1306 40.1705 36.0994 40.1705V38.1705ZM34.4138 37.7653C33.9673 37.5102 33.5974 37.1207 33.312 36.5499L31.5232 37.4444C31.9651 38.3282 32.5952 39.0296 33.4215 39.5018L34.4138 37.7653ZM33.3134 36.5527C33.0385 35.9985 32.8722 35.2395 32.8722 34.2273H30.8722C30.8722 35.4423 31.0695 36.5299 31.5218 37.4416L33.3134 36.5527ZM32.8722 34.2273V25.9091H30.8722V34.2273H32.8722ZM31.8722 26.9091H33.8835V24.9091H31.8722V26.9091ZM32.8835 25.9091V34.0909H34.8835V25.9091H32.8835ZM32.8835 34.0909C32.8835 35.2399 33.2104 36.2667 33.956 37.0599L35.4133 35.6901C35.0907 35.3469 34.8835 34.851 34.8835 34.0909H32.8835ZM33.9597 37.0637C34.7017 37.8448 35.658 38.2273 36.7472 38.2273V36.2273C36.1659 36.2273 35.7472 36.0416 35.4097 35.6863L33.9597 37.0637ZM36.7472 38.2273C37.4229 38.2273 38.0823 38.0535 38.716 37.7401L37.8295 35.9474C37.429 36.1454 37.0714 36.2273 36.7472 36.2273V38.2273ZM38.7121 37.742C39.4082 37.4016 39.9761 36.8841 40.4173 36.2223L38.7532 35.1129C38.4898 35.5079 38.1828 35.7745 37.8333 35.9455L38.7121 37.742ZM40.4131 36.2285C40.911 35.4935 41.1222 34.6098 41.1222 33.6477H39.1222C39.1222 34.3221 38.9753 34.7849 38.7573 35.1068L40.4131 36.2285ZM48.5959 43.8068L48.9327 42.8652L48.9259 42.8628L48.5959 43.8068ZM46.8487 42.8352L47.5033 42.0792L47.5026 42.0786L46.8487 42.8352ZM45.7493 41.5568L45.1747 40.7384L44.4129 41.2732L44.8918 42.0713L45.7493 41.5568ZM47.3516 40.4318L48.147 39.8258L47.5641 39.0607L46.7769 39.6134L47.3516 40.4318ZM48.0419 41.25L48.7886 40.5848L48.7825 40.578L48.0419 41.25ZM49.1839 42.0597L49.6143 41.157L49.6097 41.1548L49.1839 42.0597ZM53.718 41.642L54.3149 42.4444L54.3149 42.4444L53.718 41.642ZM54.7493 36.5795H55.7493V35.5795H54.7493V36.5795ZM54.5788 36.5795V35.5795H54.0218L53.7286 36.0532L54.5788 36.5795ZM53.9482 37.4659L53.1574 36.8537L53.156 36.8556L53.9482 37.4659ZM52.7891 38.3949L53.2602 39.277L53.2638 39.275L52.7891 38.3949ZM47.9141 38.0455L47.4004 38.9035L47.403 38.905L47.9141 38.0455ZM45.9283 35.8636L45.036 36.3151L45.0381 36.3193L45.9283 35.8636ZM45.9112 28.8835L46.8148 29.3121L46.8157 29.3101L45.9112 28.8835ZM47.88 26.5653L48.4242 27.4043L48.4281 27.4017L47.88 26.5653ZM52.8232 26.1648L52.3291 27.0343L52.3409 27.0408L52.8232 26.1648ZM53.9822 27.1193L53.1807 27.7173L53.1861 27.7244L53.1915 27.7315L53.9822 27.1193ZM54.6129 27.9886L53.7745 28.5336L54.0702 28.9886H54.6129V27.9886ZM54.8175 27.9886V28.9886H55.8175V27.9886H54.8175ZM54.8175 25.9091V24.9091H53.8175V25.9091H54.8175ZM56.7607 25.9091H57.7607V24.9091H56.7607V25.9091ZM55.9936 42.1193L55.1843 41.5319L55.179 41.5393L55.9936 42.1193ZM53.9482 43.679L53.5896 42.7454L53.5821 42.7484L53.9482 43.679ZM53.0788 36.4347L52.5261 35.6013L52.5261 35.6013L53.0788 36.4347ZM54.3487 34.8409L55.2714 35.2266L55.2714 35.2266L54.3487 34.8409ZM54.3572 29.8551L55.2877 29.4888L55.2877 29.4888L54.3572 29.8551ZM53.0959 28.1591L52.5038 28.965L52.5038 28.965L53.0959 28.1591ZM48.9027 28.1932L48.2976 27.397L48.2938 27.4L48.9027 28.1932ZM47.6328 29.9318L46.7013 29.568L46.6989 29.5743L47.6328 29.9318ZM47.6413 34.7642L46.7149 35.1408L46.7187 35.1499L47.6413 34.7642ZM48.9197 36.4006L48.3424 37.2171L48.3518 37.2236L48.9197 36.4006ZM51.1016 43.1818C50.2113 43.1818 49.4959 43.0667 48.9327 42.8652L48.2591 44.7484C49.0936 45.0469 50.0487 45.1818 51.1016 45.1818V43.1818ZM48.9259 42.8628C48.3227 42.652 47.8568 42.3853 47.5033 42.0792L46.1941 43.5912C46.7725 44.092 47.4713 44.473 48.2659 44.7508L48.9259 42.8628ZM47.5026 42.0786C47.111 41.7402 46.8175 41.3936 46.6068 41.0423L44.8918 42.0713C45.2265 42.6292 45.666 43.1348 46.1949 43.5918L47.5026 42.0786ZM46.3239 42.3752L47.9262 41.2502L46.7769 39.6134L45.1747 40.7384L46.3239 42.3752ZM46.5561 41.0379C46.7604 41.306 47.0104 41.6013 47.3013 41.922L48.7825 40.578C48.5166 40.285 48.3064 40.0349 48.147 39.8258L46.5561 41.0379ZM47.2952 41.9152C47.6844 42.352 48.1855 42.695 48.7582 42.9645L49.6097 41.1548C49.2165 40.9698 48.9562 40.773 48.7886 40.5848L47.2952 41.9152ZM48.7536 42.9623C49.4238 43.2819 50.2259 43.4091 51.1016 43.4091V41.4091C50.3977 41.4091 49.9213 41.3034 49.6143 41.157L48.7536 42.9623ZM51.1016 43.4091C52.3223 43.4091 53.4179 43.1116 54.3149 42.4444L53.1212 40.8397C52.6432 41.1952 51.9945 41.4091 51.1016 41.4091V43.4091ZM54.3149 42.4444C55.3239 41.6939 55.7493 40.5504 55.7493 39.2386H53.7493C53.7493 40.1087 53.4872 40.5674 53.1212 40.8397L54.3149 42.4444ZM55.7493 39.2386V36.5795H53.7493V39.2386H55.7493ZM54.7493 35.5795H54.5788V37.5795H54.7493V35.5795ZM53.7286 36.0532C53.6066 36.2503 53.4196 36.5151 53.1574 36.8537L54.7389 38.0781C55.0221 37.7122 55.2556 37.3861 55.4291 37.1059L53.7286 36.0532ZM53.156 36.8556C52.997 37.0619 52.7334 37.2887 52.3144 37.5147L53.2638 39.275C53.8561 38.9556 54.3652 38.5631 54.7403 38.0762L53.156 36.8556ZM52.318 37.5128C52.0177 37.6731 51.5246 37.7955 50.7607 37.7955V39.7955C51.7012 39.7955 52.5604 39.6507 53.2602 39.277L52.318 37.5128ZM50.7607 37.7955C49.8688 37.7955 49.0991 37.5866 48.4251 37.1859L47.403 38.905C48.4109 39.5043 49.5389 39.7955 50.7607 39.7955V37.7955ZM48.4277 37.1874C47.7693 36.7933 47.2307 36.2133 46.8184 35.408L45.0381 36.3193C45.6031 37.4231 46.3884 38.2976 47.4004 38.9035L48.4277 37.1874ZM46.8206 35.4122C46.4252 34.6307 46.2038 33.635 46.2038 32.3864H44.2038C44.2038 33.865 44.4655 35.1875 45.036 36.3151L46.8206 35.4122ZM46.2038 32.3864C46.2038 31.1619 46.419 30.1464 46.8147 29.3121L45.0077 28.455C44.4602 29.6093 44.2038 30.929 44.2038 32.3864H46.2038ZM46.8157 29.3101C47.2164 28.4605 47.7552 27.8382 48.4242 27.4043L47.3358 25.7264C46.3229 26.3834 45.5493 27.3066 45.0068 28.457L46.8157 29.3101ZM48.4281 27.4017C49.0906 26.9676 49.8677 26.7386 50.7947 26.7386V24.7386C49.5172 24.7386 48.3512 25.0609 47.3318 25.729L48.4281 27.4017ZM50.7947 26.7386C51.5514 26.7386 52.0352 26.8672 52.3291 27.0342L53.3172 25.2953C52.6111 24.8941 51.7427 24.7386 50.7947 24.7386V26.7386ZM52.3409 27.0408C52.7566 27.2697 53.0201 27.502 53.1807 27.7173L54.7838 26.5214C54.4103 26.0207 53.901 25.6167 53.3055 25.2888L52.3409 27.0408ZM53.1915 27.7315C53.4566 28.0739 53.6481 28.3393 53.7745 28.5336L55.4514 27.4436C55.2823 27.1835 55.0533 26.8693 54.773 26.5071L53.1915 27.7315ZM54.6129 28.9886H54.8175V26.9886H54.6129V28.9886ZM55.8175 27.9886V25.9091H53.8175V27.9886H55.8175ZM54.8175 26.9091H56.7607V24.9091H54.8175V26.9091ZM55.7607 25.9091V39.375H57.7607V25.9091H55.7607ZM55.7607 39.375C55.7607 40.3507 55.5398 41.0421 55.1843 41.5319L56.8029 42.7067C57.4701 41.7875 57.7607 40.6493 57.7607 39.375H55.7607ZM55.179 41.5393C54.7936 42.0806 54.2746 42.4824 53.5896 42.7455L54.3067 44.6125C55.3377 44.2165 56.1822 43.5785 56.8082 42.6993L55.179 41.5393ZM53.5821 42.7484C52.8617 43.0317 52.0393 43.1818 51.1016 43.1818V45.1818C52.2547 45.1818 53.33 44.9967 54.3142 44.6096L53.5821 42.7484ZM51.0334 37.9886C51.9955 37.9886 52.8796 37.7668 53.6316 37.268L52.5261 35.6013C52.1645 35.8412 51.6849 35.9886 51.0334 35.9886V37.9886ZM53.6316 37.268C54.3733 36.7761 54.9151 36.0788 55.2714 35.2266L53.4261 34.4552C53.2028 34.9894 52.898 35.3546 52.5261 35.6013L53.6316 37.268ZM55.2714 35.2266C55.6245 34.3818 55.7834 33.4144 55.7834 32.3523H53.7834C53.7834 33.222 53.6525 33.9137 53.4261 34.4552L55.2714 35.2266ZM55.7834 32.3523C55.7834 31.31 55.6265 30.3493 55.2877 29.4888L53.4268 30.2214C53.6562 30.8041 53.7834 31.5081 53.7834 32.3523H55.7834ZM55.2877 29.4888C54.9432 28.6138 54.4149 27.8873 53.688 27.3532L52.5038 28.965C52.8905 29.2491 53.2031 29.6532 53.4268 30.2214L55.2877 29.4888ZM53.688 27.3532C52.9296 26.796 52.0242 26.5455 51.0334 26.5455V28.5455C51.679 28.5455 52.1486 28.704 52.5038 28.965L53.688 27.3532ZM51.0334 26.5455C50.0064 26.5455 49.0717 26.8087 48.2976 27.397L49.5078 28.9893C49.8701 28.714 50.3559 28.5455 51.0334 28.5455V26.5455ZM48.2938 27.4C47.5723 27.9538 47.0449 28.6885 46.7014 29.568L48.5643 30.2957C48.7889 29.7206 49.1081 29.2962 49.5116 28.9864L48.2938 27.4ZM46.6989 29.5743C46.3712 30.4304 46.2152 31.3604 46.2152 32.3523H48.2152C48.2152 31.5714 48.3376 30.8878 48.5667 30.2893L46.6989 29.5743ZM46.2152 32.3523C46.2152 33.3646 46.3734 34.3005 46.715 35.1408L48.5677 34.3876C48.3411 33.8302 48.2152 33.1581 48.2152 32.3523H46.2152ZM46.7187 35.1499C47.0741 36 47.6129 36.7012 48.3424 37.2171L49.4971 35.5841C49.1016 35.3044 48.7882 34.9148 48.564 34.3785L46.7187 35.1499ZM48.3518 37.2236C49.1205 37.754 50.0345 37.9886 51.0334 37.9886V35.9886C50.3505 35.9886 49.8554 35.8312 49.4877 35.5775L48.3518 37.2236ZM62.0362 38.8381L61.6104 39.7429L61.6167 39.7458L62.0362 38.8381ZM60.4254 37.4659L59.591 38.017L59.5934 38.0206L60.4254 37.4659ZM60.272 33.4602L61.1165 33.9958L61.1194 33.9911L60.272 33.4602ZM63.093 31.7557L63.307 32.7325L63.3139 32.731L63.093 31.7557ZM64.9084 31.4318L64.7809 30.44L64.7786 30.4403L64.9084 31.4318ZM66.843 31.2017L66.9459 32.1964L66.9559 32.1953L66.843 31.2017ZM67.9339 30.9205L67.4447 30.0483L67.4355 30.0535L67.9339 30.9205ZM67.593 28.2102L66.8772 28.9086L66.8816 28.913L67.593 28.2102ZM63.2635 28.142L63.874 28.9341L63.874 28.9341L63.2635 28.142ZM62.1129 29.4886L61.7766 30.4304L62.6358 30.7372L63.0199 29.9097L62.1129 29.4886ZM60.2038 28.8068L59.2847 28.4129L58.8656 29.3907L59.8675 29.7486L60.2038 28.8068ZM61.5675 26.9489L62.1825 27.7374L62.1836 27.7365L61.5675 26.9489ZM63.4425 26.0114L63.6946 26.9791L63.7001 26.9776L63.4425 26.0114ZM66.9027 25.892L66.7184 26.875L66.7301 26.877L66.9027 25.892ZM68.4964 26.4972L67.9819 27.3547L67.9861 27.3571L68.4964 26.4972ZM69.7834 27.8864L68.9073 28.3686L68.9073 28.3686L69.7834 27.8864ZM70.2947 39V40H71.2947V39H70.2947ZM68.2834 39H67.2834V40H68.2834V39ZM68.2834 37.2273H69.2834V36.2273H68.2834V37.2273ZM68.1811 37.2273V36.2273H67.5519L67.2796 36.7945L68.1811 37.2273ZM67.4993 38.1392L68.2126 38.84L68.2126 38.84L67.4993 38.1392ZM66.2294 38.9659L65.8343 38.0473L66.2294 38.9659ZM66.6129 37.0312L66.1197 36.1613L66.1158 36.1636L66.6129 37.0312ZM67.8572 35.821L66.9902 35.3227L66.9859 35.3303L67.8572 35.821ZM68.2834 32.4205H69.2834V29.6584L67.5152 31.7803L68.2834 32.4205ZM67.7209 32.7017L67.9905 33.6647L68.003 33.6611L67.7209 32.7017ZM66.7322 32.9148L66.8843 33.9032L66.8966 33.9012L66.7322 32.9148ZM65.6499 33.0682L65.7639 34.0618L65.7778 34.06L65.6499 33.0682ZM64.8061 33.1705L64.9354 34.1621L64.9366 34.1619L64.8061 33.1705ZM63.3402 33.5028L63.6528 34.4527L63.66 34.4503L63.3402 33.5028ZM62.2493 34.1761L61.515 33.4973L61.5145 33.4979L62.2493 34.1761ZM62.6158 36.9716L62.0465 37.7938L62.0569 37.8009L62.6158 36.9716ZM64.2947 38.3068C63.5935 38.3068 62.9861 38.1755 62.4558 37.9303L61.6167 39.7458C62.4386 40.1257 63.3369 40.3068 64.2947 40.3068V38.3068ZM62.462 37.9332C61.9434 37.6892 61.5498 37.3497 61.2575 36.9112L59.5934 38.0206C60.0965 38.7753 60.7768 39.3506 61.6104 39.7429L62.462 37.9332ZM61.2599 36.9148C60.9884 36.5038 60.8288 35.9765 60.8288 35.2841H58.8288C58.8288 36.2962 59.0669 37.2235 59.591 38.017L61.2599 36.9148ZM60.8288 35.2841C60.8288 34.6577 60.953 34.2537 61.1165 33.9958L59.4275 32.9247C59.0001 33.5986 58.8288 34.4105 58.8288 35.2841H60.8288ZM61.1194 33.9911C61.3222 33.6675 61.5882 33.4178 61.932 33.2321L60.9814 31.4725C60.3365 31.8208 59.8128 32.3097 59.4246 32.9293L61.1194 33.9911ZM61.932 33.2321C62.3373 33.0131 62.7938 32.8449 63.307 32.7325L62.8791 30.7788C62.1991 30.9278 61.5647 31.1573 60.9814 31.4725L61.932 33.2321ZM63.3139 32.731C63.8863 32.6014 64.461 32.4989 65.0381 32.4234L64.7786 30.4403C64.1399 30.5238 63.5044 30.6372 62.8722 30.7804L63.3139 32.731ZM65.0359 32.4237C65.8275 32.3219 66.4632 32.2463 66.9459 32.1964L66.7401 30.207C66.2342 30.2594 65.5802 30.3372 64.7809 30.44L65.0359 32.4237ZM66.9559 32.1953C67.4898 32.1346 68.0219 32.0234 68.4324 31.7874L67.4355 30.0535C67.3915 30.0788 67.1963 30.1551 66.7301 30.2081L66.9559 32.1953ZM68.4232 31.7926C69.0436 31.4445 69.2834 30.8333 69.2834 30.2386H67.2834C67.2834 30.2834 67.2752 30.2562 67.3061 30.1959C67.3217 30.1655 67.3435 30.1342 67.3713 30.1058C67.3987 30.0777 67.4252 30.0592 67.4447 30.0483L68.4232 31.7926ZM69.2834 30.2386V30.1705H67.2834V30.2386H69.2834ZM69.2834 30.1705C69.2834 29.1445 68.998 28.2096 68.3045 27.5075L66.8816 28.913C67.1085 29.1427 67.2834 29.5146 67.2834 30.1705H69.2834ZM68.3088 27.5119C67.5984 26.7837 66.6023 26.5114 65.522 26.5114V28.5114C66.294 28.5114 66.6786 28.7049 66.8773 28.9086L68.3088 27.5119ZM65.522 26.5114C64.4263 26.5114 63.4307 26.7505 62.653 27.35L63.874 28.9341C64.1872 28.6927 64.6973 28.5114 65.522 28.5114V26.5114ZM62.653 27.35C62.0182 27.8393 61.5128 28.4067 61.2059 29.0675L63.0199 29.9097C63.1563 29.6161 63.4178 29.2857 63.874 28.9341L62.653 27.35ZM62.4493 28.5469L60.5402 27.8651L59.8675 29.7486L61.7766 30.4304L62.4493 28.5469ZM61.123 29.2007C61.4107 28.5293 61.7717 28.0578 62.1825 27.7374L60.9524 26.1604C60.2269 26.7263 59.6787 27.4934 59.2847 28.4129L61.123 29.2007ZM62.1836 27.7365C62.6544 27.3683 63.1565 27.1192 63.6946 26.9791L63.1904 25.0437C62.3762 25.2558 61.6283 25.6317 60.9514 26.1612L62.1836 27.7365ZM63.7001 26.9776C64.3038 26.8166 64.8876 26.7386 65.4538 26.7386V24.7386C64.7018 24.7386 63.9448 24.8425 63.1848 25.0451L63.7001 26.9776ZM65.4538 26.7386C65.7965 26.7386 66.2157 26.7807 66.7184 26.8749L67.087 24.9092C66.4988 24.7989 65.9521 24.7386 65.4538 24.7386V26.7386ZM66.7301 26.877C67.1526 26.9511 67.5688 27.1067 67.982 27.3547L69.0109 25.6397C68.4014 25.2739 67.755 25.0262 67.0753 24.9071L66.7301 26.877ZM67.9861 27.3571C68.3246 27.558 68.6372 27.8778 68.9073 28.3686L70.6594 27.4041C70.2478 26.6563 69.7023 26.0499 69.0068 25.6372L67.9861 27.3571ZM68.9073 28.3686C69.1375 28.7868 69.2947 29.4301 69.2947 30.375H71.2947C71.2947 29.2404 71.111 28.2246 70.6594 27.4041L68.9073 28.3686ZM69.2947 30.375V39H71.2947V30.375H69.2947ZM70.2947 38H68.2834V40H70.2947V38ZM69.2834 39V37.2273H67.2834V39H69.2834ZM68.2834 36.2273H68.1811V38.2273H68.2834V36.2273ZM67.2796 36.7945C67.2067 36.9463 67.058 37.1614 66.786 37.4384L68.2126 38.84C68.5769 38.4692 68.8828 38.0764 69.0826 37.66L67.2796 36.7945ZM66.786 37.4384C66.5794 37.6486 66.2741 37.8581 65.8343 38.0473L66.6245 39.8845C67.2415 39.6192 67.7828 39.2776 68.2126 38.84L66.786 37.4384ZM65.8343 38.0473C65.464 38.2065 64.962 38.3068 64.2947 38.3068V40.3068C65.1502 40.3068 65.9379 40.1798 66.6245 39.8845L65.8343 38.0473ZM64.6016 38.5C65.5259 38.5 66.3781 38.3183 67.11 37.8989L66.1158 36.1636C65.7568 36.3692 65.2681 36.5 64.6016 36.5V38.5ZM67.1062 37.9011C67.7965 37.5097 68.3508 36.9824 68.7286 36.3118L66.9859 35.3303C66.8069 35.6482 66.5316 35.9278 66.1197 36.1614L67.1062 37.9011ZM68.7243 36.3193C69.0914 35.6805 69.2834 34.9897 69.2834 34.2614H67.2834C67.2834 34.6239 67.1913 34.9729 66.9902 35.3227L68.7243 36.3193ZM69.2834 34.2614V32.4205H67.2834V34.2614H69.2834ZM67.5152 31.7803C67.5598 31.7267 67.5992 31.6961 67.6166 31.6835C67.6348 31.6705 67.642 31.6678 67.6316 31.673C67.6218 31.6779 67.6015 31.6872 67.5679 31.6999C67.5346 31.7123 67.492 31.7267 67.4387 31.7423L68.003 33.6611C68.1823 33.6084 68.3618 33.544 68.526 33.4619C68.68 33.3849 68.8845 33.2611 69.0516 33.0606L67.5152 31.7803ZM67.4513 31.7387C67.21 31.8063 66.9169 31.8702 66.5678 31.9284L66.8966 33.9012C67.2976 33.8343 67.6636 33.7562 67.9905 33.6647L67.4513 31.7387ZM66.5802 31.9264C66.2185 31.982 65.8657 32.032 65.5219 32.0764L65.7778 34.06C66.1385 34.0134 66.5074 33.9611 66.8843 33.9031L66.5802 31.9264ZM65.5359 32.0747C65.1866 32.1148 64.8993 32.1496 64.6757 32.179L64.9366 34.1619C65.1448 34.1345 65.4199 34.1011 65.7639 34.0617L65.5359 32.0747ZM64.6768 32.1789C64.0956 32.2547 63.5426 32.3791 63.0204 32.5553L63.66 34.4503C64.0469 34.3197 64.4712 34.2226 64.9354 34.1621L64.6768 32.1789ZM63.0276 32.553C62.4422 32.7456 61.9252 33.0536 61.515 33.4973L62.9836 34.855C63.1302 34.6964 63.3404 34.5555 63.6528 34.4527L63.0276 32.553ZM61.5145 33.4979C61.0286 34.0242 60.8402 34.6945 60.8402 35.3864H62.8402C62.8402 35.0555 62.9245 34.9189 62.9841 34.8544L61.5145 33.4979ZM60.8402 35.3864C60.8402 36.3707 61.2264 37.226 62.0466 37.7938L63.185 36.1494C62.971 36.0013 62.8402 35.7997 62.8402 35.3864H60.8402ZM62.0569 37.8009C62.7844 38.2911 63.6551 38.5 64.6016 38.5V36.5C63.9457 36.5 63.4926 36.3566 63.1746 36.1423L62.0569 37.8009ZM73.9659 39H72.9659V40H73.9659V39ZM73.9659 25.9091V24.9091H72.9659V25.9091H73.9659ZM75.9091 25.9091H76.9091V24.9091H75.9091V25.9091ZM75.9091 27.8864H74.9091V28.8864H75.9091V27.8864ZM76.0455 27.8864V28.8864H76.7427L76.9838 28.2321L76.0455 27.8864ZM77.3409 26.3097L76.7986 25.4695L76.7986 25.4695L77.3409 26.3097ZM80.5114 25.7386H81.5114V24.8337L80.6109 24.7436L80.5114 25.7386ZM80.5114 27.7841L80.2688 28.7542L81.5114 29.0649V27.7841H80.5114ZM80.0426 27.7074L79.8782 28.6938L79.8913 28.696L79.9044 28.6978L80.0426 27.7074ZM77.5795 28.0483L78.047 28.9323L78.0507 28.9304L77.5795 28.0483ZM76.4034 29.1392L75.5542 28.6111L75.5525 28.6139L76.4034 29.1392ZM75.9773 39V40H76.9773V39H75.9773ZM74.9659 39V25.9091H72.9659V39H74.9659ZM73.9659 26.9091H75.9091V24.9091H73.9659V26.9091ZM74.9091 25.9091V27.8864H76.9091V25.9091H74.9091ZM75.9091 28.8864H76.0455V26.8864H75.9091V28.8864ZM76.9838 28.2321C77.1415 27.8039 77.4253 27.4454 77.8832 27.1498L76.7986 25.4695C76.0065 25.9807 75.4266 26.6734 75.1071 27.5407L76.9838 28.2321ZM77.8832 27.1498C78.3376 26.8565 78.8519 26.7045 79.4545 26.7045V24.7045C78.489 24.7045 77.5942 24.956 76.7986 25.4695L77.8832 27.1498ZM79.4545 26.7045C79.5906 26.7045 79.7661 26.7072 79.9829 26.7127L80.0342 24.7134C79.8078 24.7076 79.6139 24.7045 79.4545 24.7045V26.7045ZM79.9829 26.7127C80.1981 26.7183 80.336 26.7261 80.4119 26.7337L80.6109 24.7436C80.4595 24.7285 80.2621 24.7192 80.0342 24.7134L79.9829 26.7127ZM79.5114 25.7386V27.7841H81.5114V25.7386H79.5114ZM80.7539 26.8139C80.6236 26.7814 80.4102 26.749 80.1808 26.717L79.9044 28.6978C80.0226 28.7143 80.1142 28.728 80.1816 28.739C80.2575 28.7514 80.2782 28.7566 80.2688 28.7542L80.7539 26.8139ZM80.207 26.721C79.9088 26.6713 79.6006 26.6477 79.2841 26.6477V28.6477C79.5017 28.6477 79.6992 28.6639 79.8782 28.6938L80.207 26.721ZM79.2841 26.6477C78.5038 26.6477 77.7704 26.8127 77.1084 27.1662L78.0507 28.9304C78.3887 28.7498 78.7916 28.6477 79.2841 28.6477V26.6477ZM77.1121 27.1643C76.4644 27.5067 75.9394 27.9918 75.5542 28.6111L77.2526 29.6673C77.447 29.3548 77.706 29.1126 78.047 28.9323L77.1121 27.1643ZM75.5525 28.6139C75.162 29.2465 74.9773 29.9573 74.9773 30.7159H76.9773C76.9773 30.2927 77.0766 29.9524 77.2543 29.6645L75.5525 28.6139ZM74.9773 30.7159V39H76.9773V30.7159H74.9773ZM75.9773 38H73.9659V40H75.9773V38Z" fill="black" mask="url(#path-2-outside-1_16_431)"/>
</svg>
