<svg width="385" height="111" viewBox="0 0 385 111" fill="none" xmlns="http://www.w3.org/2000/svg">
<rect width="385" height="30" rx="5" fill="url(#paint0_linear_43_2)"/>
<path d="M7.82955 24H5.61364L12.0227 6.54545H14.2045L20.6136 24H18.3977L13.1818 9.30682H13.0455L7.82955 24ZM8.64773 17.1818H17.5795V19.0568H8.64773V17.1818ZM27.9325 10.9091V12.6136H21.1484V10.9091H27.9325ZM23.1257 7.77273H25.1371V20.25C25.1371 20.8182 25.2195 21.2443 25.3842 21.5284C25.5547 21.8068 25.7706 21.9943 26.032 22.0909C26.299 22.1818 26.5803 22.2273 26.8757 22.2273C27.0973 22.2273 27.2791 22.2159 27.4212 22.1932C27.5632 22.1648 27.6768 22.142 27.7621 22.125L28.1712 23.9318C28.0348 23.983 27.8445 24.0341 27.6001 24.0852C27.3558 24.142 27.0462 24.1705 26.6712 24.1705C26.103 24.1705 25.5462 24.0483 25.0007 23.804C24.4609 23.5597 24.0121 23.1875 23.6541 22.6875C23.3018 22.1875 23.1257 21.5568 23.1257 20.7955V7.77273ZM36.6513 10.9091V12.6136H29.8672V10.9091H36.6513ZM31.8445 7.77273H33.8558V20.25C33.8558 20.8182 33.9382 21.2443 34.103 21.5284C34.2734 21.8068 34.4893 21.9943 34.7507 22.0909C35.0178 22.1818 35.299 22.2273 35.5945 22.2273C35.8161 22.2273 35.9979 22.2159 36.1399 22.1932C36.282 22.1648 36.3956 22.142 36.4808 22.125L36.8899 23.9318C36.7536 23.983 36.5632 24.0341 36.3189 24.0852C36.0746 24.142 35.7649 24.1705 35.3899 24.1705C34.8217 24.1705 34.2649 24.0483 33.7195 23.804C33.1797 23.5597 32.7308 23.1875 32.3729 22.6875C32.0206 22.1875 31.8445 21.5568 31.8445 20.7955V7.77273ZM39.6768 24V10.9091H41.62V12.8864H41.7564C41.995 12.2386 42.4268 11.7131 43.0518 11.3097C43.6768 10.9062 44.3814 10.7045 45.1655 10.7045C45.3132 10.7045 45.4979 10.7074 45.7195 10.7131C45.9411 10.7187 46.1087 10.7273 46.2223 10.7386V12.7841C46.1541 12.767 45.9979 12.7415 45.7536 12.7074C45.5149 12.6676 45.2621 12.6477 44.995 12.6477C44.3587 12.6477 43.7905 12.7812 43.2905 13.0483C42.7962 13.3097 42.4041 13.6733 42.1143 14.1392C41.8303 14.5994 41.6882 15.125 41.6882 15.7159V24H39.6768ZM48.6065 24V10.9091H50.6179V24H48.6065ZM49.6293 8.72727C49.2372 8.72727 48.8991 8.59375 48.6151 8.3267C48.3366 8.05966 48.1974 7.73864 48.1974 7.36364C48.1974 6.98864 48.3366 6.66761 48.6151 6.40057C48.8991 6.13352 49.2372 6 49.6293 6C50.0213 6 50.3565 6.13352 50.6349 6.40057C50.919 6.66761 51.0611 6.98864 51.0611 7.36364C51.0611 7.73864 50.919 8.05966 50.6349 8.3267C50.3565 8.59375 50.0213 8.72727 49.6293 8.72727ZM54.5746 24V6.54545H56.5859V12.9886H56.7564C56.9041 12.7614 57.1087 12.4716 57.37 12.1193C57.6371 11.7614 58.0178 11.4432 58.5121 11.1648C59.0121 10.8807 59.6882 10.7386 60.5405 10.7386C61.6428 10.7386 62.6143 11.0142 63.4553 11.5653C64.2962 12.1165 64.9524 12.8977 65.424 13.9091C65.8956 14.9205 66.1314 16.1136 66.1314 17.4886C66.1314 18.875 65.8956 20.0767 65.424 21.0938C64.9524 22.1051 64.299 22.8892 63.4638 23.446C62.6286 23.9972 61.6655 24.2727 60.5746 24.2727C59.7337 24.2727 59.0604 24.1335 58.5547 23.8551C58.049 23.571 57.6598 23.25 57.3871 22.892C57.1143 22.5284 56.9041 22.2273 56.7564 21.9886H56.5178V24H54.5746ZM56.5518 17.4545C56.5518 18.4432 56.6967 19.3153 56.9865 20.071C57.2763 20.821 57.6996 21.4091 58.2564 21.8352C58.8132 22.2557 59.495 22.4659 60.3018 22.4659C61.1428 22.4659 61.8445 22.2443 62.407 21.8011C62.9751 21.3523 63.4013 20.75 63.6854 19.9943C63.9751 19.233 64.12 18.3864 64.12 17.4545C64.12 16.5341 63.978 15.7045 63.6939 14.9659C63.4155 14.2216 62.9922 13.6335 62.424 13.2017C61.8615 12.7642 61.1541 12.5455 60.3018 12.5455C59.4837 12.5455 58.7962 12.7528 58.2393 13.1676C57.6825 13.5767 57.2621 14.1506 56.978 14.8892C56.6939 15.6222 56.5518 16.4773 56.5518 17.4545ZM77.4581 18.6477V10.9091H79.4695V24H77.4581V21.7841H77.3217C77.0149 22.4489 76.5376 23.0142 75.8899 23.4801C75.2422 23.9403 74.424 24.1705 73.4354 24.1705C72.6172 24.1705 71.8899 23.9915 71.2536 23.6335C70.6172 23.2699 70.1172 22.7244 69.7536 21.9972C69.3899 21.2642 69.2081 20.3409 69.2081 19.2273V10.9091H71.2195V19.0909C71.2195 20.0455 71.4865 20.8068 72.0206 21.375C72.5604 21.9432 73.2479 22.2273 74.0831 22.2273C74.5831 22.2273 75.0916 22.0994 75.6087 21.8438C76.1314 21.5881 76.5689 21.196 76.9212 20.6676C77.2791 20.1392 77.4581 19.4659 77.4581 18.6477ZM88.8466 10.9091V12.6136H82.0625V10.9091H88.8466ZM84.0398 7.77273H86.0511V20.25C86.0511 20.8182 86.1335 21.2443 86.2983 21.5284C86.4688 21.8068 86.6847 21.9943 86.946 22.0909C87.2131 22.1818 87.4943 22.2273 87.7898 22.2273C88.0114 22.2273 88.1932 22.2159 88.3352 22.1932C88.4773 22.1648 88.5909 22.142 88.6761 22.125L89.0852 23.9318C88.9489 23.983 88.7585 24.0341 88.5142 24.0852C88.2699 24.142 87.9602 24.1705 87.5852 24.1705C87.017 24.1705 86.4602 24.0483 85.9148 23.804C85.375 23.5597 84.9261 23.1875 84.5682 22.6875C84.2159 22.1875 84.0398 21.5568 84.0398 20.7955V7.77273ZM97.2202 24.2727C95.9588 24.2727 94.8707 23.9943 93.956 23.4375C93.0469 22.875 92.3452 22.0909 91.8509 21.0852C91.3622 20.0739 91.1179 18.8977 91.1179 17.5568C91.1179 16.2159 91.3622 15.0341 91.8509 14.0114C92.3452 12.983 93.0327 12.1818 93.9134 11.608C94.7997 11.0284 95.8338 10.7386 97.0156 10.7386C97.6974 10.7386 98.3707 10.8523 99.0355 11.0795C99.7003 11.3068 100.305 11.6761 100.851 12.1875C101.396 12.6932 101.831 13.3636 102.155 14.1989C102.479 15.0341 102.641 16.0625 102.641 17.2841V18.1364H92.5497V16.3977H100.595C100.595 15.6591 100.447 15 100.152 14.4205C99.8622 13.8409 99.4474 13.3835 98.9077 13.0483C98.3736 12.7131 97.7429 12.5455 97.0156 12.5455C96.2145 12.5455 95.5213 12.7443 94.9361 13.142C94.3565 13.5341 93.9105 14.0455 93.598 14.6761C93.2855 15.3068 93.1293 15.983 93.1293 16.7045V17.8636C93.1293 18.8523 93.2997 19.6903 93.6406 20.3778C93.9872 21.0597 94.4673 21.5795 95.081 21.9375C95.6946 22.2898 96.4077 22.4659 97.2202 22.4659C97.7486 22.4659 98.2259 22.392 98.652 22.2443C99.0838 22.0909 99.456 21.8636 99.7685 21.5625C100.081 21.2557 100.322 20.875 100.493 20.4205L102.436 20.9659C102.232 21.625 101.888 22.2045 101.405 22.7045C100.922 23.1989 100.325 23.5852 99.6151 23.8636C98.9048 24.1364 98.1065 24.2727 97.2202 24.2727ZM114.973 13.8409L113.166 14.3523C113.053 14.0511 112.885 13.7585 112.663 13.4744C112.447 13.1847 112.152 12.946 111.777 12.7585C111.402 12.571 110.922 12.4773 110.337 12.4773C109.536 12.4773 108.868 12.6619 108.334 13.0312C107.805 13.3949 107.541 13.858 107.541 14.4205C107.541 14.9205 107.723 15.3153 108.087 15.6051C108.45 15.8949 109.018 16.1364 109.791 16.3295L111.734 16.8068C112.905 17.0909 113.777 17.5256 114.351 18.1108C114.925 18.6903 115.212 19.4375 115.212 20.3523C115.212 21.1023 114.996 21.7727 114.564 22.3636C114.138 22.9545 113.541 23.4205 112.774 23.7614C112.007 24.1023 111.115 24.2727 110.098 24.2727C108.763 24.2727 107.658 23.983 106.783 23.4034C105.908 22.8239 105.354 21.9773 105.121 20.8636L107.03 20.3864C107.212 21.0909 107.555 21.6193 108.061 21.9716C108.572 22.3239 109.24 22.5 110.064 22.5C111.001 22.5 111.746 22.3011 112.297 21.9034C112.854 21.5 113.132 21.017 113.132 20.4545C113.132 20 112.973 19.6193 112.655 19.3125C112.337 19 111.848 18.767 111.189 18.6136L109.007 18.1023C107.808 17.8182 106.928 17.3778 106.365 16.7812C105.808 16.179 105.53 15.4261 105.53 14.5227C105.53 13.7841 105.737 13.1307 106.152 12.5625C106.572 11.9943 107.143 11.5483 107.865 11.2244C108.592 10.9006 109.416 10.7386 110.337 10.7386C111.632 10.7386 112.649 11.0227 113.388 11.5909C114.132 12.1591 114.661 12.9091 114.973 13.8409Z" fill="white"/>
<rect x="10" y="45" width="80" height="65" rx="10" fill="#00661D"/>
<rect x="106" y="45" width="80" height="65" rx="10" fill="#00661D"/>
<rect x="202" y="45" width="80" height="65" rx="10" fill="#00661D"/>
<rect x="300" y="45" width="80" height="65" rx="10" fill="#00661D"/>
<path d="M10 76H90V100C90 105.523 85.5229 110 80 110H20C14.4772 110 10 105.523 10 100V76Z" fill="#6F6F6F"/>
<path d="M106 76H186V100C186 105.523 181.523 110 176 110H116C110.477 110 106 105.523 106 100V76Z" fill="#6F6F6F"/>
<path d="M202 77H282V101C282 106.523 277.523 111 272 111H212C206.477 111 202 106.523 202 101V77Z" fill="#6F6F6F"/>
<path d="M300 76H380V100C380 105.523 375.523 110 370 110H310C304.477 110 300 105.523 300 100V76Z" fill="#6F6F6F"/>
<path d="M213.994 56.4545H216.096L221.039 68.5284H221.21L226.153 56.4545H228.255V71H226.607V59.9489H226.465L221.92 71H220.329L215.784 59.9489H215.642V71H213.994V56.4545ZM235.991 71.2273C235.006 71.2273 234.142 70.9929 233.399 70.5241C232.66 70.0554 232.083 69.3996 231.666 68.5568C231.254 67.714 231.048 66.7292 231.048 65.6023C231.048 64.4659 231.254 63.474 231.666 62.6264C232.083 61.7789 232.66 61.1207 233.399 60.652C234.142 60.1832 235.006 59.9489 235.991 59.9489C236.976 59.9489 237.838 60.1832 238.577 60.652C239.32 61.1207 239.898 61.7789 240.309 62.6264C240.726 63.474 240.934 64.4659 240.934 65.6023C240.934 66.7292 240.726 67.714 240.309 68.5568C239.898 69.3996 239.32 70.0554 238.577 70.5241C237.838 70.9929 236.976 71.2273 235.991 71.2273ZM235.991 69.7216C236.739 69.7216 237.355 69.5298 237.838 69.1463C238.321 68.7628 238.678 68.2585 238.91 67.6335C239.142 67.0085 239.258 66.3314 239.258 65.6023C239.258 64.8731 239.142 64.1937 238.91 63.5639C238.678 62.9342 238.321 62.4252 237.838 62.0369C237.355 61.6487 236.739 61.4545 235.991 61.4545C235.243 61.4545 234.628 61.6487 234.145 62.0369C233.662 62.4252 233.304 62.9342 233.072 63.5639C232.84 64.1937 232.724 64.8731 232.724 65.6023C232.724 66.3314 232.84 67.0085 233.072 67.6335C233.304 68.2585 233.662 68.7628 234.145 69.1463C234.628 69.5298 235.243 69.7216 235.991 69.7216ZM247.612 71.2273C246.703 71.2273 245.901 70.9976 245.205 70.5384C244.509 70.0743 243.964 69.4209 243.571 68.5781C243.178 67.7306 242.982 66.7292 242.982 65.5739C242.982 64.428 243.178 63.4337 243.571 62.5909C243.964 61.7481 244.511 61.0971 245.212 60.6378C245.913 60.1785 246.722 59.9489 247.641 59.9489C248.351 59.9489 248.912 60.0672 249.324 60.304C249.741 60.536 250.058 60.8011 250.276 61.0994C250.498 61.393 250.671 61.6345 250.794 61.8239H250.936V56.4545H252.612V71H250.993V69.3239H250.794C250.671 69.5227 250.496 69.7737 250.269 70.0767C250.041 70.375 249.717 70.6425 249.296 70.8793C248.874 71.1113 248.313 71.2273 247.612 71.2273ZM247.84 69.7216C248.512 69.7216 249.08 69.5464 249.544 69.196C250.008 68.8409 250.361 68.3509 250.602 67.7259C250.844 67.0961 250.965 66.3693 250.965 65.5455C250.965 64.7311 250.846 64.0185 250.61 63.4077C250.373 62.7921 250.022 62.3139 249.558 61.973C249.094 61.6274 248.521 61.4545 247.84 61.4545C247.129 61.4545 246.538 61.6368 246.064 62.0014C245.595 62.3613 245.243 62.8513 245.006 63.4716C244.774 64.0871 244.658 64.7784 244.658 65.5455C244.658 66.322 244.776 67.0275 245.013 67.6619C245.254 68.2917 245.61 68.7936 246.078 69.1676C246.552 69.5369 247.139 69.7216 247.84 69.7216ZM260.489 71.2273C259.438 71.2273 258.531 70.9953 257.769 70.5312C257.011 70.0625 256.426 69.4091 256.014 68.571C255.607 67.7282 255.404 66.7481 255.404 65.6307C255.404 64.5133 255.607 63.5284 256.014 62.6761C256.426 61.8191 256.999 61.1515 257.733 60.6733C258.472 60.1903 259.334 59.9489 260.318 59.9489C260.887 59.9489 261.448 60.0436 262.002 60.233C262.556 60.4223 263.06 60.7301 263.514 61.1562C263.969 61.5777 264.331 62.1364 264.601 62.8324C264.871 63.5284 265.006 64.3854 265.006 65.4034V66.1136H256.597V64.6648H263.301C263.301 64.0492 263.178 63.5 262.932 63.017C262.691 62.5341 262.345 62.1529 261.895 61.8736C261.45 61.5942 260.924 61.4545 260.318 61.4545C259.651 61.4545 259.073 61.6203 258.585 61.9517C258.102 62.2784 257.731 62.7045 257.47 63.2301C257.21 63.7557 257.08 64.3191 257.08 64.9205V65.8864C257.08 66.7102 257.222 67.4086 257.506 67.9815C257.795 68.5497 258.195 68.983 258.706 69.2812C259.218 69.5748 259.812 69.7216 260.489 69.7216C260.929 69.7216 261.327 69.66 261.682 69.5369C262.042 69.4091 262.352 69.2197 262.612 68.9688C262.873 68.7131 263.074 68.3958 263.216 68.017L264.835 68.4716C264.665 69.0208 264.378 69.5038 263.976 69.9205C263.574 70.3324 263.076 70.6544 262.485 70.8864C261.893 71.1136 261.227 71.2273 260.489 71.2273ZM269.232 56.4545V71H267.556V56.4545H269.232Z" fill="#5B5B5B"/>
<path d="M213.994 56.4545H216.096L221.039 68.5284H221.21L226.153 56.4545H228.255V71H226.607V59.9489H226.465L221.92 71H220.329L215.784 59.9489H215.642V71H213.994V56.4545ZM235.991 71.2273C235.006 71.2273 234.142 70.9929 233.399 70.5241C232.66 70.0554 232.083 69.3996 231.666 68.5568C231.254 67.714 231.048 66.7292 231.048 65.6023C231.048 64.4659 231.254 63.474 231.666 62.6264C232.083 61.7789 232.66 61.1207 233.399 60.652C234.142 60.1832 235.006 59.9489 235.991 59.9489C236.976 59.9489 237.838 60.1832 238.577 60.652C239.32 61.1207 239.898 61.7789 240.309 62.6264C240.726 63.474 240.934 64.4659 240.934 65.6023C240.934 66.7292 240.726 67.714 240.309 68.5568C239.898 69.3996 239.32 70.0554 238.577 70.5241C237.838 70.9929 236.976 71.2273 235.991 71.2273ZM235.991 69.7216C236.739 69.7216 237.355 69.5298 237.838 69.1463C238.321 68.7628 238.678 68.2585 238.91 67.6335C239.142 67.0085 239.258 66.3314 239.258 65.6023C239.258 64.8731 239.142 64.1937 238.91 63.5639C238.678 62.9342 238.321 62.4252 237.838 62.0369C237.355 61.6487 236.739 61.4545 235.991 61.4545C235.243 61.4545 234.628 61.6487 234.145 62.0369C233.662 62.4252 233.304 62.9342 233.072 63.5639C232.84 64.1937 232.724 64.8731 232.724 65.6023C232.724 66.3314 232.84 67.0085 233.072 67.6335C233.304 68.2585 233.662 68.7628 234.145 69.1463C234.628 69.5298 235.243 69.7216 235.991 69.7216ZM247.612 71.2273C246.703 71.2273 245.901 70.9976 245.205 70.5384C244.509 70.0743 243.964 69.4209 243.571 68.5781C243.178 67.7306 242.982 66.7292 242.982 65.5739C242.982 64.428 243.178 63.4337 243.571 62.5909C243.964 61.7481 244.511 61.0971 245.212 60.6378C245.913 60.1785 246.722 59.9489 247.641 59.9489C248.351 59.9489 248.912 60.0672 249.324 60.304C249.741 60.536 250.058 60.8011 250.276 61.0994C250.498 61.393 250.671 61.6345 250.794 61.8239H250.936V56.4545H252.612V71H250.993V69.3239H250.794C250.671 69.5227 250.496 69.7737 250.269 70.0767C250.041 70.375 249.717 70.6425 249.296 70.8793C248.874 71.1113 248.313 71.2273 247.612 71.2273ZM247.84 69.7216C248.512 69.7216 249.08 69.5464 249.544 69.196C250.008 68.8409 250.361 68.3509 250.602 67.7259C250.844 67.0961 250.965 66.3693 250.965 65.5455C250.965 64.7311 250.846 64.0185 250.61 63.4077C250.373 62.7921 250.022 62.3139 249.558 61.973C249.094 61.6274 248.521 61.4545 247.84 61.4545C247.129 61.4545 246.538 61.6368 246.064 62.0014C245.595 62.3613 245.243 62.8513 245.006 63.4716C244.774 64.0871 244.658 64.7784 244.658 65.5455C244.658 66.322 244.776 67.0275 245.013 67.6619C245.254 68.2917 245.61 68.7936 246.078 69.1676C246.552 69.5369 247.139 69.7216 247.84 69.7216ZM260.489 71.2273C259.438 71.2273 258.531 70.9953 257.769 70.5312C257.011 70.0625 256.426 69.4091 256.014 68.571C255.607 67.7282 255.404 66.7481 255.404 65.6307C255.404 64.5133 255.607 63.5284 256.014 62.6761C256.426 61.8191 256.999 61.1515 257.733 60.6733C258.472 60.1903 259.334 59.9489 260.318 59.9489C260.887 59.9489 261.448 60.0436 262.002 60.233C262.556 60.4223 263.06 60.7301 263.514 61.1562C263.969 61.5777 264.331 62.1364 264.601 62.8324C264.871 63.5284 265.006 64.3854 265.006 65.4034V66.1136H256.597V64.6648H263.301C263.301 64.0492 263.178 63.5 262.932 63.017C262.691 62.5341 262.345 62.1529 261.895 61.8736C261.45 61.5942 260.924 61.4545 260.318 61.4545C259.651 61.4545 259.073 61.6203 258.585 61.9517C258.102 62.2784 257.731 62.7045 257.47 63.2301C257.21 63.7557 257.08 64.3191 257.08 64.9205V65.8864C257.08 66.7102 257.222 67.4086 257.506 67.9815C257.795 68.5497 258.195 68.983 258.706 69.2812C259.218 69.5748 259.812 69.7216 260.489 69.7216C260.929 69.7216 261.327 69.66 261.682 69.5369C262.042 69.4091 262.352 69.2197 262.612 68.9688C262.873 68.7131 263.074 68.3958 263.216 68.017L264.835 68.4716C264.665 69.0208 264.378 69.5038 263.976 69.9205C263.574 70.3324 263.076 70.6544 262.485 70.8864C261.893 71.1136 261.227 71.2273 260.489 71.2273ZM269.232 56.4545V71H267.556V56.4545H269.232Z" fill="#5B5B5B"/>
<path d="M213.994 56.4545H216.096L221.039 68.5284H221.21L226.153 56.4545H228.255V71H226.607V59.9489H226.465L221.92 71H220.329L215.784 59.9489H215.642V71H213.994V56.4545ZM235.991 71.2273C235.006 71.2273 234.142 70.9929 233.399 70.5241C232.66 70.0554 232.083 69.3996 231.666 68.5568C231.254 67.714 231.048 66.7292 231.048 65.6023C231.048 64.4659 231.254 63.474 231.666 62.6264C232.083 61.7789 232.66 61.1207 233.399 60.652C234.142 60.1832 235.006 59.9489 235.991 59.9489C236.976 59.9489 237.838 60.1832 238.577 60.652C239.32 61.1207 239.898 61.7789 240.309 62.6264C240.726 63.474 240.934 64.4659 240.934 65.6023C240.934 66.7292 240.726 67.714 240.309 68.5568C239.898 69.3996 239.32 70.0554 238.577 70.5241C237.838 70.9929 236.976 71.2273 235.991 71.2273ZM235.991 69.7216C236.739 69.7216 237.355 69.5298 237.838 69.1463C238.321 68.7628 238.678 68.2585 238.91 67.6335C239.142 67.0085 239.258 66.3314 239.258 65.6023C239.258 64.8731 239.142 64.1937 238.91 63.5639C238.678 62.9342 238.321 62.4252 237.838 62.0369C237.355 61.6487 236.739 61.4545 235.991 61.4545C235.243 61.4545 234.628 61.6487 234.145 62.0369C233.662 62.4252 233.304 62.9342 233.072 63.5639C232.84 64.1937 232.724 64.8731 232.724 65.6023C232.724 66.3314 232.84 67.0085 233.072 67.6335C233.304 68.2585 233.662 68.7628 234.145 69.1463C234.628 69.5298 235.243 69.7216 235.991 69.7216ZM247.612 71.2273C246.703 71.2273 245.901 70.9976 245.205 70.5384C244.509 70.0743 243.964 69.4209 243.571 68.5781C243.178 67.7306 242.982 66.7292 242.982 65.5739C242.982 64.428 243.178 63.4337 243.571 62.5909C243.964 61.7481 244.511 61.0971 245.212 60.6378C245.913 60.1785 246.722 59.9489 247.641 59.9489C248.351 59.9489 248.912 60.0672 249.324 60.304C249.741 60.536 250.058 60.8011 250.276 61.0994C250.498 61.393 250.671 61.6345 250.794 61.8239H250.936V56.4545H252.612V71H250.993V69.3239H250.794C250.671 69.5227 250.496 69.7737 250.269 70.0767C250.041 70.375 249.717 70.6425 249.296 70.8793C248.874 71.1113 248.313 71.2273 247.612 71.2273ZM247.84 69.7216C248.512 69.7216 249.08 69.5464 249.544 69.196C250.008 68.8409 250.361 68.3509 250.602 67.7259C250.844 67.0961 250.965 66.3693 250.965 65.5455C250.965 64.7311 250.846 64.0185 250.61 63.4077C250.373 62.7921 250.022 62.3139 249.558 61.973C249.094 61.6274 248.521 61.4545 247.84 61.4545C247.129 61.4545 246.538 61.6368 246.064 62.0014C245.595 62.3613 245.243 62.8513 245.006 63.4716C244.774 64.0871 244.658 64.7784 244.658 65.5455C244.658 66.322 244.776 67.0275 245.013 67.6619C245.254 68.2917 245.61 68.7936 246.078 69.1676C246.552 69.5369 247.139 69.7216 247.84 69.7216ZM260.489 71.2273C259.438 71.2273 258.531 70.9953 257.769 70.5312C257.011 70.0625 256.426 69.4091 256.014 68.571C255.607 67.7282 255.404 66.7481 255.404 65.6307C255.404 64.5133 255.607 63.5284 256.014 62.6761C256.426 61.8191 256.999 61.1515 257.733 60.6733C258.472 60.1903 259.334 59.9489 260.318 59.9489C260.887 59.9489 261.448 60.0436 262.002 60.233C262.556 60.4223 263.06 60.7301 263.514 61.1562C263.969 61.5777 264.331 62.1364 264.601 62.8324C264.871 63.5284 265.006 64.3854 265.006 65.4034V66.1136H256.597V64.6648H263.301C263.301 64.0492 263.178 63.5 262.932 63.017C262.691 62.5341 262.345 62.1529 261.895 61.8736C261.45 61.5942 260.924 61.4545 260.318 61.4545C259.651 61.4545 259.073 61.6203 258.585 61.9517C258.102 62.2784 257.731 62.7045 257.47 63.2301C257.21 63.7557 257.08 64.3191 257.08 64.9205V65.8864C257.08 66.7102 257.222 67.4086 257.506 67.9815C257.795 68.5497 258.195 68.983 258.706 69.2812C259.218 69.5748 259.812 69.7216 260.489 69.7216C260.929 69.7216 261.327 69.66 261.682 69.5369C262.042 69.4091 262.352 69.2197 262.612 68.9688C262.873 68.7131 263.074 68.3958 263.216 68.017L264.835 68.4716C264.665 69.0208 264.378 69.5038 263.976 69.9205C263.574 70.3324 263.076 70.6544 262.485 70.8864C261.893 71.1136 261.227 71.2273 260.489 71.2273ZM269.232 56.4545V71H267.556V56.4545H269.232Z" fill="white"/>
<path d="M123.183 71V56.4545H128.098C129.234 56.4545 130.167 56.6487 130.896 57.0369C131.625 57.4205 132.165 57.9484 132.516 58.6207C132.866 59.2931 133.041 60.0578 133.041 60.9148C133.041 61.7718 132.866 62.5317 132.516 63.1946C132.165 63.8575 131.628 64.3783 130.903 64.7571C130.179 65.1312 129.253 65.3182 128.126 65.3182H124.149V63.7273H128.07C128.846 63.7273 129.471 63.6136 129.945 63.3864C130.423 63.1591 130.768 62.8371 130.982 62.4205C131.199 61.9991 131.308 61.4972 131.308 60.9148C131.308 60.3324 131.199 59.8234 130.982 59.3878C130.764 58.9522 130.416 58.616 129.938 58.3793C129.459 58.1378 128.827 58.017 128.041 58.017H124.945V71H123.183ZM130.03 64.4659L133.609 71H131.564L128.041 64.4659H130.03ZM140.206 71.2273C139.154 71.2273 138.248 70.9953 137.485 70.5312C136.728 70.0625 136.143 69.4091 135.731 68.571C135.324 67.7282 135.12 66.7481 135.12 65.6307C135.12 64.5133 135.324 63.5284 135.731 62.6761C136.143 61.8191 136.716 61.1515 137.45 60.6733C138.189 60.1903 139.05 59.9489 140.035 59.9489C140.603 59.9489 141.164 60.0436 141.718 60.233C142.272 60.4223 142.777 60.7301 143.231 61.1562C143.686 61.5777 144.048 62.1364 144.318 62.8324C144.588 63.5284 144.723 64.3854 144.723 65.4034V66.1136H136.314V64.6648H143.018C143.018 64.0492 142.895 63.5 142.649 63.017C142.407 62.5341 142.062 62.1529 141.612 61.8736C141.167 61.5942 140.641 61.4545 140.035 61.4545C139.368 61.4545 138.79 61.6203 138.302 61.9517C137.819 62.2784 137.448 62.7045 137.187 63.2301C136.927 63.7557 136.797 64.3191 136.797 64.9205V65.8864C136.797 66.7102 136.939 67.4086 137.223 67.9815C137.511 68.5497 137.912 68.983 138.423 69.2812C138.934 69.5748 139.529 69.7216 140.206 69.7216C140.646 69.7216 141.044 69.66 141.399 69.5369C141.759 69.4091 142.069 69.2197 142.329 68.9688C142.59 68.7131 142.791 68.3958 142.933 68.017L144.552 68.4716C144.382 69.0208 144.095 69.5038 143.693 69.9205C143.29 70.3324 142.793 70.6544 142.201 70.8864C141.609 71.1136 140.944 71.2273 140.206 71.2273ZM152.13 60.0909V61.5114H146.25V60.0909H152.13ZM148.011 71V58.5852C148.011 57.9602 148.158 57.4394 148.451 57.0227C148.745 56.6061 149.126 56.2936 149.595 56.0852C150.064 55.8769 150.558 55.7727 151.079 55.7727C151.491 55.7727 151.827 55.8059 152.088 55.8722C152.348 55.9384 152.542 56 152.67 56.0568L152.187 57.5057C152.102 57.4773 151.984 57.4418 151.832 57.3991C151.685 57.3565 151.491 57.3352 151.25 57.3352C150.696 57.3352 150.296 57.4749 150.049 57.7543C149.808 58.0336 149.687 58.4432 149.687 58.983V71H148.011ZM158.604 71.2273C157.553 71.2273 156.646 70.9953 155.884 70.5312C155.126 70.0625 154.542 69.4091 154.13 68.571C153.722 67.7282 153.519 66.7481 153.519 65.6307C153.519 64.5133 153.722 63.5284 154.13 62.6761C154.542 61.8191 155.114 61.1515 155.848 60.6733C156.587 60.1903 157.449 59.9489 158.434 59.9489C159.002 59.9489 159.563 60.0436 160.117 60.233C160.671 60.4223 161.175 60.7301 161.63 61.1562C162.084 61.5777 162.446 62.1364 162.716 62.8324C162.986 63.5284 163.121 64.3854 163.121 65.4034V66.1136H154.712V64.6648H161.417C161.417 64.0492 161.293 63.5 161.047 63.017C160.806 62.5341 160.46 62.1529 160.01 61.8736C159.565 61.5942 159.04 61.4545 158.434 61.4545C157.766 61.4545 157.188 61.6203 156.701 61.9517C156.218 62.2784 155.846 62.7045 155.586 63.2301C155.325 63.7557 155.195 64.3191 155.195 64.9205V65.8864C155.195 66.7102 155.337 67.4086 155.621 67.9815C155.91 68.5497 156.31 68.983 156.821 69.2812C157.333 69.5748 157.927 69.7216 158.604 69.7216C159.044 69.7216 159.442 69.66 159.797 69.5369C160.157 69.4091 160.467 69.2197 160.728 68.9688C160.988 68.7131 161.189 68.3958 161.331 68.017L162.951 68.4716C162.78 69.0208 162.494 69.5038 162.091 69.9205C161.689 70.3324 161.192 70.6544 160.6 70.8864C160.008 71.1136 159.343 71.2273 158.604 71.2273ZM165.671 71V60.0909H167.29V61.7386H167.404C167.603 61.1989 167.962 60.7609 168.483 60.4247C169.004 60.0885 169.591 59.9205 170.245 59.9205C170.368 59.9205 170.522 59.9228 170.706 59.9276C170.891 59.9323 171.031 59.9394 171.125 59.9489V61.6534C171.069 61.6392 170.938 61.6179 170.735 61.5895C170.536 61.5563 170.325 61.5398 170.103 61.5398C169.572 61.5398 169.099 61.651 168.682 61.8736C168.27 62.0914 167.944 62.3944 167.702 62.7827C167.465 63.1662 167.347 63.6042 167.347 64.0966V71H165.671Z" fill="#5B5B5B"/>
<path d="M123.183 71V56.4545H128.098C129.234 56.4545 130.167 56.6487 130.896 57.0369C131.625 57.4205 132.165 57.9484 132.516 58.6207C132.866 59.2931 133.041 60.0578 133.041 60.9148C133.041 61.7718 132.866 62.5317 132.516 63.1946C132.165 63.8575 131.628 64.3783 130.903 64.7571C130.179 65.1312 129.253 65.3182 128.126 65.3182H124.149V63.7273H128.07C128.846 63.7273 129.471 63.6136 129.945 63.3864C130.423 63.1591 130.768 62.8371 130.982 62.4205C131.199 61.9991 131.308 61.4972 131.308 60.9148C131.308 60.3324 131.199 59.8234 130.982 59.3878C130.764 58.9522 130.416 58.616 129.938 58.3793C129.459 58.1378 128.827 58.017 128.041 58.017H124.945V71H123.183ZM130.03 64.4659L133.609 71H131.564L128.041 64.4659H130.03ZM140.206 71.2273C139.154 71.2273 138.248 70.9953 137.485 70.5312C136.728 70.0625 136.143 69.4091 135.731 68.571C135.324 67.7282 135.12 66.7481 135.12 65.6307C135.12 64.5133 135.324 63.5284 135.731 62.6761C136.143 61.8191 136.716 61.1515 137.45 60.6733C138.189 60.1903 139.05 59.9489 140.035 59.9489C140.603 59.9489 141.164 60.0436 141.718 60.233C142.272 60.4223 142.777 60.7301 143.231 61.1562C143.686 61.5777 144.048 62.1364 144.318 62.8324C144.588 63.5284 144.723 64.3854 144.723 65.4034V66.1136H136.314V64.6648H143.018C143.018 64.0492 142.895 63.5 142.649 63.017C142.407 62.5341 142.062 62.1529 141.612 61.8736C141.167 61.5942 140.641 61.4545 140.035 61.4545C139.368 61.4545 138.79 61.6203 138.302 61.9517C137.819 62.2784 137.448 62.7045 137.187 63.2301C136.927 63.7557 136.797 64.3191 136.797 64.9205V65.8864C136.797 66.7102 136.939 67.4086 137.223 67.9815C137.511 68.5497 137.912 68.983 138.423 69.2812C138.934 69.5748 139.529 69.7216 140.206 69.7216C140.646 69.7216 141.044 69.66 141.399 69.5369C141.759 69.4091 142.069 69.2197 142.329 68.9688C142.59 68.7131 142.791 68.3958 142.933 68.017L144.552 68.4716C144.382 69.0208 144.095 69.5038 143.693 69.9205C143.29 70.3324 142.793 70.6544 142.201 70.8864C141.609 71.1136 140.944 71.2273 140.206 71.2273ZM152.13 60.0909V61.5114H146.25V60.0909H152.13ZM148.011 71V58.5852C148.011 57.9602 148.158 57.4394 148.451 57.0227C148.745 56.6061 149.126 56.2936 149.595 56.0852C150.064 55.8769 150.558 55.7727 151.079 55.7727C151.491 55.7727 151.827 55.8059 152.088 55.8722C152.348 55.9384 152.542 56 152.67 56.0568L152.187 57.5057C152.102 57.4773 151.984 57.4418 151.832 57.3991C151.685 57.3565 151.491 57.3352 151.25 57.3352C150.696 57.3352 150.296 57.4749 150.049 57.7543C149.808 58.0336 149.687 58.4432 149.687 58.983V71H148.011ZM158.604 71.2273C157.553 71.2273 156.646 70.9953 155.884 70.5312C155.126 70.0625 154.542 69.4091 154.13 68.571C153.722 67.7282 153.519 66.7481 153.519 65.6307C153.519 64.5133 153.722 63.5284 154.13 62.6761C154.542 61.8191 155.114 61.1515 155.848 60.6733C156.587 60.1903 157.449 59.9489 158.434 59.9489C159.002 59.9489 159.563 60.0436 160.117 60.233C160.671 60.4223 161.175 60.7301 161.63 61.1562C162.084 61.5777 162.446 62.1364 162.716 62.8324C162.986 63.5284 163.121 64.3854 163.121 65.4034V66.1136H154.712V64.6648H161.417C161.417 64.0492 161.293 63.5 161.047 63.017C160.806 62.5341 160.46 62.1529 160.01 61.8736C159.565 61.5942 159.04 61.4545 158.434 61.4545C157.766 61.4545 157.188 61.6203 156.701 61.9517C156.218 62.2784 155.846 62.7045 155.586 63.2301C155.325 63.7557 155.195 64.3191 155.195 64.9205V65.8864C155.195 66.7102 155.337 67.4086 155.621 67.9815C155.91 68.5497 156.31 68.983 156.821 69.2812C157.333 69.5748 157.927 69.7216 158.604 69.7216C159.044 69.7216 159.442 69.66 159.797 69.5369C160.157 69.4091 160.467 69.2197 160.728 68.9688C160.988 68.7131 161.189 68.3958 161.331 68.017L162.951 68.4716C162.78 69.0208 162.494 69.5038 162.091 69.9205C161.689 70.3324 161.192 70.6544 160.6 70.8864C160.008 71.1136 159.343 71.2273 158.604 71.2273ZM165.671 71V60.0909H167.29V61.7386H167.404C167.603 61.1989 167.962 60.7609 168.483 60.4247C169.004 60.0885 169.591 59.9205 170.245 59.9205C170.368 59.9205 170.522 59.9228 170.706 59.9276C170.891 59.9323 171.031 59.9394 171.125 59.9489V61.6534C171.069 61.6392 170.938 61.6179 170.735 61.5895C170.536 61.5563 170.325 61.5398 170.103 61.5398C169.572 61.5398 169.099 61.651 168.682 61.8736C168.27 62.0914 167.944 62.3944 167.702 62.7827C167.465 63.1662 167.347 63.6042 167.347 64.0966V71H165.671Z" fill="#5B5B5B"/>
<path d="M123.183 71V56.4545H128.098C129.234 56.4545 130.167 56.6487 130.896 57.0369C131.625 57.4205 132.165 57.9484 132.516 58.6207C132.866 59.2931 133.041 60.0578 133.041 60.9148C133.041 61.7718 132.866 62.5317 132.516 63.1946C132.165 63.8575 131.628 64.3783 130.903 64.7571C130.179 65.1312 129.253 65.3182 128.126 65.3182H124.149V63.7273H128.07C128.846 63.7273 129.471 63.6136 129.945 63.3864C130.423 63.1591 130.768 62.8371 130.982 62.4205C131.199 61.9991 131.308 61.4972 131.308 60.9148C131.308 60.3324 131.199 59.8234 130.982 59.3878C130.764 58.9522 130.416 58.616 129.938 58.3793C129.459 58.1378 128.827 58.017 128.041 58.017H124.945V71H123.183ZM130.03 64.4659L133.609 71H131.564L128.041 64.4659H130.03ZM140.206 71.2273C139.154 71.2273 138.248 70.9953 137.485 70.5312C136.728 70.0625 136.143 69.4091 135.731 68.571C135.324 67.7282 135.12 66.7481 135.12 65.6307C135.12 64.5133 135.324 63.5284 135.731 62.6761C136.143 61.8191 136.716 61.1515 137.45 60.6733C138.189 60.1903 139.05 59.9489 140.035 59.9489C140.603 59.9489 141.164 60.0436 141.718 60.233C142.272 60.4223 142.777 60.7301 143.231 61.1562C143.686 61.5777 144.048 62.1364 144.318 62.8324C144.588 63.5284 144.723 64.3854 144.723 65.4034V66.1136H136.314V64.6648H143.018C143.018 64.0492 142.895 63.5 142.649 63.017C142.407 62.5341 142.062 62.1529 141.612 61.8736C141.167 61.5942 140.641 61.4545 140.035 61.4545C139.368 61.4545 138.79 61.6203 138.302 61.9517C137.819 62.2784 137.448 62.7045 137.187 63.2301C136.927 63.7557 136.797 64.3191 136.797 64.9205V65.8864C136.797 66.7102 136.939 67.4086 137.223 67.9815C137.511 68.5497 137.912 68.983 138.423 69.2812C138.934 69.5748 139.529 69.7216 140.206 69.7216C140.646 69.7216 141.044 69.66 141.399 69.5369C141.759 69.4091 142.069 69.2197 142.329 68.9688C142.59 68.7131 142.791 68.3958 142.933 68.017L144.552 68.4716C144.382 69.0208 144.095 69.5038 143.693 69.9205C143.29 70.3324 142.793 70.6544 142.201 70.8864C141.609 71.1136 140.944 71.2273 140.206 71.2273ZM152.13 60.0909V61.5114H146.25V60.0909H152.13ZM148.011 71V58.5852C148.011 57.9602 148.158 57.4394 148.451 57.0227C148.745 56.6061 149.126 56.2936 149.595 56.0852C150.064 55.8769 150.558 55.7727 151.079 55.7727C151.491 55.7727 151.827 55.8059 152.088 55.8722C152.348 55.9384 152.542 56 152.67 56.0568L152.187 57.5057C152.102 57.4773 151.984 57.4418 151.832 57.3991C151.685 57.3565 151.491 57.3352 151.25 57.3352C150.696 57.3352 150.296 57.4749 150.049 57.7543C149.808 58.0336 149.687 58.4432 149.687 58.983V71H148.011ZM158.604 71.2273C157.553 71.2273 156.646 70.9953 155.884 70.5312C155.126 70.0625 154.542 69.4091 154.13 68.571C153.722 67.7282 153.519 66.7481 153.519 65.6307C153.519 64.5133 153.722 63.5284 154.13 62.6761C154.542 61.8191 155.114 61.1515 155.848 60.6733C156.587 60.1903 157.449 59.9489 158.434 59.9489C159.002 59.9489 159.563 60.0436 160.117 60.233C160.671 60.4223 161.175 60.7301 161.63 61.1562C162.084 61.5777 162.446 62.1364 162.716 62.8324C162.986 63.5284 163.121 64.3854 163.121 65.4034V66.1136H154.712V64.6648H161.417C161.417 64.0492 161.293 63.5 161.047 63.017C160.806 62.5341 160.46 62.1529 160.01 61.8736C159.565 61.5942 159.04 61.4545 158.434 61.4545C157.766 61.4545 157.188 61.6203 156.701 61.9517C156.218 62.2784 155.846 62.7045 155.586 63.2301C155.325 63.7557 155.195 64.3191 155.195 64.9205V65.8864C155.195 66.7102 155.337 67.4086 155.621 67.9815C155.91 68.5497 156.31 68.983 156.821 69.2812C157.333 69.5748 157.927 69.7216 158.604 69.7216C159.044 69.7216 159.442 69.66 159.797 69.5369C160.157 69.4091 160.467 69.2197 160.728 68.9688C160.988 68.7131 161.189 68.3958 161.331 68.017L162.951 68.4716C162.78 69.0208 162.494 69.5038 162.091 69.9205C161.689 70.3324 161.192 70.6544 160.6 70.8864C160.008 71.1136 159.343 71.2273 158.604 71.2273ZM165.671 71V60.0909H167.29V61.7386H167.404C167.603 61.1989 167.962 60.7609 168.483 60.4247C169.004 60.0885 169.591 59.9205 170.245 59.9205C170.368 59.9205 170.522 59.9228 170.706 59.9276C170.891 59.9323 171.031 59.9394 171.125 59.9489V61.6534C171.069 61.6392 170.938 61.6179 170.735 61.5895C170.536 61.5563 170.325 61.5398 170.103 61.5398C169.572 61.5398 169.099 61.651 168.682 61.8736C168.27 62.0914 167.944 62.3944 167.702 62.7827C167.465 63.1662 167.347 63.6042 167.347 64.0966V71H165.671Z" fill="white"/>
<path d="M23.8414 71V56.4545H28.9267C29.9399 56.4545 30.7756 56.6297 31.4338 56.9801C32.0919 57.3258 32.582 57.7921 32.9039 58.3793C33.2259 58.9616 33.3869 59.608 33.3869 60.3182C33.3869 60.9432 33.2756 61.4593 33.0531 61.8665C32.8353 62.2737 32.5465 62.5956 32.1866 62.8324C31.8315 63.0691 31.4456 63.2443 31.0289 63.358V63.5C31.474 63.5284 31.9215 63.6847 32.3713 63.9688C32.8211 64.2528 33.1975 64.66 33.5005 65.1903C33.8036 65.7206 33.9551 66.3693 33.9551 67.1364C33.9551 67.8655 33.7894 68.5213 33.4579 69.1037C33.1265 69.6861 32.6033 70.1477 31.8883 70.4886C31.1734 70.8295 30.243 71 29.0971 71H23.8414ZM25.6028 69.4375H29.0971C30.2477 69.4375 31.0645 69.215 31.5474 68.7699C32.0351 68.3201 32.2789 67.7756 32.2789 67.1364C32.2789 66.6439 32.1535 66.1894 31.9025 65.7727C31.6516 65.3513 31.2941 65.0152 30.8301 64.7642C30.3661 64.5085 29.8168 64.3807 29.1824 64.3807H25.6028V69.4375ZM25.6028 62.8466H28.8699C29.4002 62.8466 29.8784 62.7424 30.3045 62.5341C30.7354 62.3258 31.0763 62.0322 31.3272 61.6534C31.5829 61.2746 31.7108 60.8295 31.7108 60.3182C31.7108 59.679 31.4882 59.1368 31.0431 58.6918C30.5981 58.242 29.8926 58.017 28.9267 58.017H25.6028V62.8466ZM36.622 71V60.0909H38.2413V61.7386H38.3549C38.5538 61.1989 38.9136 60.7609 39.4345 60.4247C39.9553 60.0885 40.5424 59.9205 41.1958 59.9205C41.319 59.9205 41.4728 59.9228 41.6575 59.9276C41.8422 59.9323 41.9818 59.9394 42.0765 59.9489V61.6534C42.0197 61.6392 41.8895 61.6179 41.6859 61.5895C41.487 61.5563 41.2763 61.5398 41.0538 61.5398C40.5235 61.5398 40.05 61.651 39.6333 61.8736C39.2214 62.0914 38.8947 62.3944 38.6532 62.7827C38.4165 63.1662 38.2981 63.6042 38.2981 64.0966V71H36.622ZM47.2736 71.2557C46.5823 71.2557 45.955 71.1255 45.3915 70.8651C44.8281 70.5999 44.3806 70.2188 44.0492 69.7216C43.7177 69.2197 43.552 68.6136 43.552 67.9034C43.552 67.2784 43.6751 66.7718 43.9213 66.3835C44.1676 65.9905 44.4966 65.6828 44.9086 65.4602C45.3205 65.2377 45.775 65.072 46.2722 64.9631C46.7741 64.8494 47.2783 64.7595 47.785 64.6932C48.4479 64.608 48.9853 64.544 49.3972 64.5014C49.8139 64.4541 50.1169 64.3759 50.3063 64.267C50.5004 64.1581 50.5975 63.9687 50.5975 63.6989V63.642C50.5975 62.9413 50.4057 62.3968 50.0222 62.0085C49.6434 61.6203 49.0681 61.4261 48.2963 61.4261C47.4962 61.4261 46.8688 61.6013 46.4142 61.9517C45.9597 62.3021 45.6401 62.6761 45.4554 63.0739L43.8645 62.5057C44.1486 61.8428 44.5274 61.3267 45.0009 60.9574C45.4791 60.5833 45.9999 60.3229 46.5634 60.1761C47.1316 60.0246 47.6903 59.9489 48.2395 59.9489C48.5899 59.9489 48.9924 59.9915 49.4469 60.0767C49.9062 60.1572 50.3489 60.3253 50.775 60.581C51.2059 60.8366 51.5634 61.2225 51.8475 61.7386C52.1316 62.2547 52.2736 62.946 52.2736 63.8125V71H50.5975V69.5227H50.5123C50.3986 69.7595 50.2092 70.0128 49.9441 70.2827C49.6789 70.5526 49.3262 70.7822 48.8858 70.9716C48.4455 71.161 47.9081 71.2557 47.2736 71.2557ZM47.5293 69.75C48.1922 69.75 48.7509 69.6198 49.2054 69.3594C49.6647 69.099 50.0104 68.7628 50.2424 68.3509C50.4791 67.9389 50.5975 67.5057 50.5975 67.0511V65.517C50.5265 65.6023 50.3702 65.6804 50.1287 65.7514C49.892 65.8177 49.6174 65.8769 49.3049 65.929C48.9971 65.9763 48.6964 66.0189 48.4029 66.0568C48.1141 66.09 47.8797 66.1184 47.6998 66.142C47.2641 66.1989 46.8569 66.2912 46.4782 66.419C46.1041 66.5421 45.8011 66.7292 45.5691 66.9801C45.3418 67.2263 45.2282 67.5625 45.2282 67.9886C45.2282 68.571 45.4436 69.0114 45.8745 69.3097C46.3101 69.6032 46.8617 69.75 47.5293 69.75ZM57.0091 64.4375V71H55.3329V60.0909H56.9522V61.7955H57.0943C57.35 61.2415 57.7382 60.7964 58.2591 60.4602C58.7799 60.1193 59.4522 59.9489 60.2761 59.9489C61.0147 59.9489 61.661 60.1004 62.215 60.4034C62.769 60.7017 63.1999 61.1562 63.5076 61.767C63.8154 62.3731 63.9693 63.1402 63.9693 64.0682V71H62.2931V64.1818C62.2931 63.3248 62.0706 62.6572 61.6255 62.179C61.1805 61.696 60.5697 61.4545 59.7931 61.4545C59.2581 61.4545 58.7799 61.5705 58.3585 61.8026C57.9418 62.0346 57.6127 62.3731 57.3713 62.8182C57.1298 63.2633 57.0091 63.803 57.0091 64.4375ZM71.1515 71.2273C70.2424 71.2273 69.4398 70.9976 68.7438 70.5384C68.0478 70.0743 67.5033 69.4209 67.1103 68.5781C66.7173 67.7306 66.5208 66.7292 66.5208 65.5739C66.5208 64.428 66.7173 63.4337 67.1103 62.5909C67.5033 61.7481 68.0501 61.0971 68.7509 60.6378C69.4516 60.1785 70.2613 59.9489 71.1799 59.9489C71.8901 59.9489 72.4512 60.0672 72.8631 60.304C73.2798 60.536 73.597 60.8011 73.8148 61.0994C74.0373 61.393 74.2102 61.6345 74.3333 61.8239H74.4753V56.4545H76.1515V71H74.5321V69.3239H74.3333C74.2102 69.5227 74.035 69.7737 73.8077 70.0767C73.5804 70.375 73.2561 70.6425 72.8347 70.8793C72.4133 71.1113 71.8522 71.2273 71.1515 71.2273ZM71.3787 69.7216C72.0511 69.7216 72.6193 69.5464 73.0833 69.196C73.5473 68.8409 73.9 68.3509 74.1415 67.7259C74.383 67.0961 74.5037 66.3693 74.5037 65.5455C74.5037 64.7311 74.3854 64.0185 74.1486 63.4077C73.9119 62.7921 73.5615 62.3139 73.0975 61.973C72.6335 61.6274 72.0605 61.4545 71.3787 61.4545C70.6685 61.4545 70.0766 61.6368 69.6032 62.0014C69.1344 62.3613 68.7817 62.8513 68.5449 63.4716C68.3129 64.0871 68.1969 64.7784 68.1969 65.5455C68.1969 66.322 68.3153 67.0275 68.552 67.6619C68.7935 68.2917 69.1486 68.7936 69.6174 69.1676C70.0909 69.5369 70.678 69.7216 71.3787 69.7216Z" fill="#5B5B5B"/>
<path d="M23.8414 71V56.4545H28.9267C29.9399 56.4545 30.7756 56.6297 31.4338 56.9801C32.0919 57.3258 32.582 57.7921 32.9039 58.3793C33.2259 58.9616 33.3869 59.608 33.3869 60.3182C33.3869 60.9432 33.2756 61.4593 33.0531 61.8665C32.8353 62.2737 32.5465 62.5956 32.1866 62.8324C31.8315 63.0691 31.4456 63.2443 31.0289 63.358V63.5C31.474 63.5284 31.9215 63.6847 32.3713 63.9688C32.8211 64.2528 33.1975 64.66 33.5005 65.1903C33.8036 65.7206 33.9551 66.3693 33.9551 67.1364C33.9551 67.8655 33.7894 68.5213 33.4579 69.1037C33.1265 69.6861 32.6033 70.1477 31.8883 70.4886C31.1734 70.8295 30.243 71 29.0971 71H23.8414ZM25.6028 69.4375H29.0971C30.2477 69.4375 31.0645 69.215 31.5474 68.7699C32.0351 68.3201 32.2789 67.7756 32.2789 67.1364C32.2789 66.6439 32.1535 66.1894 31.9025 65.7727C31.6516 65.3513 31.2941 65.0152 30.8301 64.7642C30.3661 64.5085 29.8168 64.3807 29.1824 64.3807H25.6028V69.4375ZM25.6028 62.8466H28.8699C29.4002 62.8466 29.8784 62.7424 30.3045 62.5341C30.7354 62.3258 31.0763 62.0322 31.3272 61.6534C31.5829 61.2746 31.7108 60.8295 31.7108 60.3182C31.7108 59.679 31.4882 59.1368 31.0431 58.6918C30.5981 58.242 29.8926 58.017 28.9267 58.017H25.6028V62.8466ZM36.622 71V60.0909H38.2413V61.7386H38.3549C38.5538 61.1989 38.9136 60.7609 39.4345 60.4247C39.9553 60.0885 40.5424 59.9205 41.1958 59.9205C41.319 59.9205 41.4728 59.9228 41.6575 59.9276C41.8422 59.9323 41.9818 59.9394 42.0765 59.9489V61.6534C42.0197 61.6392 41.8895 61.6179 41.6859 61.5895C41.487 61.5563 41.2763 61.5398 41.0538 61.5398C40.5235 61.5398 40.05 61.651 39.6333 61.8736C39.2214 62.0914 38.8947 62.3944 38.6532 62.7827C38.4165 63.1662 38.2981 63.6042 38.2981 64.0966V71H36.622ZM47.2736 71.2557C46.5823 71.2557 45.955 71.1255 45.3915 70.8651C44.8281 70.5999 44.3806 70.2188 44.0492 69.7216C43.7177 69.2197 43.552 68.6136 43.552 67.9034C43.552 67.2784 43.6751 66.7718 43.9213 66.3835C44.1676 65.9905 44.4966 65.6828 44.9086 65.4602C45.3205 65.2377 45.775 65.072 46.2722 64.9631C46.7741 64.8494 47.2783 64.7595 47.785 64.6932C48.4479 64.608 48.9853 64.544 49.3972 64.5014C49.8139 64.4541 50.1169 64.3759 50.3063 64.267C50.5004 64.1581 50.5975 63.9687 50.5975 63.6989V63.642C50.5975 62.9413 50.4057 62.3968 50.0222 62.0085C49.6434 61.6203 49.0681 61.4261 48.2963 61.4261C47.4962 61.4261 46.8688 61.6013 46.4142 61.9517C45.9597 62.3021 45.6401 62.6761 45.4554 63.0739L43.8645 62.5057C44.1486 61.8428 44.5274 61.3267 45.0009 60.9574C45.4791 60.5833 45.9999 60.3229 46.5634 60.1761C47.1316 60.0246 47.6903 59.9489 48.2395 59.9489C48.5899 59.9489 48.9924 59.9915 49.4469 60.0767C49.9062 60.1572 50.3489 60.3253 50.775 60.581C51.2059 60.8366 51.5634 61.2225 51.8475 61.7386C52.1316 62.2547 52.2736 62.946 52.2736 63.8125V71H50.5975V69.5227H50.5123C50.3986 69.7595 50.2092 70.0128 49.9441 70.2827C49.6789 70.5526 49.3262 70.7822 48.8858 70.9716C48.4455 71.161 47.9081 71.2557 47.2736 71.2557ZM47.5293 69.75C48.1922 69.75 48.7509 69.6198 49.2054 69.3594C49.6647 69.099 50.0104 68.7628 50.2424 68.3509C50.4791 67.9389 50.5975 67.5057 50.5975 67.0511V65.517C50.5265 65.6023 50.3702 65.6804 50.1287 65.7514C49.892 65.8177 49.6174 65.8769 49.3049 65.929C48.9971 65.9763 48.6964 66.0189 48.4029 66.0568C48.1141 66.09 47.8797 66.1184 47.6998 66.142C47.2641 66.1989 46.8569 66.2912 46.4782 66.419C46.1041 66.5421 45.8011 66.7292 45.5691 66.9801C45.3418 67.2263 45.2282 67.5625 45.2282 67.9886C45.2282 68.571 45.4436 69.0114 45.8745 69.3097C46.3101 69.6032 46.8617 69.75 47.5293 69.75ZM57.0091 64.4375V71H55.3329V60.0909H56.9522V61.7955H57.0943C57.35 61.2415 57.7382 60.7964 58.2591 60.4602C58.7799 60.1193 59.4522 59.9489 60.2761 59.9489C61.0147 59.9489 61.661 60.1004 62.215 60.4034C62.769 60.7017 63.1999 61.1562 63.5076 61.767C63.8154 62.3731 63.9693 63.1402 63.9693 64.0682V71H62.2931V64.1818C62.2931 63.3248 62.0706 62.6572 61.6255 62.179C61.1805 61.696 60.5697 61.4545 59.7931 61.4545C59.2581 61.4545 58.7799 61.5705 58.3585 61.8026C57.9418 62.0346 57.6127 62.3731 57.3713 62.8182C57.1298 63.2633 57.0091 63.803 57.0091 64.4375ZM71.1515 71.2273C70.2424 71.2273 69.4398 70.9976 68.7438 70.5384C68.0478 70.0743 67.5033 69.4209 67.1103 68.5781C66.7173 67.7306 66.5208 66.7292 66.5208 65.5739C66.5208 64.428 66.7173 63.4337 67.1103 62.5909C67.5033 61.7481 68.0501 61.0971 68.7509 60.6378C69.4516 60.1785 70.2613 59.9489 71.1799 59.9489C71.8901 59.9489 72.4512 60.0672 72.8631 60.304C73.2798 60.536 73.597 60.8011 73.8148 61.0994C74.0373 61.393 74.2102 61.6345 74.3333 61.8239H74.4753V56.4545H76.1515V71H74.5321V69.3239H74.3333C74.2102 69.5227 74.035 69.7737 73.8077 70.0767C73.5804 70.375 73.2561 70.6425 72.8347 70.8793C72.4133 71.1113 71.8522 71.2273 71.1515 71.2273ZM71.3787 69.7216C72.0511 69.7216 72.6193 69.5464 73.0833 69.196C73.5473 68.8409 73.9 68.3509 74.1415 67.7259C74.383 67.0961 74.5037 66.3693 74.5037 65.5455C74.5037 64.7311 74.3854 64.0185 74.1486 63.4077C73.9119 62.7921 73.5615 62.3139 73.0975 61.973C72.6335 61.6274 72.0605 61.4545 71.3787 61.4545C70.6685 61.4545 70.0766 61.6368 69.6032 62.0014C69.1344 62.3613 68.7817 62.8513 68.5449 63.4716C68.3129 64.0871 68.1969 64.7784 68.1969 65.5455C68.1969 66.322 68.3153 67.0275 68.552 67.6619C68.7935 68.2917 69.1486 68.7936 69.6174 69.1676C70.0909 69.5369 70.678 69.7216 71.3787 69.7216Z" fill="#5B5B5B"/>
<path d="M23.8414 71V56.4545H28.9267C29.9399 56.4545 30.7756 56.6297 31.4338 56.9801C32.0919 57.3258 32.582 57.7921 32.9039 58.3793C33.2259 58.9616 33.3869 59.608 33.3869 60.3182C33.3869 60.9432 33.2756 61.4593 33.0531 61.8665C32.8353 62.2737 32.5465 62.5956 32.1866 62.8324C31.8315 63.0691 31.4456 63.2443 31.0289 63.358V63.5C31.474 63.5284 31.9215 63.6847 32.3713 63.9688C32.8211 64.2528 33.1975 64.66 33.5005 65.1903C33.8036 65.7206 33.9551 66.3693 33.9551 67.1364C33.9551 67.8655 33.7894 68.5213 33.4579 69.1037C33.1265 69.6861 32.6033 70.1477 31.8883 70.4886C31.1734 70.8295 30.243 71 29.0971 71H23.8414ZM25.6028 69.4375H29.0971C30.2477 69.4375 31.0645 69.215 31.5474 68.7699C32.0351 68.3201 32.2789 67.7756 32.2789 67.1364C32.2789 66.6439 32.1535 66.1894 31.9025 65.7727C31.6516 65.3513 31.2941 65.0152 30.8301 64.7642C30.3661 64.5085 29.8168 64.3807 29.1824 64.3807H25.6028V69.4375ZM25.6028 62.8466H28.8699C29.4002 62.8466 29.8784 62.7424 30.3045 62.5341C30.7354 62.3258 31.0763 62.0322 31.3272 61.6534C31.5829 61.2746 31.7108 60.8295 31.7108 60.3182C31.7108 59.679 31.4882 59.1368 31.0431 58.6918C30.5981 58.242 29.8926 58.017 28.9267 58.017H25.6028V62.8466ZM36.622 71V60.0909H38.2413V61.7386H38.3549C38.5538 61.1989 38.9136 60.7609 39.4345 60.4247C39.9553 60.0885 40.5424 59.9205 41.1958 59.9205C41.319 59.9205 41.4728 59.9228 41.6575 59.9276C41.8422 59.9323 41.9818 59.9394 42.0765 59.9489V61.6534C42.0197 61.6392 41.8895 61.6179 41.6859 61.5895C41.487 61.5563 41.2763 61.5398 41.0538 61.5398C40.5235 61.5398 40.05 61.651 39.6333 61.8736C39.2214 62.0914 38.8947 62.3944 38.6532 62.7827C38.4165 63.1662 38.2981 63.6042 38.2981 64.0966V71H36.622ZM47.2736 71.2557C46.5823 71.2557 45.955 71.1255 45.3915 70.8651C44.8281 70.5999 44.3806 70.2188 44.0492 69.7216C43.7177 69.2197 43.552 68.6136 43.552 67.9034C43.552 67.2784 43.6751 66.7718 43.9213 66.3835C44.1676 65.9905 44.4966 65.6828 44.9086 65.4602C45.3205 65.2377 45.775 65.072 46.2722 64.9631C46.7741 64.8494 47.2783 64.7595 47.785 64.6932C48.4479 64.608 48.9853 64.544 49.3972 64.5014C49.8139 64.4541 50.1169 64.3759 50.3063 64.267C50.5004 64.1581 50.5975 63.9687 50.5975 63.6989V63.642C50.5975 62.9413 50.4057 62.3968 50.0222 62.0085C49.6434 61.6203 49.0681 61.4261 48.2963 61.4261C47.4962 61.4261 46.8688 61.6013 46.4142 61.9517C45.9597 62.3021 45.6401 62.6761 45.4554 63.0739L43.8645 62.5057C44.1486 61.8428 44.5274 61.3267 45.0009 60.9574C45.4791 60.5833 45.9999 60.3229 46.5634 60.1761C47.1316 60.0246 47.6903 59.9489 48.2395 59.9489C48.5899 59.9489 48.9924 59.9915 49.4469 60.0767C49.9062 60.1572 50.3489 60.3253 50.775 60.581C51.2059 60.8366 51.5634 61.2225 51.8475 61.7386C52.1316 62.2547 52.2736 62.946 52.2736 63.8125V71H50.5975V69.5227H50.5123C50.3986 69.7595 50.2092 70.0128 49.9441 70.2827C49.6789 70.5526 49.3262 70.7822 48.8858 70.9716C48.4455 71.161 47.9081 71.2557 47.2736 71.2557ZM47.5293 69.75C48.1922 69.75 48.7509 69.6198 49.2054 69.3594C49.6647 69.099 50.0104 68.7628 50.2424 68.3509C50.4791 67.9389 50.5975 67.5057 50.5975 67.0511V65.517C50.5265 65.6023 50.3702 65.6804 50.1287 65.7514C49.892 65.8177 49.6174 65.8769 49.3049 65.929C48.9971 65.9763 48.6964 66.0189 48.4029 66.0568C48.1141 66.09 47.8797 66.1184 47.6998 66.142C47.2641 66.1989 46.8569 66.2912 46.4782 66.419C46.1041 66.5421 45.8011 66.7292 45.5691 66.9801C45.3418 67.2263 45.2282 67.5625 45.2282 67.9886C45.2282 68.571 45.4436 69.0114 45.8745 69.3097C46.3101 69.6032 46.8617 69.75 47.5293 69.75ZM57.0091 64.4375V71H55.3329V60.0909H56.9522V61.7955H57.0943C57.35 61.2415 57.7382 60.7964 58.2591 60.4602C58.7799 60.1193 59.4522 59.9489 60.2761 59.9489C61.0147 59.9489 61.661 60.1004 62.215 60.4034C62.769 60.7017 63.1999 61.1562 63.5076 61.767C63.8154 62.3731 63.9693 63.1402 63.9693 64.0682V71H62.2931V64.1818C62.2931 63.3248 62.0706 62.6572 61.6255 62.179C61.1805 61.696 60.5697 61.4545 59.7931 61.4545C59.2581 61.4545 58.7799 61.5705 58.3585 61.8026C57.9418 62.0346 57.6127 62.3731 57.3713 62.8182C57.1298 63.2633 57.0091 63.803 57.0091 64.4375ZM71.1515 71.2273C70.2424 71.2273 69.4398 70.9976 68.7438 70.5384C68.0478 70.0743 67.5033 69.4209 67.1103 68.5781C66.7173 67.7306 66.5208 66.7292 66.5208 65.5739C66.5208 64.428 66.7173 63.4337 67.1103 62.5909C67.5033 61.7481 68.0501 61.0971 68.7509 60.6378C69.4516 60.1785 70.2613 59.9489 71.1799 59.9489C71.8901 59.9489 72.4512 60.0672 72.8631 60.304C73.2798 60.536 73.597 60.8011 73.8148 61.0994C74.0373 61.393 74.2102 61.6345 74.3333 61.8239H74.4753V56.4545H76.1515V71H74.5321V69.3239H74.3333C74.2102 69.5227 74.035 69.7737 73.8077 70.0767C73.5804 70.375 73.2561 70.6425 72.8347 70.8793C72.4133 71.1113 71.8522 71.2273 71.1515 71.2273ZM71.3787 69.7216C72.0511 69.7216 72.6193 69.5464 73.0833 69.196C73.5473 68.8409 73.9 68.3509 74.1415 67.7259C74.383 67.0961 74.5037 66.3693 74.5037 65.5455C74.5037 64.7311 74.3854 64.0185 74.1486 63.4077C73.9119 62.7921 73.5615 62.3139 73.0975 61.973C72.6335 61.6274 72.0605 61.4545 71.3787 61.4545C70.6685 61.4545 70.0766 61.6368 69.6032 62.0014C69.1344 62.3613 68.7817 62.8513 68.5449 63.4716C68.3129 64.0871 68.1969 64.7784 68.1969 65.5455C68.1969 66.322 68.3153 67.0275 68.552 67.6619C68.7935 68.2917 69.1486 68.7936 69.6174 69.1676C70.0909 69.5369 70.678 69.7216 71.3787 69.7216Z" fill="white"/>
<path d="M328.663 61H326.902C326.798 60.4934 326.615 60.0483 326.355 59.6648C326.099 59.2812 325.787 58.9593 325.417 58.6989C325.053 58.4337 324.648 58.2348 324.203 58.1023C323.758 57.9697 323.294 57.9034 322.811 57.9034C321.93 57.9034 321.132 58.1259 320.417 58.571C319.707 59.0161 319.141 59.6719 318.72 60.5384C318.303 61.4048 318.095 62.4678 318.095 63.7273C318.095 64.9867 318.303 66.0497 318.72 66.9162C319.141 67.7827 319.707 68.4384 320.417 68.8835C321.132 69.3286 321.93 69.5511 322.811 69.5511C323.294 69.5511 323.758 69.4848 324.203 69.3523C324.648 69.2197 325.053 69.0232 325.417 68.7628C325.787 68.4976 326.099 68.1733 326.355 67.7898C326.615 67.4015 326.798 66.9564 326.902 66.4545H328.663C328.531 67.1979 328.289 67.8632 327.939 68.4503C327.588 69.0374 327.153 69.5369 326.632 69.9489C326.111 70.3561 325.526 70.6662 324.878 70.8793C324.234 71.0923 323.545 71.1989 322.811 71.1989C321.57 71.1989 320.467 70.8958 319.501 70.2898C318.535 69.6837 317.775 68.822 317.221 67.7045C316.667 66.5871 316.39 65.2614 316.39 63.7273C316.39 62.1932 316.667 60.8674 317.221 59.75C317.775 58.6326 318.535 57.7708 319.501 57.1648C320.467 56.5587 321.57 56.2557 322.811 56.2557C323.545 56.2557 324.234 56.3622 324.878 56.5753C325.526 56.7884 326.111 57.1009 326.632 57.5128C327.153 57.92 327.588 58.4171 327.939 59.0043C328.289 59.5866 328.531 60.2519 328.663 61ZM335.714 71.2273C334.729 71.2273 333.865 70.9929 333.122 70.5241C332.383 70.0554 331.805 69.3996 331.389 68.5568C330.977 67.714 330.771 66.7292 330.771 65.6023C330.771 64.4659 330.977 63.474 331.389 62.6264C331.805 61.7789 332.383 61.1207 333.122 60.652C333.865 60.1832 334.729 59.9489 335.714 59.9489C336.699 59.9489 337.561 60.1832 338.299 60.652C339.043 61.1207 339.62 61.7789 340.032 62.6264C340.449 63.474 340.657 64.4659 340.657 65.6023C340.657 66.7292 340.449 67.714 340.032 68.5568C339.62 69.3996 339.043 70.0554 338.299 70.5241C337.561 70.9929 336.699 71.2273 335.714 71.2273ZM335.714 69.7216C336.462 69.7216 337.078 69.5298 337.561 69.1463C338.044 68.7628 338.401 68.2585 338.633 67.6335C338.865 67.0085 338.981 66.3314 338.981 65.6023C338.981 64.8731 338.865 64.1937 338.633 63.5639C338.401 62.9342 338.044 62.4252 337.561 62.0369C337.078 61.6487 336.462 61.4545 335.714 61.4545C334.966 61.4545 334.35 61.6487 333.867 62.0369C333.384 62.4252 333.027 62.9342 332.795 63.5639C332.563 64.1937 332.447 64.8731 332.447 65.6023C332.447 66.3314 332.563 67.0085 332.795 67.6335C333.027 68.2585 333.384 68.7628 333.867 69.1463C334.35 69.5298 334.966 69.7216 335.714 69.7216ZM344.892 56.4545V71H343.216V56.4545H344.892ZM352.394 71.2273C351.409 71.2273 350.545 70.9929 349.801 70.5241C349.063 70.0554 348.485 69.3996 348.068 68.5568C347.656 67.714 347.45 66.7292 347.45 65.6023C347.45 64.4659 347.656 63.474 348.068 62.6264C348.485 61.7789 349.063 61.1207 349.801 60.652C350.545 60.1832 351.409 59.9489 352.394 59.9489C353.378 59.9489 354.24 60.1832 354.979 60.652C355.722 61.1207 356.3 61.7789 356.712 62.6264C357.128 63.474 357.337 64.4659 357.337 65.6023C357.337 66.7292 357.128 67.714 356.712 68.5568C356.3 69.3996 355.722 70.0554 354.979 70.5241C354.24 70.9929 353.378 71.2273 352.394 71.2273ZM352.394 69.7216C353.142 69.7216 353.757 69.5298 354.24 69.1463C354.723 68.7628 355.081 68.2585 355.313 67.6335C355.545 67.0085 355.661 66.3314 355.661 65.6023C355.661 64.8731 355.545 64.1937 355.313 63.5639C355.081 62.9342 354.723 62.4252 354.24 62.0369C353.757 61.6487 353.142 61.4545 352.394 61.4545C351.646 61.4545 351.03 61.6487 350.547 62.0369C350.064 62.4252 349.707 62.9342 349.475 63.5639C349.243 64.1937 349.127 64.8731 349.127 65.6023C349.127 66.3314 349.243 67.0085 349.475 67.6335C349.707 68.2585 350.064 68.7628 350.547 69.1463C351.03 69.5298 351.646 69.7216 352.394 69.7216ZM359.895 71V60.0909H361.515V61.7386H361.628C361.827 61.1989 362.187 60.7609 362.708 60.4247C363.229 60.0885 363.816 59.9205 364.469 59.9205C364.592 59.9205 364.746 59.9228 364.931 59.9276C365.116 59.9323 365.255 59.9394 365.35 59.9489V61.6534C365.293 61.6392 365.163 61.6179 364.959 61.5895C364.76 61.5563 364.55 61.5398 364.327 61.5398C363.797 61.5398 363.323 61.651 362.907 61.8736C362.495 62.0914 362.168 62.3944 361.927 62.7827C361.69 63.1662 361.572 63.6042 361.572 64.0966V71H359.895Z" fill="#5B5B5B"/>
<path d="M328.663 61H326.902C326.798 60.4934 326.615 60.0483 326.355 59.6648C326.099 59.2812 325.787 58.9593 325.417 58.6989C325.053 58.4337 324.648 58.2348 324.203 58.1023C323.758 57.9697 323.294 57.9034 322.811 57.9034C321.93 57.9034 321.132 58.1259 320.417 58.571C319.707 59.0161 319.141 59.6719 318.72 60.5384C318.303 61.4048 318.095 62.4678 318.095 63.7273C318.095 64.9867 318.303 66.0497 318.72 66.9162C319.141 67.7827 319.707 68.4384 320.417 68.8835C321.132 69.3286 321.93 69.5511 322.811 69.5511C323.294 69.5511 323.758 69.4848 324.203 69.3523C324.648 69.2197 325.053 69.0232 325.417 68.7628C325.787 68.4976 326.099 68.1733 326.355 67.7898C326.615 67.4015 326.798 66.9564 326.902 66.4545H328.663C328.531 67.1979 328.289 67.8632 327.939 68.4503C327.588 69.0374 327.153 69.5369 326.632 69.9489C326.111 70.3561 325.526 70.6662 324.878 70.8793C324.234 71.0923 323.545 71.1989 322.811 71.1989C321.57 71.1989 320.467 70.8958 319.501 70.2898C318.535 69.6837 317.775 68.822 317.221 67.7045C316.667 66.5871 316.39 65.2614 316.39 63.7273C316.39 62.1932 316.667 60.8674 317.221 59.75C317.775 58.6326 318.535 57.7708 319.501 57.1648C320.467 56.5587 321.57 56.2557 322.811 56.2557C323.545 56.2557 324.234 56.3622 324.878 56.5753C325.526 56.7884 326.111 57.1009 326.632 57.5128C327.153 57.92 327.588 58.4171 327.939 59.0043C328.289 59.5866 328.531 60.2519 328.663 61ZM335.714 71.2273C334.729 71.2273 333.865 70.9929 333.122 70.5241C332.383 70.0554 331.805 69.3996 331.389 68.5568C330.977 67.714 330.771 66.7292 330.771 65.6023C330.771 64.4659 330.977 63.474 331.389 62.6264C331.805 61.7789 332.383 61.1207 333.122 60.652C333.865 60.1832 334.729 59.9489 335.714 59.9489C336.699 59.9489 337.561 60.1832 338.299 60.652C339.043 61.1207 339.62 61.7789 340.032 62.6264C340.449 63.474 340.657 64.4659 340.657 65.6023C340.657 66.7292 340.449 67.714 340.032 68.5568C339.62 69.3996 339.043 70.0554 338.299 70.5241C337.561 70.9929 336.699 71.2273 335.714 71.2273ZM335.714 69.7216C336.462 69.7216 337.078 69.5298 337.561 69.1463C338.044 68.7628 338.401 68.2585 338.633 67.6335C338.865 67.0085 338.981 66.3314 338.981 65.6023C338.981 64.8731 338.865 64.1937 338.633 63.5639C338.401 62.9342 338.044 62.4252 337.561 62.0369C337.078 61.6487 336.462 61.4545 335.714 61.4545C334.966 61.4545 334.35 61.6487 333.867 62.0369C333.384 62.4252 333.027 62.9342 332.795 63.5639C332.563 64.1937 332.447 64.8731 332.447 65.6023C332.447 66.3314 332.563 67.0085 332.795 67.6335C333.027 68.2585 333.384 68.7628 333.867 69.1463C334.35 69.5298 334.966 69.7216 335.714 69.7216ZM344.892 56.4545V71H343.216V56.4545H344.892ZM352.394 71.2273C351.409 71.2273 350.545 70.9929 349.801 70.5241C349.063 70.0554 348.485 69.3996 348.068 68.5568C347.656 67.714 347.45 66.7292 347.45 65.6023C347.45 64.4659 347.656 63.474 348.068 62.6264C348.485 61.7789 349.063 61.1207 349.801 60.652C350.545 60.1832 351.409 59.9489 352.394 59.9489C353.378 59.9489 354.24 60.1832 354.979 60.652C355.722 61.1207 356.3 61.7789 356.712 62.6264C357.128 63.474 357.337 64.4659 357.337 65.6023C357.337 66.7292 357.128 67.714 356.712 68.5568C356.3 69.3996 355.722 70.0554 354.979 70.5241C354.24 70.9929 353.378 71.2273 352.394 71.2273ZM352.394 69.7216C353.142 69.7216 353.757 69.5298 354.24 69.1463C354.723 68.7628 355.081 68.2585 355.313 67.6335C355.545 67.0085 355.661 66.3314 355.661 65.6023C355.661 64.8731 355.545 64.1937 355.313 63.5639C355.081 62.9342 354.723 62.4252 354.24 62.0369C353.757 61.6487 353.142 61.4545 352.394 61.4545C351.646 61.4545 351.03 61.6487 350.547 62.0369C350.064 62.4252 349.707 62.9342 349.475 63.5639C349.243 64.1937 349.127 64.8731 349.127 65.6023C349.127 66.3314 349.243 67.0085 349.475 67.6335C349.707 68.2585 350.064 68.7628 350.547 69.1463C351.03 69.5298 351.646 69.7216 352.394 69.7216ZM359.895 71V60.0909H361.515V61.7386H361.628C361.827 61.1989 362.187 60.7609 362.708 60.4247C363.229 60.0885 363.816 59.9205 364.469 59.9205C364.592 59.9205 364.746 59.9228 364.931 59.9276C365.116 59.9323 365.255 59.9394 365.35 59.9489V61.6534C365.293 61.6392 365.163 61.6179 364.959 61.5895C364.76 61.5563 364.55 61.5398 364.327 61.5398C363.797 61.5398 363.323 61.651 362.907 61.8736C362.495 62.0914 362.168 62.3944 361.927 62.7827C361.69 63.1662 361.572 63.6042 361.572 64.0966V71H359.895Z" fill="#5B5B5B"/>
<path d="M328.663 61H326.902C326.798 60.4934 326.615 60.0483 326.355 59.6648C326.099 59.2812 325.787 58.9593 325.417 58.6989C325.053 58.4337 324.648 58.2348 324.203 58.1023C323.758 57.9697 323.294 57.9034 322.811 57.9034C321.93 57.9034 321.132 58.1259 320.417 58.571C319.707 59.0161 319.141 59.6719 318.72 60.5384C318.303 61.4048 318.095 62.4678 318.095 63.7273C318.095 64.9867 318.303 66.0497 318.72 66.9162C319.141 67.7827 319.707 68.4384 320.417 68.8835C321.132 69.3286 321.93 69.5511 322.811 69.5511C323.294 69.5511 323.758 69.4848 324.203 69.3523C324.648 69.2197 325.053 69.0232 325.417 68.7628C325.787 68.4976 326.099 68.1733 326.355 67.7898C326.615 67.4015 326.798 66.9564 326.902 66.4545H328.663C328.531 67.1979 328.289 67.8632 327.939 68.4503C327.588 69.0374 327.153 69.5369 326.632 69.9489C326.111 70.3561 325.526 70.6662 324.878 70.8793C324.234 71.0923 323.545 71.1989 322.811 71.1989C321.57 71.1989 320.467 70.8958 319.501 70.2898C318.535 69.6837 317.775 68.822 317.221 67.7045C316.667 66.5871 316.39 65.2614 316.39 63.7273C316.39 62.1932 316.667 60.8674 317.221 59.75C317.775 58.6326 318.535 57.7708 319.501 57.1648C320.467 56.5587 321.57 56.2557 322.811 56.2557C323.545 56.2557 324.234 56.3622 324.878 56.5753C325.526 56.7884 326.111 57.1009 326.632 57.5128C327.153 57.92 327.588 58.4171 327.939 59.0043C328.289 59.5866 328.531 60.2519 328.663 61ZM335.714 71.2273C334.729 71.2273 333.865 70.9929 333.122 70.5241C332.383 70.0554 331.805 69.3996 331.389 68.5568C330.977 67.714 330.771 66.7292 330.771 65.6023C330.771 64.4659 330.977 63.474 331.389 62.6264C331.805 61.7789 332.383 61.1207 333.122 60.652C333.865 60.1832 334.729 59.9489 335.714 59.9489C336.699 59.9489 337.561 60.1832 338.299 60.652C339.043 61.1207 339.62 61.7789 340.032 62.6264C340.449 63.474 340.657 64.4659 340.657 65.6023C340.657 66.7292 340.449 67.714 340.032 68.5568C339.62 69.3996 339.043 70.0554 338.299 70.5241C337.561 70.9929 336.699 71.2273 335.714 71.2273ZM335.714 69.7216C336.462 69.7216 337.078 69.5298 337.561 69.1463C338.044 68.7628 338.401 68.2585 338.633 67.6335C338.865 67.0085 338.981 66.3314 338.981 65.6023C338.981 64.8731 338.865 64.1937 338.633 63.5639C338.401 62.9342 338.044 62.4252 337.561 62.0369C337.078 61.6487 336.462 61.4545 335.714 61.4545C334.966 61.4545 334.35 61.6487 333.867 62.0369C333.384 62.4252 333.027 62.9342 332.795 63.5639C332.563 64.1937 332.447 64.8731 332.447 65.6023C332.447 66.3314 332.563 67.0085 332.795 67.6335C333.027 68.2585 333.384 68.7628 333.867 69.1463C334.35 69.5298 334.966 69.7216 335.714 69.7216ZM344.892 56.4545V71H343.216V56.4545H344.892ZM352.394 71.2273C351.409 71.2273 350.545 70.9929 349.801 70.5241C349.063 70.0554 348.485 69.3996 348.068 68.5568C347.656 67.714 347.45 66.7292 347.45 65.6023C347.45 64.4659 347.656 63.474 348.068 62.6264C348.485 61.7789 349.063 61.1207 349.801 60.652C350.545 60.1832 351.409 59.9489 352.394 59.9489C353.378 59.9489 354.24 60.1832 354.979 60.652C355.722 61.1207 356.3 61.7789 356.712 62.6264C357.128 63.474 357.337 64.4659 357.337 65.6023C357.337 66.7292 357.128 67.714 356.712 68.5568C356.3 69.3996 355.722 70.0554 354.979 70.5241C354.24 70.9929 353.378 71.2273 352.394 71.2273ZM352.394 69.7216C353.142 69.7216 353.757 69.5298 354.24 69.1463C354.723 68.7628 355.081 68.2585 355.313 67.6335C355.545 67.0085 355.661 66.3314 355.661 65.6023C355.661 64.8731 355.545 64.1937 355.313 63.5639C355.081 62.9342 354.723 62.4252 354.24 62.0369C353.757 61.6487 353.142 61.4545 352.394 61.4545C351.646 61.4545 351.03 61.6487 350.547 62.0369C350.064 62.4252 349.707 62.9342 349.475 63.5639C349.243 64.1937 349.127 64.8731 349.127 65.6023C349.127 66.3314 349.243 67.0085 349.475 67.6335C349.707 68.2585 350.064 68.7628 350.547 69.1463C351.03 69.5298 351.646 69.7216 352.394 69.7216ZM359.895 71V60.0909H361.515V61.7386H361.628C361.827 61.1989 362.187 60.7609 362.708 60.4247C363.229 60.0885 363.816 59.9205 364.469 59.9205C364.592 59.9205 364.746 59.9228 364.931 59.9276C365.116 59.9323 365.255 59.9394 365.35 59.9489V61.6534C365.293 61.6392 365.163 61.6179 364.959 61.5895C364.76 61.5563 364.55 61.5398 364.327 61.5398C363.797 61.5398 363.323 61.651 362.907 61.8736C362.495 62.0914 362.168 62.3944 361.927 62.7827C361.69 63.1662 361.572 63.6042 361.572 64.0966V71H359.895Z" fill="white"/>
<defs>
<linearGradient id="paint0_linear_43_2" x1="0" y1="15" x2="385" y2="15" gradientUnits="userSpaceOnUse">
<stop stop-color="#1EA644"/>
<stop offset="1" stop-color="#00661D"/>
</linearGradient>
</defs>
</svg>
