<svg width="385" height="95" viewBox="0 0 385 95" fill="none" xmlns="http://www.w3.org/2000/svg">
<path opacity="0.85" d="M0 5C0 2.23858 2.23858 0 5 0H380C382.761 0 385 2.23858 385 5V30H0V5Z" fill="black"/>
<path d="M7.11364 5.54545H9.63636L15.5682 20.0341H15.7727L21.7045 5.54545H24.2273V23H22.25V9.73864H22.0795L16.625 23H14.7159L9.26136 9.73864H9.09091V23H7.11364V5.54545ZM33.6811 23.2727C32.4197 23.2727 31.3317 22.9943 30.4169 22.4375C29.5078 21.875 28.8061 21.0909 28.3118 20.0852C27.8232 19.0739 27.5788 17.8977 27.5788 16.5568C27.5788 15.2159 27.8232 14.0341 28.3118 13.0114C28.8061 11.983 29.4936 11.1818 30.3743 10.608C31.2607 10.0284 32.2947 9.73864 33.4766 9.73864C34.1584 9.73864 34.8317 9.85227 35.4964 10.0795C36.1612 10.3068 36.7663 10.6761 37.3118 11.1875C37.8572 11.6932 38.2919 12.3636 38.6158 13.1989C38.9396 14.0341 39.1016 15.0625 39.1016 16.2841V17.1364H29.0107V15.3977H37.0561C37.0561 14.6591 36.9084 14 36.6129 13.4205C36.3232 12.8409 35.9084 12.3835 35.3686 12.0483C34.8345 11.7131 34.2038 11.5455 33.4766 11.5455C32.6754 11.5455 31.9822 11.7443 31.397 12.142C30.8175 12.5341 30.3714 13.0455 30.0589 13.6761C29.7464 14.3068 29.5902 14.983 29.5902 15.7045V16.8636C29.5902 17.8523 29.7607 18.6903 30.1016 19.3778C30.4482 20.0597 30.9283 20.5795 31.5419 20.9375C32.1555 21.2898 32.8686 21.4659 33.6811 21.4659C34.2095 21.4659 34.6868 21.392 35.1129 21.2443C35.5447 21.0909 35.9169 20.8636 36.2294 20.5625C36.5419 20.2557 36.7834 19.875 36.9538 19.4205L38.897 19.9659C38.6925 20.625 38.3487 21.2045 37.8658 21.7045C37.3828 22.1989 36.7862 22.5852 36.076 22.8636C35.3658 23.1364 34.5675 23.2727 33.6811 23.2727ZM47.8544 9.90909V11.6136H41.0703V9.90909H47.8544ZM43.0476 6.77273H45.0589V19.25C45.0589 19.8182 45.1413 20.2443 45.3061 20.5284C45.4766 20.8068 45.6925 20.9943 45.9538 21.0909C46.2209 21.1818 46.5021 21.2273 46.7976 21.2273C47.0192 21.2273 47.201 21.2159 47.343 21.1932C47.4851 21.1648 47.5987 21.142 47.6839 21.125L48.093 22.9318C47.9567 22.983 47.7663 23.0341 47.522 23.0852C47.2777 23.142 46.968 23.1705 46.593 23.1705C46.0249 23.1705 45.468 23.0483 44.9226 22.804C44.3828 22.5597 43.9339 22.1875 43.576 21.6875C43.2237 21.1875 43.0476 20.5568 43.0476 19.7955V6.77273ZM53.1726 15.125V23H51.1612V5.54545H53.1726V11.9545H53.343C53.6499 11.2784 54.1101 10.7415 54.7237 10.3438C55.343 9.94034 56.1669 9.73864 57.1953 9.73864C58.0874 9.73864 58.8686 9.91761 59.5391 10.2756C60.2095 10.6278 60.7294 11.1705 61.0987 11.9034C61.4737 12.6307 61.6612 13.5568 61.6612 14.6818V23H59.6499V14.8182C59.6499 13.7784 59.38 12.9744 58.8402 12.4062C58.3061 11.8324 57.5646 11.5455 56.6158 11.5455C55.9567 11.5455 55.3658 11.6847 54.843 11.9631C54.326 12.2415 53.9169 12.6477 53.6158 13.1818C53.3203 13.7159 53.1726 14.3636 53.1726 15.125ZM70.6591 23.2727C69.4773 23.2727 68.4403 22.9915 67.5483 22.429C66.6619 21.8665 65.9688 21.0795 65.4688 20.0682C64.9744 19.0568 64.7273 17.875 64.7273 16.5227C64.7273 15.1591 64.9744 13.9687 65.4688 12.9517C65.9688 11.9347 66.6619 11.1449 67.5483 10.5824C68.4403 10.0199 69.4773 9.73864 70.6591 9.73864C71.8409 9.73864 72.875 10.0199 73.7614 10.5824C74.6534 11.1449 75.3466 11.9347 75.8409 12.9517C76.3409 13.9687 76.5909 15.1591 76.5909 16.5227C76.5909 17.875 76.3409 19.0568 75.8409 20.0682C75.3466 21.0795 74.6534 21.8665 73.7614 22.429C72.875 22.9915 71.8409 23.2727 70.6591 23.2727ZM70.6591 21.4659C71.5568 21.4659 72.2955 21.2358 72.875 20.7756C73.4545 20.3153 73.8835 19.7102 74.1619 18.9602C74.4403 18.2102 74.5795 17.3977 74.5795 16.5227C74.5795 15.6477 74.4403 14.8324 74.1619 14.0767C73.8835 13.321 73.4545 12.7102 72.875 12.2443C72.2955 11.7784 71.5568 11.5455 70.6591 11.5455C69.7614 11.5455 69.0227 11.7784 68.4432 12.2443C67.8636 12.7102 67.4347 13.321 67.1562 14.0767C66.8778 14.8324 66.7386 15.6477 66.7386 16.5227C66.7386 17.3977 66.8778 18.2102 67.1562 18.9602C67.4347 19.7102 67.8636 20.3153 68.4432 20.7756C69.0227 21.2358 69.7614 21.4659 70.6591 21.4659ZM84.6044 23.2727C83.5135 23.2727 82.5504 22.9972 81.7152 22.446C80.88 21.8892 80.2266 21.1051 79.755 20.0938C79.2834 19.0767 79.0476 17.875 79.0476 16.4886C79.0476 15.1136 79.2834 13.9205 79.755 12.9091C80.2266 11.8977 80.8828 11.1165 81.7237 10.5653C82.5646 10.0142 83.5362 9.73864 84.6385 9.73864C85.4908 9.73864 86.1641 9.88068 86.6584 10.1648C87.1584 10.4432 87.5391 10.7614 87.8004 11.1193C88.0675 11.4716 88.2749 11.7614 88.4226 11.9886H88.593V5.54545H90.6044V23H88.6612V20.9886H88.4226C88.2749 21.2273 88.0646 21.5284 87.7919 21.892C87.5192 22.25 87.13 22.571 86.6243 22.8551C86.1186 23.1335 85.4453 23.2727 84.6044 23.2727ZM84.8771 21.4659C85.6839 21.4659 86.3658 21.2557 86.9226 20.8352C87.4794 20.4091 87.9027 19.821 88.1925 19.071C88.4822 18.3153 88.6271 17.4432 88.6271 16.4545C88.6271 15.4773 88.4851 14.6222 88.201 13.8892C87.9169 13.1506 87.4964 12.5767 86.9396 12.1676C86.3828 11.7528 85.6953 11.5455 84.8771 11.5455C84.0249 11.5455 83.3146 11.7642 82.7464 12.2017C82.1839 12.6335 81.7607 13.2216 81.4766 13.9659C81.1982 14.7045 81.0589 15.5341 81.0589 16.4545C81.0589 17.3864 81.201 18.233 81.4851 18.9943C81.7749 19.75 82.201 20.3523 82.7635 20.8011C83.3317 21.2443 84.0362 21.4659 84.8771 21.4659ZM103.84 12.8409L102.033 13.3523C101.92 13.0511 101.752 12.7585 101.531 12.4744C101.315 12.1847 101.019 11.946 100.644 11.7585C100.269 11.571 99.7891 11.4773 99.2038 11.4773C98.4027 11.4773 97.7351 11.6619 97.201 12.0312C96.6726 12.3949 96.4084 12.858 96.4084 13.4205C96.4084 13.9205 96.5902 14.3153 96.9538 14.6051C97.3175 14.8949 97.8857 15.1364 98.6584 15.3295L100.602 15.8068C101.772 16.0909 102.644 16.5256 103.218 17.1108C103.792 17.6903 104.079 18.4375 104.079 19.3523C104.079 20.1023 103.863 20.7727 103.431 21.3636C103.005 21.9545 102.408 22.4205 101.641 22.7614C100.874 23.1023 99.9822 23.2727 98.9652 23.2727C97.63 23.2727 96.5249 22.983 95.6499 22.4034C94.7749 21.8239 94.2209 20.9773 93.9879 19.8636L95.897 19.3864C96.0788 20.0909 96.4226 20.6193 96.9283 20.9716C97.4396 21.3239 98.1072 21.5 98.9311 21.5C99.8686 21.5 100.613 21.3011 101.164 20.9034C101.721 20.5 101.999 20.017 101.999 19.4545C101.999 19 101.84 18.6193 101.522 18.3125C101.204 18 100.715 17.767 100.056 17.6136L97.8743 17.1023C96.6754 16.8182 95.7947 16.3778 95.2322 15.7812C94.6754 15.179 94.397 14.4261 94.397 13.5227C94.397 12.7841 94.6044 12.1307 95.0192 11.5625C95.4396 10.9943 96.0107 10.5483 96.7322 10.2244C97.4595 9.90057 98.2834 9.73864 99.2038 9.73864C100.499 9.73864 101.516 10.0227 102.255 10.5909C102.999 11.1591 103.528 11.9091 103.84 12.8409Z" fill="white"/>
<path opacity="0.8" d="M0 30H385V85C385 90.5228 380.523 95 375 95H10C4.47716 95 0 90.5228 0 85V30Z" fill="url(#paint0_linear_43_3)"/>
<defs>
<linearGradient id="paint0_linear_43_3" x1="0" y1="62.5" x2="385" y2="62.5" gradientUnits="userSpaceOnUse">
<stop stop-color="#1EA644"/>
<stop offset="1" stop-color="#00661D"/>
</linearGradient>
</defs>
</svg>
