<svg width="28" height="28" viewBox="0 0 28 28" fill="none" xmlns="http://www.w3.org/2000/svg">
<rect width="28" height="28" rx="5" fill="#D9D9D9"/>
<path d="M14.75 19.1193C14.108 19.1193 13.5611 18.9446 13.1094 18.5952C12.6577 18.2429 12.3125 17.733 12.0739 17.0653C11.8352 16.3949 11.7159 15.5852 11.7159 14.6364C11.7159 13.6932 11.8352 12.8878 12.0739 12.2202C12.3153 11.5497 12.6619 11.0384 13.1136 10.6861C13.5682 10.331 14.1136 10.1534 14.75 10.1534C15.3864 10.1534 15.9304 10.331 16.3821 10.6861C16.8366 11.0384 17.1832 11.5497 17.4219 12.2202C17.6634 12.8878 17.7841 13.6932 17.7841 14.6364C17.7841 15.5852 17.6648 16.3949 17.4261 17.0653C17.1875 17.733 16.8423 18.2429 16.3906 18.5952C15.9389 18.9446 15.392 19.1193 14.75 19.1193ZM14.75 18.1818C15.3864 18.1818 15.8807 17.875 16.233 17.2614C16.5852 16.6477 16.7614 15.7727 16.7614 14.6364C16.7614 13.8807 16.6804 13.2372 16.5185 12.706C16.3594 12.1747 16.1293 11.7699 15.8281 11.4915C15.5298 11.2131 15.1705 11.0739 14.75 11.0739C14.1193 11.0739 13.6264 11.3849 13.2713 12.0071C12.9162 12.6264 12.7386 13.5028 12.7386 14.6364C12.7386 15.392 12.8182 16.0341 12.9773 16.5625C13.1364 17.0909 13.3651 17.4929 13.6634 17.7685C13.9645 18.044 14.3267 18.1818 14.75 18.1818Z" fill="black"/>
</svg>
