<svg width="75" height="22" viewBox="0 0 75 22" fill="none" xmlns="http://www.w3.org/2000/svg">
<path d="M5.244 18V4.032L0.888 5.628L0.192 3.54L7.548 0.839999H7.74V18H5.244ZM11.8343 18V16.08L15.4703 12.756C16.6223 11.7 17.5503 10.792 18.2543 10.032C18.9583 9.264 19.4703 8.572 19.7903 7.956C20.1103 7.34 20.2703 6.716 20.2703 6.084C20.2703 5.164 19.9543 4.448 19.3223 3.936C18.6983 3.416 17.8263 3.156 16.7063 3.156C15.9623 3.156 15.2503 3.284 14.5703 3.54C13.8903 3.796 13.3103 4.168 12.8303 4.656L11.8463 2.7C12.5263 2.092 13.3103 1.632 14.1983 1.32C15.0863 0.999999 16.0183 0.839999 16.9943 0.839999C18.1543 0.839999 19.1663 1.048 20.0303 1.464C20.9023 1.872 21.5783 2.452 22.0583 3.204C22.5463 3.948 22.7903 4.82 22.7903 5.82C22.7903 6.516 22.6503 7.212 22.3703 7.908C22.0983 8.596 21.6063 9.372 20.8943 10.236C20.1903 11.1 19.1903 12.136 17.8943 13.344L15.3143 15.72H23.2103V18H11.8343ZM26.3139 21.624L25.3899 20.4C25.9899 20.112 26.5179 19.764 26.9739 19.356C27.4379 18.956 27.7539 18.56 27.9219 18.168C27.5539 18.192 27.2219 18.136 26.9259 18C26.6299 17.872 26.3939 17.684 26.2179 17.436C26.0419 17.18 25.9539 16.88 25.9539 16.536C25.9539 16.024 26.1219 15.608 26.4579 15.288C26.8019 14.96 27.2339 14.796 27.7539 14.796C28.3539 14.796 28.8339 14.996 29.1939 15.396C29.5619 15.788 29.7459 16.328 29.7459 17.016C29.7459 17.544 29.6179 18.076 29.3619 18.612C29.1059 19.156 28.7219 19.68 28.2099 20.184C27.7059 20.696 27.0739 21.176 26.3139 21.624ZM34.3073 18.36L33.3833 16.296C34.5913 16.152 35.6633 15.884 36.5993 15.492C37.5353 15.1 38.3393 14.612 39.0113 14.028C39.6913 13.436 40.2433 12.784 40.6673 12.072C41.0993 11.352 41.4113 10.6 41.6033 9.816C41.1793 10.4 40.6353 10.864 39.9713 11.208C39.3153 11.544 38.5953 11.712 37.8112 11.712C36.7553 11.712 35.8033 11.484 34.9553 11.028C34.1153 10.572 33.4473 9.94 32.9513 9.132C32.4633 8.316 32.2193 7.384 32.2193 6.336C32.2193 5.296 32.4793 4.364 32.9993 3.54C33.5273 2.708 34.2513 2.052 35.1713 1.572C36.0993 1.084 37.1593 0.839999 38.3513 0.839999C39.5833 0.839999 40.6753 1.108 41.6273 1.644C42.5873 2.172 43.3393 2.94 43.8833 3.948C44.4353 4.948 44.7113 6.16 44.7113 7.584C44.7113 9.024 44.4473 10.352 43.9193 11.568C43.3993 12.776 42.6673 13.848 41.7233 14.784C40.7873 15.72 39.6873 16.492 38.4233 17.1C37.1593 17.708 35.7873 18.128 34.3073 18.36ZM38.3513 9.528C39.0233 9.528 39.6233 9.388 40.1513 9.108C40.6793 8.828 41.0993 8.444 41.4113 7.956C41.7233 7.468 41.8793 6.92 41.8793 6.312C41.8793 5.688 41.7273 5.136 41.4233 4.656C41.1273 4.176 40.7113 3.8 40.1753 3.528C39.6473 3.256 39.0393 3.12 38.3513 3.12C37.6713 3.12 37.0633 3.256 36.5273 3.528C35.9913 3.8 35.5713 4.176 35.2673 4.656C34.9633 5.136 34.8113 5.688 34.8113 6.312C34.8113 6.92 34.9673 7.468 35.2793 7.956C35.5993 8.444 36.0233 8.828 36.5513 9.108C37.0873 9.388 37.6873 9.528 38.3513 9.528ZM52.437 18.36C51.741 18.36 51.053 18.288 50.373 18.144C49.701 18 49.081 17.804 48.513 17.556C47.953 17.3 47.493 17.008 47.133 16.68L48.033 14.472C48.537 14.944 49.177 15.32 49.953 15.6C50.729 15.88 51.501 16.02 52.269 16.02C53.029 16.02 53.689 15.892 54.249 15.636C54.809 15.38 55.241 15.02 55.545 14.556C55.857 14.092 56.013 13.544 56.013 12.912C56.013 11.952 55.661 11.204 54.957 10.668C54.261 10.132 53.333 9.864 52.173 9.864C51.861 9.864 51.537 9.888 51.201 9.936C50.865 9.976 50.525 10.036 50.181 10.116L49.401 8.352L54.657 3.456H47.265V1.2H57.849V3.276L52.845 8.136C53.845 8.12 54.785 8.292 55.665 8.652C56.545 9.012 57.253 9.56 57.789 10.296C58.333 11.024 58.605 11.944 58.605 13.056C58.605 14.112 58.341 15.04 57.813 15.84C57.285 16.632 56.557 17.252 55.629 17.7C54.701 18.14 53.637 18.36 52.437 18.36ZM68.0138 18.36C66.7498 18.36 65.6298 18.088 64.6538 17.544C63.6778 17 62.9098 16.216 62.3498 15.192C61.7898 14.16 61.5098 12.916 61.5098 11.46C61.5098 10.044 61.7738 8.74 62.3018 7.548C62.8298 6.348 63.5698 5.288 64.5218 4.368C65.4738 3.44 66.5858 2.676 67.8578 2.076C69.1378 1.476 70.5258 1.064 72.0218 0.839999L72.9578 2.904C71.7338 3.032 70.6458 3.288 69.6938 3.672C68.7418 4.048 67.9218 4.516 67.2338 5.076C66.5538 5.636 65.9978 6.26 65.5658 6.948C65.1338 7.628 64.8138 8.34 64.6058 9.084C65.0538 8.508 65.6218 8.052 66.3098 7.716C66.9978 7.372 67.7458 7.2 68.5538 7.2C69.6338 7.2 70.6058 7.428 71.4698 7.884C72.3418 8.34 73.0258 8.972 73.5218 9.78C74.0258 10.588 74.2778 11.52 74.2778 12.576C74.2778 13.384 74.1258 14.14 73.8218 14.844C73.5178 15.548 73.0858 16.164 72.5258 16.692C71.9658 17.212 71.3018 17.62 70.5338 17.916C69.7738 18.212 68.9338 18.36 68.0138 18.36ZM68.0138 16.08C68.7258 16.08 69.3578 15.936 69.9098 15.648C70.4618 15.36 70.8938 14.968 71.2058 14.472C71.5258 13.968 71.6858 13.392 71.6858 12.744C71.6858 12.104 71.5218 11.532 71.1938 11.028C70.8738 10.524 70.4338 10.124 69.8738 9.828C69.3218 9.532 68.7018 9.384 68.0138 9.384C67.3178 9.384 66.6898 9.532 66.1298 9.828C65.5778 10.124 65.1378 10.524 64.8098 11.028C64.4898 11.532 64.3298 12.104 64.3298 12.744C64.3298 13.392 64.4858 13.968 64.7978 14.472C65.1178 14.968 65.5538 15.36 66.1058 15.648C66.6578 15.936 67.2938 16.08 68.0138 16.08Z" fill="white"/>
</svg>
