<svg width="75" height="23" viewBox="0 0 75 23" fill="none" xmlns="http://www.w3.org/2000/svg">
<path d="M6.94318 0.545454V18H4.82955V2.76136H4.72727L0.465909 5.59091V3.44318L4.82955 0.545454H6.94318ZM11.9631 18V16.4659L17.7244 10.1591C18.4006 9.42045 18.9574 8.77841 19.3949 8.23295C19.8324 7.68182 20.1563 7.16477 20.3665 6.68182C20.5824 6.19318 20.6903 5.68182 20.6903 5.14773C20.6903 4.53409 20.5426 4.00284 20.2472 3.55398C19.9574 3.10511 19.5597 2.75852 19.054 2.5142C18.5483 2.26989 17.9801 2.14773 17.3494 2.14773C16.679 2.14773 16.0938 2.28693 15.5938 2.56534C15.0994 2.83807 14.7159 3.22159 14.4432 3.71591C14.1761 4.21023 14.0426 4.78977 14.0426 5.45454H12.0312C12.0312 4.43182 12.267 3.53409 12.7386 2.76136C13.2102 1.98864 13.8523 1.38636 14.6648 0.954545C15.483 0.522727 16.4006 0.306818 17.4176 0.306818C18.4403 0.306818 19.3466 0.522727 20.1364 0.954545C20.9261 1.38636 21.5455 1.96875 21.9943 2.7017C22.4432 3.43466 22.6676 4.25 22.6676 5.14773C22.6676 5.78977 22.5511 6.41761 22.3182 7.03125C22.0909 7.6392 21.6932 8.31818 21.125 9.06818C20.5625 9.8125 19.7812 10.7216 18.7812 11.7955L14.8608 15.9886V16.125H22.9744V18H11.9631ZM29.5284 15.6136L29.392 16.5341C29.2955 17.1818 29.1477 17.875 28.9489 18.6136C28.7557 19.3523 28.554 20.0483 28.3438 20.7017C28.1335 21.3551 27.9602 21.875 27.8239 22.2614H26.2898C26.3636 21.8977 26.4602 21.4176 26.5795 20.821C26.6989 20.2244 26.8182 19.5568 26.9375 18.8182C27.0625 18.0852 27.1648 17.3352 27.2443 16.5682L27.3466 15.6136H29.5284ZM38.6136 0.306818C39.3295 0.3125 40.0455 0.448863 40.7614 0.715908C41.4773 0.982954 42.1307 1.42614 42.7216 2.04545C43.3125 2.65909 43.7869 3.49716 44.1449 4.55966C44.5028 5.62216 44.6818 6.95455 44.6818 8.55682C44.6818 10.108 44.5341 11.4858 44.2386 12.6903C43.9489 13.8892 43.5284 14.9006 42.9773 15.7244C42.4318 16.5483 41.767 17.1733 40.983 17.5994C40.2045 18.0256 39.3239 18.2386 38.3409 18.2386C37.3636 18.2386 36.4915 18.0455 35.7244 17.6591C34.9631 17.267 34.3381 16.7244 33.8494 16.0312C33.3665 15.3324 33.0568 14.5227 32.9205 13.6023H35C35.1875 14.4034 35.5597 15.0653 36.1165 15.5881C36.679 16.1051 37.4205 16.3636 38.3409 16.3636C39.6875 16.3636 40.75 15.7756 41.5284 14.5994C42.3125 13.4233 42.7045 11.7614 42.7045 9.61364H42.5682C42.25 10.0909 41.8722 10.5028 41.4347 10.8494C40.9972 11.196 40.5114 11.4631 39.9773 11.6506C39.4432 11.8381 38.875 11.9318 38.2727 11.9318C37.2727 11.9318 36.3551 11.6847 35.5199 11.1903C34.6903 10.6903 34.0256 10.0057 33.5256 9.13636C33.0312 8.26136 32.7841 7.26136 32.7841 6.13636C32.7841 5.06818 33.0227 4.09091 33.5 3.20454C33.983 2.3125 34.6591 1.60227 35.5284 1.07386C36.4034 0.545455 37.4318 0.289773 38.6136 0.306818ZM38.6136 2.18182C37.8977 2.18182 37.2528 2.3608 36.679 2.71875C36.1108 3.07102 35.6591 3.54829 35.3239 4.15057C34.9943 4.74716 34.8295 5.40909 34.8295 6.13636C34.8295 6.86364 34.9886 7.52557 35.3068 8.12216C35.6307 8.71307 36.071 9.18466 36.6278 9.53693C37.1903 9.88352 37.8295 10.0568 38.5455 10.0568C39.0852 10.0568 39.5881 9.9517 40.054 9.74148C40.5199 9.52557 40.9261 9.23295 41.2727 8.86364C41.625 8.48864 41.9006 8.06534 42.0994 7.59375C42.2983 7.11648 42.3977 6.61932 42.3977 6.10227C42.3977 5.42045 42.233 4.78125 41.9034 4.18466C41.5795 3.58807 41.1307 3.10511 40.5568 2.73579C39.9886 2.36648 39.3409 2.18182 38.6136 2.18182ZM53.9311 18.2386C52.8061 18.2386 51.8033 18.0455 50.9226 17.6591C50.0476 17.2727 49.3516 16.7358 48.8345 16.0483C48.3232 15.3551 48.0447 14.5511 47.9993 13.6364H50.147C50.1925 14.1989 50.3857 14.6847 50.7266 15.0938C51.0675 15.4972 51.5135 15.8097 52.0646 16.0312C52.6158 16.2528 53.2266 16.3636 53.897 16.3636C54.647 16.3636 55.3118 16.233 55.8913 15.9716C56.4709 15.7102 56.9254 15.3466 57.255 14.8807C57.5845 14.4148 57.7493 13.875 57.7493 13.2614C57.7493 12.6193 57.5902 12.054 57.272 11.5653C56.9538 11.071 56.4879 10.6847 55.8743 10.4062C55.2607 10.1278 54.5107 9.98864 53.6243 9.98864H52.2266V8.11364H53.6243C54.3175 8.11364 54.9254 7.98864 55.4482 7.73864C55.9766 7.48864 56.3885 7.13636 56.6839 6.68182C56.9851 6.22727 57.1357 5.69318 57.1357 5.07954C57.1357 4.48864 57.005 3.97443 56.7436 3.53693C56.4822 3.09943 56.1129 2.75852 55.6357 2.5142C55.1641 2.26989 54.6072 2.14773 53.9652 2.14773C53.3629 2.14773 52.7947 2.25852 52.2607 2.48011C51.7322 2.69602 51.3004 3.01136 50.9652 3.42614C50.63 3.83523 50.4482 4.32955 50.4197 4.90909H48.3743C48.4084 3.99432 48.6839 3.19318 49.201 2.50568C49.718 1.8125 50.3942 1.27273 51.2294 0.886364C52.0703 0.5 52.9936 0.306818 53.9993 0.306818C55.0788 0.306818 56.005 0.525568 56.7777 0.963068C57.5504 1.39489 58.1442 1.96591 58.5589 2.67614C58.9737 3.38636 59.1811 4.15341 59.1811 4.97727C59.1811 5.96023 58.9226 6.7983 58.4055 7.49148C57.8942 8.18466 57.1982 8.66477 56.3175 8.93182V9.06818C57.4197 9.25 58.2805 9.71875 58.8999 10.4744C59.5192 11.2244 59.8288 12.1534 59.8288 13.2614C59.8288 14.2102 59.5703 15.0625 59.0533 15.8182C58.5419 16.5682 57.843 17.1591 56.9567 17.5909C56.0703 18.0227 55.0618 18.2386 53.9311 18.2386ZM69.1101 18.2386C68.3942 18.2273 67.6783 18.0909 66.9624 17.8295C66.2464 17.5682 65.593 17.1278 65.0021 16.5085C64.4112 15.8835 63.9368 15.0398 63.5788 13.9773C63.2209 12.9091 63.0419 11.5682 63.0419 9.95455C63.0419 8.40909 63.1868 7.03977 63.4766 5.84659C63.7663 4.64773 64.1868 3.6392 64.7379 2.82102C65.2891 1.99716 65.9538 1.37216 66.7322 0.946022C67.5163 0.519886 68.3999 0.306818 69.3828 0.306818C70.3601 0.306818 71.2294 0.502841 71.9908 0.894886C72.7578 1.28125 73.3828 1.82102 73.8658 2.5142C74.3487 3.20739 74.6612 4.00568 74.8033 4.90909H72.7237C72.5305 4.125 72.1555 3.47443 71.5987 2.95739C71.0419 2.44034 70.3033 2.18182 69.3828 2.18182C68.0305 2.18182 66.9652 2.76989 66.1868 3.94602C65.4141 5.12216 65.0249 6.77273 65.0192 8.89773H65.1555C65.4737 8.41477 65.8516 8.00284 66.2891 7.66193C66.7322 7.31534 67.2209 7.0483 67.755 6.8608C68.2891 6.6733 68.8544 6.57955 69.451 6.57955C70.451 6.57955 71.3658 6.82955 72.1953 7.32955C73.0249 7.82386 73.6896 8.50852 74.1896 9.38352C74.6896 10.2528 74.9396 11.25 74.9396 12.375C74.9396 13.4545 74.6982 14.4432 74.2152 15.3409C73.7322 16.233 73.0533 16.9432 72.1783 17.4716C71.3089 17.9943 70.2862 18.25 69.1101 18.2386ZM69.1101 16.3636C69.826 16.3636 70.468 16.1847 71.0362 15.8267C71.6101 15.4687 72.0618 14.9886 72.3913 14.3864C72.7266 13.7841 72.8942 13.1136 72.8942 12.375C72.8942 11.6534 72.7322 10.9972 72.4084 10.4062C72.0902 9.80966 71.6499 9.33523 71.0874 8.98295C70.5305 8.63068 69.8942 8.45455 69.1783 8.45455C68.6385 8.45455 68.1357 8.5625 67.6697 8.77841C67.2038 8.98864 66.7947 9.27841 66.4425 9.64773C66.0959 10.017 65.8232 10.4403 65.6243 10.9176C65.4254 11.3892 65.326 11.8864 65.326 12.4091C65.326 13.1023 65.4879 13.75 65.8118 14.3523C66.1413 14.9545 66.5902 15.4403 67.1584 15.8097C67.7322 16.179 68.3828 16.3636 69.1101 16.3636Z" fill="black"/>
</svg>
