<svg width="28" height="28" viewBox="0 0 28 28" fill="none" xmlns="http://www.w3.org/2000/svg">
<rect width="28" height="28" rx="5" fill="#D9D9D9"/>
<path d="M10.9034 18V17.233L13.7841 14.0795C14.1222 13.7102 14.4006 13.3892 14.6193 13.1165C14.8381 12.8409 15 12.5824 15.1051 12.3409C15.2131 12.0966 15.267 11.8409 15.267 11.5739C15.267 11.267 15.1932 11.0014 15.0455 10.777C14.9006 10.5526 14.7017 10.3793 14.4489 10.2571C14.196 10.1349 13.9119 10.0739 13.5966 10.0739C13.2614 10.0739 12.9688 10.1435 12.7188 10.2827C12.4716 10.419 12.2798 10.6108 12.1435 10.858C12.0099 11.1051 11.9432 11.3949 11.9432 11.7273H10.9375C10.9375 11.2159 11.0554 10.767 11.2912 10.3807C11.527 9.99432 11.848 9.69318 12.2543 9.47727C12.6634 9.26136 13.1222 9.15341 13.6307 9.15341C14.142 9.15341 14.5952 9.26136 14.9901 9.47727C15.3849 9.69318 15.6946 9.98437 15.919 10.3509C16.1435 10.7173 16.2557 11.125 16.2557 11.5739C16.2557 11.8949 16.1974 12.2088 16.081 12.5156C15.9673 12.8196 15.7685 13.1591 15.4844 13.5341C15.2031 13.9062 14.8125 14.3608 14.3125 14.8977L12.3523 16.9943V17.0625H16.4091V18H10.9034Z" fill="black"/>
</svg>
