<svg width="28" height="28" viewBox="0 0 28 28" fill="none" xmlns="http://www.w3.org/2000/svg">
<rect width="28" height="28" rx="5" fill="#D9D9D9"/>
<path d="M13.8523 18.1193C13.2898 18.1193 12.7884 18.0227 12.348 17.8295C11.9105 17.6364 11.5625 17.3679 11.304 17.0241C11.0483 16.6776 10.9091 16.2756 10.8864 15.8182H11.9602C11.983 16.0994 12.0795 16.3423 12.25 16.5469C12.4205 16.7486 12.6435 16.9048 12.919 17.0156C13.1946 17.1264 13.5 17.1818 13.8352 17.1818C14.2102 17.1818 14.5426 17.1165 14.8324 16.9858C15.1222 16.8551 15.3494 16.6733 15.5142 16.4403C15.679 16.2074 15.7614 15.9375 15.7614 15.6307C15.7614 15.3097 15.6818 15.027 15.5227 14.7827C15.3636 14.5355 15.1307 14.3423 14.8239 14.2031C14.517 14.0639 14.142 13.9943 13.6989 13.9943H13V13.0568H13.6989C14.0455 13.0568 14.3494 12.9943 14.6108 12.8693C14.875 12.7443 15.081 12.5682 15.2287 12.3409C15.3793 12.1136 15.4545 11.8466 15.4545 11.5398C15.4545 11.2443 15.3892 10.9872 15.2585 10.7685C15.1278 10.5497 14.9432 10.3793 14.7045 10.2571C14.4688 10.1349 14.1903 10.0739 13.8693 10.0739C13.5682 10.0739 13.2841 10.1293 13.017 10.2401C12.7528 10.348 12.5369 10.5057 12.3693 10.7131C12.2017 10.9176 12.1108 11.1648 12.0966 11.4545H11.0739C11.0909 10.9972 11.2287 10.5966 11.4872 10.2528C11.7457 9.90625 12.0838 9.63636 12.5014 9.44318C12.9219 9.25 13.3835 9.15341 13.8864 9.15341C14.4261 9.15341 14.8892 9.26278 15.2756 9.48153C15.6619 9.69744 15.9588 9.98295 16.1662 10.3381C16.3736 10.6932 16.4773 11.0767 16.4773 11.4886C16.4773 11.9801 16.348 12.3991 16.0895 12.7457C15.8338 13.0923 15.4858 13.3324 15.0455 13.4659V13.5341C15.5966 13.625 16.027 13.8594 16.3366 14.2372C16.6463 14.6122 16.8011 15.0767 16.8011 15.6307C16.8011 16.1051 16.6719 16.5312 16.4134 16.9091C16.1577 17.2841 15.8082 17.5795 15.3651 17.7955C14.9219 18.0114 14.4176 18.1193 13.8523 18.1193Z" fill="black"/>
</svg>
