<svg width="28" height="28" viewBox="0 0 28 28" fill="none" xmlns="http://www.w3.org/2000/svg">
<rect width="28" height="28" rx="5" fill="#D9D9D9"/>
<path d="M13.8011 19.1193C13.4432 19.1136 13.0852 19.0455 12.7273 18.9148C12.3693 18.7841 12.0426 18.5639 11.7472 18.2543C11.4517 17.9418 11.2145 17.5199 11.0355 16.9886C10.8565 16.4545 10.767 15.7841 10.767 14.9773C10.767 14.2045 10.8395 13.5199 10.9844 12.9233C11.1293 12.3239 11.3395 11.8196 11.6151 11.4105C11.8906 10.9986 12.223 10.6861 12.6122 10.473C13.0043 10.2599 13.446 10.1534 13.9375 10.1534C14.4261 10.1534 14.8608 10.2514 15.2415 10.4474C15.625 10.6406 15.9375 10.9105 16.179 11.2571C16.4205 11.6037 16.5767 12.0028 16.6477 12.4545H15.608C15.5114 12.0625 15.3239 11.7372 15.0455 11.4787C14.767 11.2202 14.3977 11.0909 13.9375 11.0909C13.2614 11.0909 12.7287 11.3849 12.3395 11.973C11.9531 12.5611 11.7585 13.3864 11.7557 14.4489H11.8239C11.983 14.2074 12.1719 14.0014 12.3906 13.831C12.6122 13.6577 12.8565 13.5241 13.1236 13.4304C13.3906 13.3366 13.6733 13.2898 13.9716 13.2898C14.4716 13.2898 14.929 13.4148 15.3438 13.6648C15.7585 13.9119 16.0909 14.2543 16.3409 14.6918C16.5909 15.1264 16.7159 15.625 16.7159 16.1875C16.7159 16.7273 16.5952 17.2216 16.3537 17.6705C16.1122 18.1165 15.7727 18.4716 15.3352 18.7358C14.9006 18.9972 14.3892 19.125 13.8011 19.1193ZM13.8011 18.1818C14.1591 18.1818 14.4801 18.0923 14.7642 17.9134C15.0511 17.7344 15.277 17.4943 15.4418 17.1932C15.6094 16.892 15.6932 16.5568 15.6932 16.1875C15.6932 15.8267 15.6122 15.4986 15.4503 15.2031C15.2912 14.9048 15.071 14.6676 14.7898 14.4915C14.5114 14.3153 14.1932 14.2273 13.8352 14.2273C13.5653 14.2273 13.3139 14.2812 13.081 14.3892C12.848 14.4943 12.6435 14.6392 12.4673 14.8239C12.294 15.0085 12.1577 15.2202 12.0582 15.4588C11.9588 15.6946 11.9091 15.9432 11.9091 16.2045C11.9091 16.5511 11.9901 16.875 12.152 17.1761C12.3168 17.4773 12.5412 17.7202 12.8253 17.9048C13.1122 18.0895 13.4375 18.1818 13.8011 18.1818Z" fill="black"/>
</svg>
