<svg width="28" height="28" viewBox="0 0 28 28" fill="none" xmlns="http://www.w3.org/2000/svg">
<rect width="28" height="28" rx="5" fill="#D9D9D9"/>
<path d="M13.6989 18.1193C13.1136 18.1193 12.5966 18.0156 12.1477 17.8082C11.7017 17.598 11.3537 17.3097 11.1037 16.9432C10.8537 16.5739 10.7301 16.1534 10.733 15.6818C10.7301 15.3125 10.8026 14.9716 10.9503 14.6591C11.098 14.3437 11.2997 14.081 11.5554 13.8707C11.8139 13.6577 12.1023 13.5227 12.4205 13.4659V13.4148C12.0028 13.3068 11.6705 13.0724 11.4233 12.7116C11.1761 12.348 11.054 11.9347 11.0568 11.4716C11.054 11.0284 11.1662 10.6321 11.3935 10.2827C11.6207 9.93324 11.9332 9.65767 12.331 9.45597C12.7315 9.25426 13.1875 9.15341 13.6989 9.15341C14.2045 9.15341 14.6563 9.25426 15.054 9.45597C15.4517 9.65767 15.7642 9.93324 15.9915 10.2827C16.2216 10.6321 16.3381 11.0284 16.3409 11.4716C16.3381 11.9347 16.2116 12.348 15.9616 12.7116C15.7145 13.0724 15.3864 13.3068 14.9773 13.4148V13.4659C15.2926 13.5227 15.5767 13.6577 15.8295 13.8707C16.0824 14.081 16.2841 14.3437 16.4347 14.6591C16.5852 14.9716 16.6619 15.3125 16.6648 15.6818C16.6619 16.1534 16.5341 16.5739 16.2812 16.9432C16.0312 17.3097 15.6832 17.598 15.2372 17.8082C14.794 18.0156 14.2813 18.1193 13.6989 18.1193ZM13.6989 17.1818C14.0938 17.1818 14.4347 17.1179 14.7216 16.9901C15.0085 16.8622 15.2301 16.6818 15.3864 16.4489C15.5426 16.2159 15.6222 15.9432 15.625 15.6307C15.6222 15.3011 15.5369 15.0099 15.3693 14.7571C15.2017 14.5043 14.973 14.3054 14.6832 14.1605C14.3963 14.0156 14.0682 13.9432 13.6989 13.9432C13.3267 13.9432 12.9943 14.0156 12.7017 14.1605C12.4119 14.3054 12.1832 14.5043 12.0156 14.7571C11.8509 15.0099 11.7699 15.3011 11.7727 15.6307C11.7699 15.9432 11.8452 16.2159 11.9986 16.4489C12.1548 16.6818 12.3778 16.8622 12.6676 16.9901C12.9574 17.1179 13.3011 17.1818 13.6989 17.1818ZM13.6989 13.0398C14.0114 13.0398 14.2884 12.9773 14.5298 12.8523C14.7741 12.7273 14.9659 12.5526 15.1051 12.3281C15.2443 12.1037 15.3153 11.8409 15.3182 11.5398C15.3153 11.2443 15.2457 10.9872 15.1094 10.7685C14.973 10.5469 14.7841 10.3764 14.5426 10.2571C14.3011 10.1349 14.0199 10.0739 13.6989 10.0739C13.3722 10.0739 13.0866 10.1349 12.8423 10.2571C12.598 10.3764 12.4091 10.5469 12.2756 10.7685C12.142 10.9872 12.0767 11.2443 12.0795 11.5398C12.0767 11.8409 12.1435 12.1037 12.2798 12.3281C12.419 12.5526 12.6108 12.7273 12.8551 12.8523C13.0994 12.9773 13.3807 13.0398 13.6989 13.0398Z" fill="black"/>
</svg>
