<svg width="28" height="28" viewBox="0 0 28 28" fill="none" xmlns="http://www.w3.org/2000/svg">
<rect width="28" height="28" rx="5" fill="#D9D9D9"/>
<path d="M13.6818 9.15341C14.0398 9.15625 14.3977 9.22443 14.7557 9.35795C15.1136 9.49148 15.4403 9.71307 15.7358 10.0227C16.0313 10.3295 16.2685 10.7486 16.4474 11.2798C16.6264 11.8111 16.7159 12.4773 16.7159 13.2784C16.7159 14.054 16.642 14.7429 16.4943 15.3452C16.3494 15.9446 16.1392 16.4503 15.8636 16.8622C15.5909 17.2741 15.2585 17.5866 14.8665 17.7997C14.4773 18.0128 14.0369 18.1193 13.5455 18.1193C13.0568 18.1193 12.6207 18.0227 12.2372 17.8295C11.8565 17.6335 11.544 17.3622 11.2997 17.0156C11.0582 16.6662 10.9034 16.2614 10.8352 15.8011H11.875C11.9688 16.2017 12.1548 16.5327 12.4332 16.794C12.7145 17.0526 13.0852 17.1818 13.5455 17.1818C14.2188 17.1818 14.75 16.8878 15.1392 16.2997C15.5313 15.7116 15.7273 14.8807 15.7273 13.8068H15.6591C15.5 14.0455 15.3111 14.2514 15.0923 14.4247C14.8736 14.598 14.6307 14.7315 14.3636 14.8253C14.0966 14.919 13.8125 14.9659 13.5114 14.9659C13.0114 14.9659 12.5526 14.8423 12.1349 14.5952C11.7202 14.3452 11.3878 14.0028 11.1378 13.5682C10.8906 13.1307 10.767 12.6307 10.767 12.0682C10.767 11.5341 10.8864 11.0455 11.125 10.6023C11.3665 10.1562 11.7045 9.80114 12.1392 9.53693C12.5767 9.27273 13.0909 9.14489 13.6818 9.15341ZM13.6818 10.0909C13.3239 10.0909 13.0014 10.1804 12.7145 10.3594C12.4304 10.5355 12.2045 10.7741 12.0369 11.0753C11.8722 11.3736 11.7898 11.7045 11.7898 12.0682C11.7898 12.4318 11.8693 12.7628 12.0284 13.0611C12.1903 13.3565 12.4105 13.5923 12.6889 13.7685C12.9702 13.9418 13.2898 14.0284 13.6477 14.0284C13.9176 14.0284 14.169 13.9759 14.402 13.8707C14.6349 13.7628 14.8381 13.6165 15.0114 13.4318C15.1875 13.2443 15.3253 13.0327 15.4247 12.7969C15.5241 12.5582 15.5739 12.3097 15.5739 12.0511C15.5739 11.7102 15.4915 11.3906 15.3267 11.0923C15.1648 10.794 14.9403 10.5526 14.6534 10.3679C14.3693 10.1832 14.0455 10.0909 13.6818 10.0909Z" fill="black"/>
</svg>
