<svg width="28" height="28" viewBox="0 0 28 28" fill="none" xmlns="http://www.w3.org/2000/svg">
<rect width="28" height="28" rx="5" fill="#4D4C4C"/>
<path d="M7.26278 18H5.28551L8.2983 9.27273H10.6761L13.6847 18H11.7074L9.52131 11.267H9.45312L7.26278 18ZM7.1392 14.5696H11.8097V16.0099H7.1392V14.5696ZM22.0252 12.3281H20.1587C20.1246 12.0866 20.055 11.8722 19.9499 11.6847C19.8448 11.4943 19.7099 11.3324 19.5451 11.1989C19.3803 11.0653 19.19 10.9631 18.9741 10.892C18.761 10.821 18.5295 10.7855 18.2795 10.7855C17.8278 10.7855 17.4343 10.8977 17.0991 11.1222C16.7638 11.3437 16.5039 11.6676 16.3192 12.0938C16.1346 12.517 16.0423 13.0312 16.0423 13.6364C16.0423 14.2585 16.1346 14.7812 16.3192 15.2045C16.5067 15.6278 16.7681 15.9474 17.1033 16.1634C17.4386 16.3793 17.8263 16.4872 18.2667 16.4872C18.5138 16.4872 18.7425 16.4545 18.9528 16.3892C19.1658 16.3239 19.3548 16.2287 19.5195 16.1037C19.6843 15.9759 19.8207 15.821 19.9286 15.6392C20.0394 15.4574 20.1161 15.25 20.1587 15.017L22.0252 15.0256C21.9769 15.4261 21.8562 15.8125 21.663 16.1847C21.4727 16.554 21.2156 16.8849 20.8917 17.1776C20.5707 17.4673 20.1871 17.6974 19.7411 17.8679C19.2979 18.0355 18.7965 18.1193 18.2369 18.1193C17.4585 18.1193 16.7624 17.9432 16.1488 17.5909C15.538 17.2386 15.055 16.7287 14.6999 16.0611C14.3477 15.3935 14.1715 14.5852 14.1715 13.6364C14.1715 12.6847 14.3505 11.875 14.7085 11.2074C15.0664 10.5398 15.5522 10.0312 16.1658 9.68182C16.7795 9.32955 17.4698 9.15341 18.2369 9.15341C18.7425 9.15341 19.2113 9.22443 19.6431 9.36648C20.0778 9.50852 20.4627 9.71591 20.7979 9.98864C21.1332 10.2585 21.4059 10.5895 21.6161 10.9815C21.8292 11.3736 21.9656 11.8224 22.0252 12.3281Z" fill="#00CB1E"/>
</svg>
