<svg width="28" height="28" viewBox="0 0 28 28" fill="none" xmlns="http://www.w3.org/2000/svg">
<rect width="28" height="28" rx="5" fill="#D9D9D9"/>
<path d="M14.5739 16.3636V15.9034C14.5739 15.5341 14.6534 15.1932 14.8125 14.8807C14.9744 14.5682 15.2088 14.3168 15.5156 14.1264C15.8224 13.9361 16.196 13.8409 16.6364 13.8409C17.0881 13.8409 17.4673 13.9347 17.7741 14.1222C18.0838 14.3097 18.3182 14.5597 18.4773 14.8722C18.6364 15.1847 18.7159 15.5284 18.7159 15.9034V16.3636C18.7159 16.733 18.6349 17.0739 18.473 17.3864C18.3139 17.6989 18.0795 17.9503 17.7699 18.1406C17.4602 18.331 17.0824 18.4261 16.6364 18.4261C16.1903 18.4261 15.8139 18.331 15.5071 18.1406C15.2003 17.9503 14.9673 17.6989 14.8082 17.3864C14.652 17.0739 14.5739 16.733 14.5739 16.3636ZM16.0568 15.9034V16.3636C16.0568 16.5256 16.0966 16.6861 16.1761 16.8452C16.2585 17.0014 16.4119 17.0795 16.6364 17.0795C16.8722 17.0795 17.027 17.0028 17.1009 16.8494C17.1776 16.696 17.2159 16.5341 17.2159 16.3636V15.9034C17.2159 15.733 17.1804 15.5682 17.1094 15.4091C17.0384 15.25 16.8807 15.1705 16.6364 15.1705C16.4119 15.1705 16.2585 15.25 16.1761 15.4091C16.0966 15.5682 16.0568 15.733 16.0568 15.9034ZM10.0057 11.3693V10.9091C10.0057 10.5341 10.0866 10.1903 10.2486 9.87784C10.4134 9.56534 10.6491 9.31534 10.956 9.12784C11.2628 8.94034 11.6335 8.84659 12.0682 8.84659C12.5199 8.84659 12.8991 8.94034 13.206 9.12784C13.5156 9.31534 13.75 9.56534 13.9091 9.87784C14.0682 10.1903 14.1477 10.5341 14.1477 10.9091V11.3693C14.1477 11.7443 14.0668 12.0866 13.9048 12.3963C13.7457 12.706 13.5114 12.9531 13.2017 13.1378C12.892 13.3224 12.5142 13.4148 12.0682 13.4148C11.6222 13.4148 11.2457 13.321 10.9389 13.1335C10.6321 12.946 10.3991 12.6974 10.2401 12.3878C10.0838 12.0781 10.0057 11.7386 10.0057 11.3693ZM11.5057 10.9091V11.3693C11.5057 11.5398 11.5455 11.7017 11.625 11.8551C11.7045 12.0085 11.8523 12.0852 12.0682 12.0852C12.304 12.0852 12.4588 12.0085 12.5327 11.8551C12.6094 11.7017 12.6477 11.5398 12.6477 11.3693V10.9091C12.6477 10.7386 12.6122 10.5739 12.5412 10.4148C12.4702 10.2557 12.3125 10.1761 12.0682 10.1761C11.8438 10.1761 11.6932 10.2585 11.6165 10.4233C11.5426 10.5852 11.5057 10.7472 11.5057 10.9091ZM10.7301 18L16.7301 9.27273H17.9403L11.9403 18H10.7301Z" fill="#026870"/>
</svg>
