<svg width="28" height="28" viewBox="0 0 28 28" fill="none" xmlns="http://www.w3.org/2000/svg">
<rect width="28" height="28" rx="5" fill="#4D4C4C"/>
<path d="M13.4844 16.3636V15.9034C13.4844 15.554 13.5582 15.233 13.706 14.9403C13.8565 14.6449 14.0739 14.4091 14.358 14.233C14.6449 14.054 14.9943 13.9645 15.4062 13.9645C15.8239 13.9645 16.1747 14.0526 16.4588 14.2287C16.7457 14.4048 16.9616 14.6406 17.1065 14.9361C17.2543 15.2287 17.3281 15.5511 17.3281 15.9034V16.3636C17.3281 16.7131 17.2543 17.0355 17.1065 17.331C16.9588 17.6236 16.7415 17.858 16.4545 18.0341C16.1676 18.2131 15.8182 18.3026 15.4062 18.3026C14.9886 18.3026 14.6378 18.2131 14.3537 18.0341C14.0696 17.858 13.8537 17.6236 13.706 17.331C13.5582 17.0355 13.4844 16.7131 13.4844 16.3636ZM14.7244 15.9034V16.3636C14.7244 16.5653 14.7727 16.7557 14.8693 16.9347C14.9688 17.1136 15.1477 17.2031 15.4062 17.2031C15.6648 17.2031 15.8409 17.1151 15.9347 16.9389C16.0313 16.7628 16.0795 16.571 16.0795 16.3636V15.9034C16.0795 15.696 16.0341 15.5028 15.9432 15.3239C15.8523 15.1449 15.6733 15.0554 15.4062 15.0554C15.1506 15.0554 14.973 15.1449 14.8736 15.3239C14.7741 15.5028 14.7244 15.696 14.7244 15.9034ZM9.00568 11.3693V10.9091C9.00568 10.5568 9.08097 10.2344 9.23153 9.94176C9.3821 9.64631 9.59943 9.41051 9.88352 9.23438C10.1705 9.05824 10.517 8.97017 10.9233 8.97017C11.3438 8.97017 11.696 9.05824 11.9801 9.23438C12.2642 9.41051 12.4801 9.64631 12.6278 9.94176C12.7756 10.2344 12.8494 10.5568 12.8494 10.9091V11.3693C12.8494 11.7216 12.7741 12.044 12.6236 12.3366C12.4759 12.6293 12.2585 12.8636 11.9716 13.0398C11.6875 13.2131 11.3381 13.2997 10.9233 13.2997C10.5085 13.2997 10.1577 13.2116 9.87074 13.0355C9.58665 12.8565 9.37074 12.6222 9.22301 12.3324C9.07813 12.0398 9.00568 11.7187 9.00568 11.3693ZM10.2543 10.9091V11.3693C10.2543 11.5767 10.3026 11.7685 10.3991 11.9446C10.4986 12.1207 10.6733 12.2088 10.9233 12.2088C11.1847 12.2088 11.3622 12.1207 11.456 11.9446C11.5526 11.7685 11.6009 11.5767 11.6009 11.3693V10.9091C11.6009 10.7017 11.5554 10.5085 11.4645 10.3295C11.3736 10.1506 11.1932 10.0611 10.9233 10.0611C10.6705 10.0611 10.4957 10.152 10.3991 10.3338C10.3026 10.5156 10.2543 10.7074 10.2543 10.9091ZM9.56818 18L15.5682 9.27273H16.6847L10.6847 18H9.56818Z" fill="#09CEDC"/>
</svg>
