<svg width="28" height="28" viewBox="0 0 28 28" fill="none" xmlns="http://www.w3.org/2000/svg">
<rect width="28" height="28" rx="5" fill="#4D4C4C"/>
<path d="M13.6818 10.1534C14.0398 10.1562 14.3977 10.2244 14.7557 10.358C15.1136 10.4915 15.4403 10.7131 15.7358 11.0227C16.0313 11.3295 16.2685 11.7486 16.4474 12.2798C16.6264 12.8111 16.7159 13.4773 16.7159 14.2784C16.7159 15.054 16.642 15.7429 16.4943 16.3452C16.3494 16.9446 16.1392 17.4503 15.8636 17.8622C15.5909 18.2741 15.2585 18.5866 14.8665 18.7997C14.4773 19.0128 14.0369 19.1193 13.5455 19.1193C13.0568 19.1193 12.6207 19.0227 12.2372 18.8295C11.8565 18.6335 11.544 18.3622 11.2997 18.0156C11.0582 17.6662 10.9034 17.2614 10.8352 16.8011H11.875C11.9688 17.2017 12.1548 17.5327 12.4332 17.794C12.7145 18.0526 13.0852 18.1818 13.5455 18.1818C14.2188 18.1818 14.75 17.8878 15.1392 17.2997C15.5313 16.7116 15.7273 15.8807 15.7273 14.8068H15.6591C15.5 15.0455 15.3111 15.2514 15.0923 15.4247C14.8736 15.598 14.6307 15.7315 14.3636 15.8253C14.0966 15.919 13.8125 15.9659 13.5114 15.9659C13.0114 15.9659 12.5526 15.8423 12.1349 15.5952C11.7202 15.3452 11.3878 15.0028 11.1378 14.5682C10.8906 14.1307 10.767 13.6307 10.767 13.0682C10.767 12.5341 10.8864 12.0455 11.125 11.6023C11.3665 11.1562 11.7045 10.8011 12.1392 10.5369C12.5767 10.2727 13.0909 10.1449 13.6818 10.1534ZM13.6818 11.0909C13.3239 11.0909 13.0014 11.1804 12.7145 11.3594C12.4304 11.5355 12.2045 11.7741 12.0369 12.0753C11.8722 12.3736 11.7898 12.7045 11.7898 13.0682C11.7898 13.4318 11.8693 13.7628 12.0284 14.0611C12.1903 14.3565 12.4105 14.5923 12.6889 14.7685C12.9702 14.9418 13.2898 15.0284 13.6477 15.0284C13.9176 15.0284 14.169 14.9759 14.402 14.8707C14.6349 14.7628 14.8381 14.6165 15.0114 14.4318C15.1875 14.2443 15.3253 14.0327 15.4247 13.7969C15.5241 13.5582 15.5739 13.3097 15.5739 13.0511C15.5739 12.7102 15.4915 12.3906 15.3267 12.0923C15.1648 11.794 14.9403 11.5526 14.6534 11.3679C14.3693 11.1832 14.0455 11.0909 13.6818 11.0909Z" fill="white"/>
</svg>
