<svg width="28" height="28" viewBox="0 0 28 28" fill="none" xmlns="http://www.w3.org/2000/svg">
<rect width="28" height="28" rx="5" fill="#4D4C4C"/>
<path d="M14.8011 19.1193C14.4432 19.1136 14.0852 19.0455 13.7273 18.9148C13.3693 18.7841 13.0426 18.5639 12.7472 18.2543C12.4517 17.9418 12.2145 17.5199 12.0355 16.9886C11.8565 16.4545 11.767 15.7841 11.767 14.9773C11.767 14.2045 11.8395 13.5199 11.9844 12.9233C12.1293 12.3239 12.3395 11.8196 12.6151 11.4105C12.8906 10.9986 13.223 10.6861 13.6122 10.473C14.0043 10.2599 14.446 10.1534 14.9375 10.1534C15.4261 10.1534 15.8608 10.2514 16.2415 10.4474C16.625 10.6406 16.9375 10.9105 17.179 11.2571C17.4205 11.6037 17.5767 12.0028 17.6477 12.4545H16.608C16.5114 12.0625 16.3239 11.7372 16.0455 11.4787C15.767 11.2202 15.3977 11.0909 14.9375 11.0909C14.2614 11.0909 13.7287 11.3849 13.3395 11.973C12.9531 12.5611 12.7585 13.3864 12.7557 14.4489H12.8239C12.983 14.2074 13.1719 14.0014 13.3906 13.831C13.6122 13.6577 13.8565 13.5241 14.1236 13.4304C14.3906 13.3366 14.6733 13.2898 14.9716 13.2898C15.4716 13.2898 15.929 13.4148 16.3438 13.6648C16.7585 13.9119 17.0909 14.2543 17.3409 14.6918C17.5909 15.1264 17.7159 15.625 17.7159 16.1875C17.7159 16.7273 17.5952 17.2216 17.3537 17.6705C17.1122 18.1165 16.7727 18.4716 16.3352 18.7358C15.9006 18.9972 15.3892 19.125 14.8011 19.1193ZM14.8011 18.1818C15.1591 18.1818 15.4801 18.0923 15.7642 17.9134C16.0511 17.7344 16.277 17.4943 16.4418 17.1932C16.6094 16.892 16.6932 16.5568 16.6932 16.1875C16.6932 15.8267 16.6122 15.4986 16.4503 15.2031C16.2912 14.9048 16.071 14.6676 15.7898 14.4915C15.5114 14.3153 15.1932 14.2273 14.8352 14.2273C14.5653 14.2273 14.3139 14.2812 14.081 14.3892C13.848 14.4943 13.6435 14.6392 13.4673 14.8239C13.294 15.0085 13.1577 15.2202 13.0582 15.4588C12.9588 15.6946 12.9091 15.9432 12.9091 16.2045C12.9091 16.5511 12.9901 16.875 13.152 17.1761C13.3168 17.4773 13.5412 17.7202 13.8253 17.9048C14.1122 18.0895 14.4375 18.1818 14.8011 18.1818Z" fill="white"/>
</svg>
