<svg width="28" height="28" viewBox="0 0 28 28" fill="none" xmlns="http://www.w3.org/2000/svg">
<rect width="28" height="28" rx="5" fill="#4D4C4C"/>
<path d="M13.6307 19.1193C13.1307 19.1193 12.6804 19.0199 12.2798 18.821C11.8793 18.6222 11.5582 18.3494 11.3168 18.0028C11.0753 17.6562 10.9432 17.2614 10.9205 16.8182H11.9432C11.983 17.2131 12.1619 17.5398 12.4801 17.7983C12.8011 18.054 13.1847 18.1818 13.6307 18.1818C13.9886 18.1818 14.3068 18.098 14.5852 17.9304C14.8665 17.7628 15.0866 17.5327 15.2457 17.2401C15.4077 16.9446 15.4886 16.6108 15.4886 16.2386C15.4886 15.858 15.4048 15.5185 15.2372 15.2202C15.0724 14.919 14.8452 14.6818 14.5554 14.5085C14.2656 14.3352 13.9347 14.2472 13.5625 14.2443C13.2955 14.2415 13.0213 14.2827 12.7401 14.3679C12.4588 14.4503 12.2273 14.5568 12.0455 14.6875L11.0568 14.5682L11.5852 10.2727H16.1193V11.2102H12.4716L12.1648 13.7841H12.2159C12.3949 13.642 12.6193 13.5241 12.8892 13.4304C13.1591 13.3366 13.4403 13.2898 13.733 13.2898C14.267 13.2898 14.7429 13.4176 15.1605 13.6733C15.581 13.9261 15.9105 14.2727 16.1491 14.7131C16.3906 15.1534 16.5114 15.6562 16.5114 16.2216C16.5114 16.7784 16.3864 17.2756 16.1364 17.7131C15.8892 18.1477 15.5483 18.4915 15.1136 18.7443C14.679 18.9943 14.1847 19.1193 13.6307 19.1193Z" fill="white"/>
</svg>
