<svg width="28" height="28" viewBox="0 0 28 28" fill="none" xmlns="http://www.w3.org/2000/svg">
<rect width="28" height="28" rx="5" fill="#4D4C4C"/>
<path d="M14.8523 18.1193C14.2898 18.1193 13.7884 18.0227 13.348 17.8295C12.9105 17.6364 12.5625 17.3679 12.304 17.0241C12.0483 16.6776 11.9091 16.2756 11.8864 15.8182H12.9602C12.983 16.0994 13.0795 16.3423 13.25 16.5469C13.4205 16.7486 13.6435 16.9048 13.919 17.0156C14.1946 17.1264 14.5 17.1818 14.8352 17.1818C15.2102 17.1818 15.5426 17.1165 15.8324 16.9858C16.1222 16.8551 16.3494 16.6733 16.5142 16.4403C16.679 16.2074 16.7614 15.9375 16.7614 15.6307C16.7614 15.3097 16.6818 15.027 16.5227 14.7827C16.3636 14.5355 16.1307 14.3423 15.8239 14.2031C15.517 14.0639 15.142 13.9943 14.6989 13.9943H14V13.0568H14.6989C15.0455 13.0568 15.3494 12.9943 15.6108 12.8693C15.875 12.7443 16.081 12.5682 16.2287 12.3409C16.3793 12.1136 16.4545 11.8466 16.4545 11.5398C16.4545 11.2443 16.3892 10.9872 16.2585 10.7685C16.1278 10.5497 15.9432 10.3793 15.7045 10.2571C15.4688 10.1349 15.1903 10.0739 14.8693 10.0739C14.5682 10.0739 14.2841 10.1293 14.017 10.2401C13.7528 10.348 13.5369 10.5057 13.3693 10.7131C13.2017 10.9176 13.1108 11.1648 13.0966 11.4545H12.0739C12.0909 10.9972 12.2287 10.5966 12.4872 10.2528C12.7457 9.90625 13.0838 9.63636 13.5014 9.44318C13.9219 9.25 14.3835 9.15341 14.8864 9.15341C15.4261 9.15341 15.8892 9.26278 16.2756 9.48153C16.6619 9.69744 16.9588 9.98295 17.1662 10.3381C17.3736 10.6932 17.4773 11.0767 17.4773 11.4886C17.4773 11.9801 17.348 12.3991 17.0895 12.7457C16.8338 13.0923 16.4858 13.3324 16.0455 13.4659V13.5341C16.5966 13.625 17.027 13.8594 17.3366 14.2372C17.6463 14.6122 17.8011 15.0767 17.8011 15.6307C17.8011 16.1051 17.6719 16.5312 17.4134 16.9091C17.1577 17.2841 16.8082 17.5795 16.3651 17.7955C15.9219 18.0114 15.4176 18.1193 14.8523 18.1193Z" fill="white"/>
</svg>
