<svg width="28" height="28" viewBox="0 0 28 28" fill="none" xmlns="http://www.w3.org/2000/svg">
<rect width="28" height="28" rx="5" fill="#4D4C4C"/>
<path d="M13.75 18.1193C13.108 18.1193 12.5611 17.9446 12.1094 17.5952C11.6577 17.2429 11.3125 16.733 11.0739 16.0653C10.8352 15.3949 10.7159 14.5852 10.7159 13.6364C10.7159 12.6932 10.8352 11.8878 11.0739 11.2202C11.3153 10.5497 11.6619 10.0384 12.1136 9.68608C12.5682 9.33097 13.1136 9.15341 13.75 9.15341C14.3864 9.15341 14.9304 9.33097 15.3821 9.68608C15.8366 10.0384 16.1832 10.5497 16.4219 11.2202C16.6634 11.8878 16.7841 12.6932 16.7841 13.6364C16.7841 14.5852 16.6648 15.3949 16.4261 16.0653C16.1875 16.733 15.8423 17.2429 15.3906 17.5952C14.9389 17.9446 14.392 18.1193 13.75 18.1193ZM13.75 17.1818C14.3864 17.1818 14.8807 16.875 15.233 16.2614C15.5852 15.6477 15.7614 14.7727 15.7614 13.6364C15.7614 12.8807 15.6804 12.2372 15.5185 11.706C15.3594 11.1747 15.1293 10.7699 14.8281 10.4915C14.5298 10.2131 14.1705 10.0739 13.75 10.0739C13.1193 10.0739 12.6264 10.3849 12.2713 11.0071C11.9162 11.6264 11.7386 12.5028 11.7386 13.6364C11.7386 14.392 11.8182 15.0341 11.9773 15.5625C12.1364 16.0909 12.3651 16.4929 12.6634 16.7685C12.9645 17.044 13.3267 17.1818 13.75 17.1818Z" fill="white"/>
</svg>
