<svg width="28" height="28" viewBox="0 0 28 28" fill="none" xmlns="http://www.w3.org/2000/svg">
<rect width="28" height="28" rx="5" fill="#4D4C4C"/>
<path d="M14.6989 19.1193C14.1136 19.1193 13.5966 19.0156 13.1477 18.8082C12.7017 18.598 12.3537 18.3097 12.1037 17.9432C11.8537 17.5739 11.7301 17.1534 11.733 16.6818C11.7301 16.3125 11.8026 15.9716 11.9503 15.6591C12.098 15.3437 12.2997 15.081 12.5554 14.8707C12.8139 14.6577 13.1023 14.5227 13.4205 14.4659V14.4148C13.0028 14.3068 12.6705 14.0724 12.4233 13.7116C12.1761 13.348 12.054 12.9347 12.0568 12.4716C12.054 12.0284 12.1662 11.6321 12.3935 11.2827C12.6207 10.9332 12.9332 10.6577 13.331 10.456C13.7315 10.2543 14.1875 10.1534 14.6989 10.1534C15.2045 10.1534 15.6563 10.2543 16.054 10.456C16.4517 10.6577 16.7642 10.9332 16.9915 11.2827C17.2216 11.6321 17.3381 12.0284 17.3409 12.4716C17.3381 12.9347 17.2116 13.348 16.9616 13.7116C16.7145 14.0724 16.3864 14.3068 15.9773 14.4148V14.4659C16.2926 14.5227 16.5767 14.6577 16.8295 14.8707C17.0824 15.081 17.2841 15.3437 17.4347 15.6591C17.5852 15.9716 17.6619 16.3125 17.6648 16.6818C17.6619 17.1534 17.5341 17.5739 17.2812 17.9432C17.0312 18.3097 16.6832 18.598 16.2372 18.8082C15.794 19.0156 15.2813 19.1193 14.6989 19.1193ZM14.6989 18.1818C15.0938 18.1818 15.4347 18.1179 15.7216 17.9901C16.0085 17.8622 16.2301 17.6818 16.3864 17.4489C16.5426 17.2159 16.6222 16.9432 16.625 16.6307C16.6222 16.3011 16.5369 16.0099 16.3693 15.7571C16.2017 15.5043 15.973 15.3054 15.6832 15.1605C15.3963 15.0156 15.0682 14.9432 14.6989 14.9432C14.3267 14.9432 13.9943 15.0156 13.7017 15.1605C13.4119 15.3054 13.1832 15.5043 13.0156 15.7571C12.8509 16.0099 12.7699 16.3011 12.7727 16.6307C12.7699 16.9432 12.8452 17.2159 12.9986 17.4489C13.1548 17.6818 13.3778 17.8622 13.6676 17.9901C13.9574 18.1179 14.3011 18.1818 14.6989 18.1818ZM14.6989 14.0398C15.0114 14.0398 15.2884 13.9773 15.5298 13.8523C15.7741 13.7273 15.9659 13.5526 16.1051 13.3281C16.2443 13.1037 16.3153 12.8409 16.3182 12.5398C16.3153 12.2443 16.2457 11.9872 16.1094 11.7685C15.973 11.5469 15.7841 11.3764 15.5426 11.2571C15.3011 11.1349 15.0199 11.0739 14.6989 11.0739C14.3722 11.0739 14.0866 11.1349 13.8423 11.2571C13.598 11.3764 13.4091 11.5469 13.2756 11.7685C13.142 11.9872 13.0767 12.2443 13.0795 12.5398C13.0767 12.8409 13.1435 13.1037 13.2798 13.3281C13.419 13.5526 13.6108 13.7273 13.8551 13.8523C14.0994 13.9773 14.3807 14.0398 14.6989 14.0398Z" fill="white"/>
</svg>
