<svg width="28" height="28" viewBox="0 0 28 28" fill="none" xmlns="http://www.w3.org/2000/svg">
<rect width="28" height="28" rx="5" fill="#4D4C4C"/>
<path d="M10.9034 17V16.233L13.7841 13.0795C14.1222 12.7102 14.4006 12.3892 14.6193 12.1165C14.8381 11.8409 15 11.5824 15.1051 11.3409C15.2131 11.0966 15.267 10.8409 15.267 10.5739C15.267 10.267 15.1932 10.0014 15.0455 9.77699C14.9006 9.55256 14.7017 9.37926 14.4489 9.2571C14.196 9.13494 13.9119 9.07386 13.5966 9.07386C13.2614 9.07386 12.9688 9.14347 12.7188 9.28267C12.4716 9.41903 12.2798 9.6108 12.1435 9.85795C12.0099 10.1051 11.9432 10.3949 11.9432 10.7273H10.9375C10.9375 10.2159 11.0554 9.76705 11.2912 9.38068C11.527 8.99432 11.848 8.69318 12.2543 8.47727C12.6634 8.26136 13.1222 8.15341 13.6307 8.15341C14.142 8.15341 14.5952 8.26136 14.9901 8.47727C15.3849 8.69318 15.6946 8.98437 15.919 9.35085C16.1435 9.71733 16.2557 10.125 16.2557 10.5739C16.2557 10.8949 16.1974 11.2088 16.081 11.5156C15.9673 11.8196 15.7685 12.1591 15.4844 12.5341C15.2031 12.9062 14.8125 13.3608 14.3125 13.8977L12.3523 15.9943V16.0625H16.4091V17H10.9034Z" fill="white"/>
</svg>
