<svg width="51" height="17" viewBox="0 0 51 17" fill="none" xmlns="http://www.w3.org/2000/svg">
<path d="M3.85227 14.1193C3.28977 14.1193 2.78835 14.0227 2.34801 13.8295C1.91051 13.6364 1.5625 13.3679 1.30398 13.0241C1.0483 12.6776 0.909091 12.2756 0.886364 11.8182H1.96023C1.98295 12.0994 2.07955 12.3423 2.25 12.5469C2.42045 12.7486 2.64347 12.9048 2.91903 13.0156C3.1946 13.1264 3.5 13.1818 3.83523 13.1818C4.21023 13.1818 4.54261 13.1165 4.83239 12.9858C5.12216 12.8551 5.34943 12.6733 5.5142 12.4403C5.67898 12.2074 5.76136 11.9375 5.76136 11.6307C5.76136 11.3097 5.68182 11.027 5.52273 10.7827C5.36364 10.5355 5.13068 10.3423 4.82386 10.2031C4.51705 10.0639 4.14205 9.99432 3.69886 9.99432H3V9.05682H3.69886C4.04545 9.05682 4.34943 8.99432 4.6108 8.86932C4.875 8.74432 5.08097 8.56818 5.22869 8.34091C5.37926 8.11364 5.45455 7.84659 5.45455 7.53977C5.45455 7.24432 5.3892 6.98722 5.25852 6.76847C5.12784 6.54972 4.94318 6.37926 4.70455 6.2571C4.46875 6.13494 4.19034 6.07386 3.86932 6.07386C3.56818 6.07386 3.28409 6.12926 3.01705 6.24006C2.75284 6.34801 2.53693 6.50568 2.36932 6.71307C2.2017 6.91761 2.1108 7.16477 2.09659 7.45455H1.07386C1.09091 6.99716 1.22869 6.59659 1.48722 6.25284C1.74574 5.90625 2.08381 5.63636 2.50142 5.44318C2.92188 5.25 3.38352 5.15341 3.88636 5.15341C4.42614 5.15341 4.8892 5.26278 5.27557 5.48153C5.66193 5.69744 5.95881 5.98295 6.16619 6.33807C6.37358 6.69318 6.47727 7.0767 6.47727 7.48864C6.47727 7.98011 6.34801 8.39915 6.08949 8.74574C5.83381 9.09233 5.4858 9.33239 5.04545 9.46591V9.53409C5.59659 9.625 6.02699 9.85937 6.33665 10.2372C6.64631 10.6122 6.80114 11.0767 6.80114 11.6307C6.80114 12.1051 6.67188 12.5312 6.41335 12.9091C6.15767 13.2841 5.80824 13.5795 5.36506 13.7955C4.92188 14.0114 4.41761 14.1193 3.85227 14.1193ZM11.3906 14.1193C10.7486 14.1193 10.2017 13.9446 9.75 13.5952C9.2983 13.2429 8.95313 12.733 8.71449 12.0653C8.47585 11.3949 8.35653 10.5852 8.35653 9.63636C8.35653 8.69318 8.47585 7.88778 8.71449 7.22017C8.95597 6.54972 9.30256 6.03835 9.75426 5.68608C10.2088 5.33097 10.7543 5.15341 11.3906 5.15341C12.027 5.15341 12.571 5.33097 13.0227 5.68608C13.4773 6.03835 13.8239 6.54972 14.0625 7.22017C14.304 7.88778 14.4247 8.69318 14.4247 9.63636C14.4247 10.5852 14.3054 11.3949 14.0668 12.0653C13.8281 12.733 13.483 13.2429 13.0312 13.5952C12.5795 13.9446 12.0327 14.1193 11.3906 14.1193ZM11.3906 13.1818C12.027 13.1818 12.5213 12.875 12.8736 12.2614C13.2259 11.6477 13.402 10.7727 13.402 9.63636C13.402 8.88068 13.321 8.23722 13.1591 7.70597C13 7.17472 12.7699 6.76989 12.4688 6.49148C12.1705 6.21307 11.8111 6.07386 11.3906 6.07386C10.7599 6.07386 10.267 6.38494 9.91193 7.0071C9.55682 7.62642 9.37926 8.50284 9.37926 9.63636C9.37926 10.392 9.45881 11.0341 9.6179 11.5625C9.77699 12.0909 10.0057 12.4929 10.304 12.7685C10.6051 13.044 10.9673 13.1818 11.3906 13.1818ZM18.8395 14.1193C18.2543 14.1193 17.7372 14.0156 17.2884 13.8082C16.8423 13.598 16.4943 13.3097 16.2443 12.9432C15.9943 12.5739 15.8707 12.1534 15.8736 11.6818C15.8707 11.3125 15.9432 10.9716 16.0909 10.6591C16.2386 10.3437 16.4403 10.081 16.696 9.87074C16.9545 9.65767 17.2429 9.52273 17.5611 9.46591V9.41477C17.1435 9.30682 16.8111 9.07244 16.5639 8.71165C16.3168 8.34801 16.1946 7.93466 16.1974 7.47159C16.1946 7.02841 16.3068 6.6321 16.5341 6.28267C16.7614 5.93324 17.0739 5.65767 17.4716 5.45597C17.8722 5.25426 18.3281 5.15341 18.8395 5.15341C19.3452 5.15341 19.7969 5.25426 20.1946 5.45597C20.5923 5.65767 20.9048 5.93324 21.1321 6.28267C21.3622 6.6321 21.4787 7.02841 21.4815 7.47159C21.4787 7.93466 21.3523 8.34801 21.1023 8.71165C20.8551 9.07244 20.527 9.30682 20.1179 9.41477V9.46591C20.4332 9.52273 20.7173 9.65767 20.9702 9.87074C21.223 10.081 21.4247 10.3437 21.5753 10.6591C21.7259 10.9716 21.8026 11.3125 21.8054 11.6818C21.8026 12.1534 21.6747 12.5739 21.4219 12.9432C21.1719 13.3097 20.8239 13.598 20.3778 13.8082C19.9347 14.0156 19.4219 14.1193 18.8395 14.1193ZM18.8395 13.1818C19.2344 13.1818 19.5753 13.1179 19.8622 12.9901C20.1491 12.8622 20.3707 12.6818 20.527 12.4489C20.6832 12.2159 20.7628 11.9432 20.7656 11.6307C20.7628 11.3011 20.6776 11.0099 20.5099 10.7571C20.3423 10.5043 20.1136 10.3054 19.8239 10.1605C19.5369 10.0156 19.2088 9.94318 18.8395 9.94318C18.4673 9.94318 18.1349 10.0156 17.8423 10.1605C17.5526 10.3054 17.3239 10.5043 17.1562 10.7571C16.9915 11.0099 16.9105 11.3011 16.9134 11.6307C16.9105 11.9432 16.9858 12.2159 17.1392 12.4489C17.2955 12.6818 17.5185 12.8622 17.8082 12.9901C18.098 13.1179 18.4418 13.1818 18.8395 13.1818ZM18.8395 9.03977C19.152 9.03977 19.429 8.97727 19.6705 8.85227C19.9148 8.72727 20.1065 8.55256 20.2457 8.32812C20.3849 8.10369 20.456 7.84091 20.4588 7.53977C20.456 7.24432 20.3864 6.98722 20.25 6.76847C20.1136 6.54687 19.9247 6.37642 19.6832 6.2571C19.4418 6.13494 19.1605 6.07386 18.8395 6.07386C18.5128 6.07386 18.2273 6.13494 17.983 6.2571C17.7386 6.37642 17.5497 6.54687 17.4162 6.76847C17.2827 6.98722 17.2173 7.24432 17.2202 7.53977C17.2173 7.84091 17.2841 8.10369 17.4205 8.32812C17.5597 8.55256 17.7514 8.72727 17.9957 8.85227C18.2401 8.97727 18.5213 9.03977 18.8395 9.03977ZM36.734 12.2102V11.3409L40.5692 5.27273H41.1999V6.61932H40.7738L37.8761 11.2045V11.2727H43.0408V12.2102H36.734ZM40.842 14V11.946V11.5412V5.27273H41.8477V14H40.842ZM44.6378 14V13.233L47.5185 10.0795C47.8565 9.71023 48.1349 9.3892 48.3537 9.11648C48.5724 8.84091 48.7344 8.58239 48.8395 8.34091C48.9474 8.09659 49.0014 7.84091 49.0014 7.57386C49.0014 7.26705 48.9276 7.00142 48.7798 6.77699C48.6349 6.55256 48.4361 6.37926 48.1832 6.2571C47.9304 6.13494 47.6463 6.07386 47.331 6.07386C46.9957 6.07386 46.7031 6.14347 46.4531 6.28267C46.206 6.41903 46.0142 6.6108 45.8778 6.85795C45.7443 7.10511 45.6776 7.39489 45.6776 7.72727H44.6719C44.6719 7.21591 44.7898 6.76705 45.0256 6.38068C45.2614 5.99432 45.5824 5.69318 45.9886 5.47727C46.3977 5.26136 46.8565 5.15341 47.3651 5.15341C47.8764 5.15341 48.3295 5.26136 48.7244 5.47727C49.1193 5.69318 49.429 5.98437 49.6534 6.35085C49.8778 6.71733 49.9901 7.125 49.9901 7.57386C49.9901 7.89489 49.9318 8.20881 49.8153 8.51562C49.7017 8.8196 49.5028 9.15909 49.2188 9.53409C48.9375 9.90625 48.5469 10.3608 48.0469 10.8977L46.0866 12.9943V13.0625H50.1435V14H44.6378Z" fill="black"/>
<path d="M28.6151 6.36364L30.017 9.03338L31.4538 6.36364H33.6264L31.4141 10.1818L33.6861 14H31.5234L30.017 11.3601L28.5355 14H26.348L28.6151 10.1818L26.4276 6.36364H28.6151Z" fill="#00660F"/>
</svg>
