<svg width="49" height="18" viewBox="0 0 49 18" fill="none" xmlns="http://www.w3.org/2000/svg">
<path d="M3.156 14.18C2.808 14.18 2.464 14.144 2.124 14.072C1.788 14 1.478 13.902 1.194 13.778C0.914 13.65 0.684 13.504 0.504 13.34L0.954 12.236C1.206 12.472 1.526 12.66 1.914 12.8C2.302 12.94 2.688 13.01 3.072 13.01C3.452 13.01 3.782 12.946 4.062 12.818C4.342 12.69 4.558 12.51 4.71 12.278C4.866 12.046 4.944 11.772 4.944 11.456C4.944 10.976 4.768 10.602 4.416 10.334C4.068 10.066 3.604 9.932 3.024 9.932C2.868 9.932 2.706 9.944 2.538 9.968C2.37 9.988 2.2 10.018 2.028 10.058L1.638 9.176L4.266 6.728H0.57V5.6H5.862V6.638L3.36 9.068C3.86 9.06 4.33 9.146 4.77 9.326C5.21 9.506 5.564 9.78 5.832 10.148C6.104 10.512 6.24 10.972 6.24 11.528C6.24 12.056 6.108 12.52 5.844 12.92C5.58 13.316 5.216 13.626 4.752 13.85C4.288 14.07 3.756 14.18 3.156 14.18ZM11.0584 14.18C10.5224 14.18 10.0404 14.066 9.61238 13.838C9.18838 13.61 8.82638 13.294 8.52637 12.89C8.23038 12.486 8.00438 12.02 7.84838 11.492C7.69238 10.964 7.61438 10.4 7.61438 9.8C7.61438 9.196 7.69238 8.63 7.84838 8.102C8.00438 7.574 8.23038 7.11 8.52637 6.71C8.82638 6.306 9.18838 5.99 9.61238 5.762C10.0404 5.534 10.5224 5.42 11.0584 5.42C11.5944 5.42 12.0744 5.534 12.4984 5.762C12.9264 5.99 13.2884 6.306 13.5844 6.71C13.8844 7.11 14.1124 7.574 14.2684 8.102C14.4284 8.63 14.5084 9.196 14.5084 9.8C14.5084 10.4 14.4284 10.964 14.2684 11.492C14.1124 12.02 13.8844 12.486 13.5844 12.89C13.2884 13.294 12.9264 13.61 12.4984 13.838C12.0744 14.066 11.5944 14.18 11.0584 14.18ZM11.0584 12.992C11.3784 12.992 11.6684 12.92 11.9284 12.776C12.1884 12.628 12.4124 12.416 12.6004 12.14C12.7924 11.864 12.9384 11.53 13.0384 11.138C13.1384 10.742 13.1884 10.296 13.1884 9.8C13.1884 9.136 13.0984 8.566 12.9184 8.09C12.7424 7.61 12.4944 7.244 12.1744 6.992C11.8584 6.736 11.4864 6.608 11.0584 6.608C10.7424 6.608 10.4524 6.682 10.1884 6.83C9.92838 6.974 9.70438 7.184 9.51638 7.46C9.32838 7.736 9.18238 8.07 9.07838 8.462C8.97838 8.854 8.92838 9.3 8.92838 9.8C8.92838 10.464 9.01638 11.034 9.19238 11.51C9.37238 11.986 9.62238 12.352 9.94238 12.608C10.2624 12.864 10.6344 12.992 11.0584 12.992ZM18.7946 14.18C18.1746 14.18 17.6386 14.068 17.1866 13.844C16.7346 13.62 16.3866 13.318 16.1426 12.938C15.8986 12.558 15.7766 12.132 15.7766 11.66C15.7766 11.324 15.8366 11.024 15.9566 10.76C16.0806 10.492 16.2566 10.26 16.4846 10.064C16.7166 9.864 16.9946 9.7 17.3186 9.572C16.9906 9.44 16.7006 9.218 16.4486 8.906C16.1966 8.594 16.0706 8.2 16.0706 7.724C16.0706 7.28 16.1886 6.884 16.4246 6.536C16.6606 6.188 16.9846 5.916 17.3966 5.72C17.8126 5.52 18.2866 5.42 18.8186 5.42C19.3626 5.42 19.8426 5.52 20.2586 5.72C20.6786 5.92 21.0066 6.194 21.2426 6.542C21.4786 6.89 21.5966 7.284 21.5966 7.724C21.5966 8.044 21.5366 8.326 21.4166 8.57C21.3006 8.814 21.1466 9.02 20.9546 9.188C20.7626 9.356 20.5586 9.484 20.3426 9.572C20.7986 9.764 21.1646 10.034 21.4406 10.382C21.7206 10.73 21.8606 11.156 21.8606 11.66C21.8606 12.132 21.7326 12.558 21.4766 12.938C21.2206 13.318 20.8626 13.62 20.4026 13.844C19.9466 14.068 19.4106 14.18 18.7946 14.18ZM18.8186 13.07C19.1266 13.07 19.4126 13.014 19.6766 12.902C19.9446 12.79 20.1586 12.624 20.3186 12.404C20.4826 12.184 20.5646 11.912 20.5646 11.588C20.5646 11.268 20.4866 10.998 20.3306 10.778C20.1746 10.554 19.9646 10.386 19.7006 10.274C19.4366 10.162 19.1426 10.106 18.8186 10.106C18.3186 10.106 17.9026 10.234 17.5706 10.49C17.2386 10.742 17.0726 11.108 17.0726 11.588C17.0726 11.912 17.1526 12.184 17.3126 12.404C17.4726 12.624 17.6846 12.79 17.9486 12.902C18.2126 13.014 18.5026 13.07 18.8186 13.07ZM18.8306 9.02C19.1306 9.02 19.3966 8.97 19.6286 8.87C19.8646 8.766 20.0466 8.62 20.1746 8.432C20.3066 8.244 20.3726 8.022 20.3726 7.766C20.3726 7.386 20.2306 7.068 19.9466 6.812C19.6626 6.556 19.2906 6.428 18.8306 6.428C18.5266 6.428 18.2586 6.488 18.0266 6.608C17.7946 6.724 17.6126 6.882 17.4806 7.082C17.3526 7.282 17.2886 7.51 17.2886 7.766C17.2886 8.146 17.4326 8.45 17.7206 8.678C18.0126 8.906 18.3826 9.02 18.8306 9.02ZM38.6576 14V12.278H34.4756V11.264L37.4876 5.6H38.8556L35.8856 11.156H38.6576V9.29H39.8156V11.156H41.1116V12.278H39.8156V14H38.6576ZM42.1867 14V13.04L44.0047 11.378C44.5807 10.85 45.0447 10.396 45.3967 10.016C45.7487 9.632 46.0047 9.286 46.1647 8.978C46.3247 8.67 46.4047 8.358 46.4047 8.042C46.4047 7.582 46.2467 7.224 45.9307 6.968C45.6187 6.708 45.1827 6.578 44.6227 6.578C44.2507 6.578 43.8947 6.642 43.5547 6.77C43.2147 6.898 42.9247 7.084 42.6847 7.328L42.1927 6.35C42.5327 6.046 42.9247 5.816 43.3687 5.66C43.8127 5.5 44.2787 5.42 44.7667 5.42C45.3467 5.42 45.8527 5.524 46.2847 5.732C46.7207 5.936 47.0587 6.226 47.2987 6.602C47.5427 6.974 47.6647 7.41 47.6647 7.91C47.6647 8.258 47.5947 8.606 47.4547 8.954C47.3187 9.298 47.0727 9.686 46.7167 10.118C46.3647 10.55 45.8647 11.068 45.2167 11.672L43.9267 12.86H47.8747V14H42.1867Z" fill="white"/>
<path d="M25.21 14.007L27.716 10.521L25.357 7.07H27.296L28.773 9.415L30.201 7.07H32.091L29.802 10.479L32.287 14H30.313L28.717 11.564L27.1 13.986L25.21 14.007Z" fill="#00CB1E"/>
</svg>
